<svg id="Group_88311" data-name="Group 88311" xmlns="http://www.w3.org/2000/svg" xmlns:xlink="http://www.w3.org/1999/xlink" width="964.374" height="637.675" viewBox="0 0 964.374 637.675">
  <defs>
    <clipPath id="clip-path">
      <rect id="Rectangle_358" data-name="Rectangle 358" width="964.374" height="637.675" fill="none"/>
    </clipPath>
    <clipPath id="clip-path-2">
      <rect id="Rectangle_332" data-name="Rectangle 332" width="964.375" height="637.677" fill="none"/>
    </clipPath>
    <clipPath id="clip-path-3">
      <rect id="Rectangle_333" data-name="Rectangle 333" width="31.812" height="9.192" fill="none"/>
    </clipPath>
    <clipPath id="clip-path-5">
      <rect id="Rectangle_341" data-name="Rectangle 341" width="412.405" height="564.23" fill="none"/>
    </clipPath>
  </defs>
  <g id="Group_88120" data-name="Group 88120" clip-path="url(#clip-path)">
    <g id="Group_88112" data-name="Group 88112" transform="translate(0 -0.002)">
      <g id="Group_88111" data-name="Group 88111" clip-path="url(#clip-path-2)">
        <path id="Path_123145" data-name="Path 123145" d="M235.958,714.961S73.186,283.131,275.289,185.871,589.444,446.6,779.765,367.985,968.331,594.1,933.59,714.961Z" transform="translate(-99.839 -96.959)" fill="#f5efe9"/>
        <path id="Path_123146" data-name="Path 123146" d="M1109.652,232.517c54.683,45.276,230.209,58.844,238.9-14.7,8.822-74.657-114.794-32.174-193.293-102.567-60.4-54.158-134.188,43.922-45.607,117.264" transform="translate(-613.206 -57.154)" fill="#f5efe9"/>
        <path id="Path_123147" data-name="Path 123147" d="M1859.416,897.091h28.565a172.358,172.358,0,0,0,40.656-47.9c0-.015.015-.015.015-.029,11.183-19.917,18.965-44.935,13.762-72.914-12.942-69.558,68.766-89.227,52.176-173.793-16.166-82.368,24.622-114.436,26.777-116.062a528.849,528.849,0,0,0-43.046,32.7c-36.142,30.339-82.133,77.063-83.818,119.448-3.21,80.2-14.349,89.022-39.235,137.71-31.862,62.333,4.148,120.84,4.148,120.84" transform="translate(-1056.992 -279.089)" fill="#867d2d"/>
        <path id="Path_123148" data-name="Path 123148" d="M1912.394,932.128s3.953-229.9,121.729-384.669" transform="translate(-1097.322 -314.127)" fill="none" stroke="#585c1f" stroke-width="3.439"/>
        <path id="Path_123149" data-name="Path 123149" d="M2058.927,776.251c-12.942-69.559,68.766-89.227,52.175-173.793-16.166-82.368,24.623-114.436,26.778-116.062a528.4,528.4,0,0,0-43.045,32.7c-4.324,13.161-7.915,30.69-8.047,52.821-.337,56.939,7.416,71.493-8,105.964s-29.254,62.23-23.816,92.012c5.437,29.767-.235,59.621-9.805,79.275,11.183-19.918,18.965-44.936,13.762-72.915" transform="translate(-1173.505 -279.089)" fill="#c6ba4c"/>
        <path id="Path_123150" data-name="Path 123150" d="M2047.17,425.454s12.973-81.792,43.8-69.145-43.8,69.145-43.8,69.145" transform="translate(-1174.656 -203.684)" fill="#867d2d"/>
        <path id="Path_123151" data-name="Path 123151" d="M1888.382,867.122s-9.145-301.729,90.626-432.955" transform="translate(-1083.418 -249.121)" fill="none" stroke="#585c1f" stroke-width="3.439"/>
        <path id="Path_123152" data-name="Path 123152" d="M1926.755,1170.27s14.563-130.216,115.608-207.646" transform="translate(-1105.562 -552.347)" fill="none" stroke="#585c1f" stroke-width="3.439"/>
        <path id="Path_123153" data-name="Path 123153" d="M2170.339,946.749a11.791,11.791,0,1,0,11.792-11.792,11.792,11.792,0,0,0-11.792,11.792" transform="translate(-1245.33 -536.471)" fill="#f4b647"/>
        <path id="Path_123154" data-name="Path 123154" d="M2031.893,1116.859s23.042-26.793,54.265-28.275" transform="translate(-1165.89 -624.622)" fill="none" stroke="#585c1f" stroke-width="3.439"/>
        <path id="Path_123155" data-name="Path 123155" d="M2150.981,1077.478a8.25,8.25,0,1,0,8.251-8.25,8.25,8.25,0,0,0-8.251,8.25" transform="translate(-1234.222 -613.515)" fill="#f4b647"/>
        <path id="Path_123156" data-name="Path 123156" d="M2086.7,1009.939s13.493-27.39,3.771-47.315" transform="translate(-1197.34 -552.347)" fill="none" stroke="#585c1f" stroke-width="3.439"/>
        <path id="Path_123157" data-name="Path 123157" d="M2072.568,940.2a8.1,8.1,0,1,0,8.1-8.1,8.1,8.1,0,0,0-8.1,8.1" transform="translate(-1189.229 -534.833)" fill="#f4b647"/>
        <path id="Path_123158" data-name="Path 123158" d="M1939.441,1322.307s13.042-71.536,77.859-94.854c0,0-14.624,55.331-71.141,94.854Z" transform="translate(-1112.841 -704.304)" fill="#585c1f"/>
        <path id="Path_123159" data-name="Path 123159" d="M1939.441,1386.157s8.792-45.451,90.159-47.427c0,0-33.642,37.349-83.44,47.427Z" transform="translate(-1112.841 -768.154)" fill="#c6ba4c"/>
        <path id="Path_123160" data-name="Path 123160" d="M72.625,95.427a22.8,22.8,0,1,1,22.8-22.8A22.8,22.8,0,0,1,72.625,95.427Z" transform="translate(-28.587 -28.584)" fill="none" stroke="#f2d6bd" stroke-width="2.36"/>
        <path id="Path_123161" data-name="Path 123161" d="M90.758,53.53a36.348,36.348,0,1,0,.012.966Zm-65.2.969A7.706,7.706,0,1,1,33.271,62.2,7.707,7.707,0,0,1,25.562,54.5m25,22.24a7.708,7.708,0,1,1-2.821-10.528,7.705,7.705,0,0,1,2.821,10.528M47.738,42.784a7.707,7.707,0,1,1,2.821-10.528,7.707,7.707,0,0,1-2.821,10.528M58.231,32.649c.067-.133.136-.264.211-.393a7.712,7.712,0,1,1-.211.393m.211,44.09A7.708,7.708,0,1,1,68.97,79.558a7.705,7.705,0,0,1-10.528-2.819M75.733,62.2c-.058,0-.113,0-.17,0a7.692,7.692,0,1,1,.17,0" transform="translate(-10.463 -10.458)" fill="#fff"/>
        <path id="Path_123162" data-name="Path 123162" d="M90.758,53.53a36.348,36.348,0,1,0,.012.966Zm-65.2.969A7.706,7.706,0,1,1,33.271,62.2,7.707,7.707,0,0,1,25.562,54.5Zm25,22.24a7.708,7.708,0,1,1-2.821-10.528A7.705,7.705,0,0,1,50.559,76.739ZM47.738,42.784a7.707,7.707,0,1,1,2.821-10.528A7.707,7.707,0,0,1,47.738,42.784ZM58.231,32.649c.067-.133.136-.264.211-.393a7.712,7.712,0,1,1-.211.393Zm.211,44.09A7.708,7.708,0,1,1,68.97,79.558,7.705,7.705,0,0,1,58.442,76.739ZM75.733,62.2c-.058,0-.113,0-.17,0a7.692,7.692,0,1,1,.17,0Z" transform="translate(-10.463 -10.458)" fill="none" stroke="#f2d6bd" stroke-width="2.36"/>
        <path id="Path_123163" data-name="Path 123163" d="M1926.021,142.235c-.9-2.811-2.978-4.777-5.391-4.777v15.883c2.386,0,4.438-1.922,5.358-4.681h12.752v-6.424Z" transform="translate(-1102.048 -78.871)" fill="#fff"/>
        <path id="Path_123164" data-name="Path 123164" d="M1926.021,142.235c-.9-2.811-2.978-4.777-5.391-4.777v15.883c2.386,0,4.438-1.922,5.358-4.681h12.752v-6.424Z" transform="translate(-1102.048 -78.871)" fill="none" stroke="#f2d6bd" stroke-width="2.179"/>
        <rect id="Rectangle_315" data-name="Rectangle 315" width="38.134" height="19.62" transform="translate(837.582 34.262)" fill="#fff"/>
        <rect id="Rectangle_316" data-name="Rectangle 316" width="38.134" height="19.62" transform="translate(837.582 34.262)" fill="none" stroke="#f2d6bd" stroke-width="2.179"/>
        <path id="Rectangle_317" data-name="Rectangle 317" d="M2.294,0H29.517a2.295,2.295,0,0,1,2.295,2.295V21.164a2.294,2.294,0,0,1-2.294,2.294H2.294A2.294,2.294,0,0,1,0,21.164V2.294A2.294,2.294,0,0,1,2.294,0Z" transform="translate(840.743 54.848)" fill="none" stroke="#000" stroke-width="0.622"/>
        <path id="Path_123165" data-name="Path 123165" d="M2001.3,113.865a1.74,1.74,0,0,0-1.346-.635h-44.148a1.743,1.743,0,0,0-1.743,1.743v33.145a1.748,1.748,0,0,0,1.743,1.743h44.148a1.743,1.743,0,0,0,1.743-1.743V114.973a1.737,1.737,0,0,0-.4-1.107" transform="translate(-1121.231 -64.969)" fill="#fff"/>
        <path id="Path_123166" data-name="Path 123166" d="M2001.3,113.865a1.74,1.74,0,0,0-1.346-.635h-44.148a1.743,1.743,0,0,0-1.743,1.743v33.145a1.748,1.748,0,0,0,1.743,1.743h44.148a1.743,1.743,0,0,0,1.743-1.743V114.973A1.737,1.737,0,0,0,2001.3,113.865Z" transform="translate(-1121.231 -64.969)" fill="none" stroke="#f2d6bd" stroke-width="2.179"/>
        <rect id="Rectangle_318" data-name="Rectangle 318" width="7.039" height="36.63" transform="translate(894.782 48.261)" fill="#fff"/>
        <rect id="Rectangle_319" data-name="Rectangle 319" width="7.039" height="36.63" transform="translate(894.782 48.261)" fill="none" stroke="#f2d6bd" stroke-width="2.179"/>
        <rect id="Rectangle_320" data-name="Rectangle 320" width="1.572" height="15.787" transform="translate(880.465 58.683)" fill="#fff"/>
        <rect id="Rectangle_321" data-name="Rectangle 321" width="1.572" height="15.787" transform="translate(880.465 58.683)" fill="none" stroke="#f2d6bd" stroke-width="2.179"/>
        <rect id="Rectangle_322" data-name="Rectangle 322" width="2.204" height="21.254" transform="translate(882.037 55.95)" fill="#fff"/>
        <rect id="Rectangle_323" data-name="Rectangle 323" width="2.204" height="21.254" transform="translate(882.037 55.95)" fill="none" stroke="#f2d6bd" stroke-width="2.179"/>
        <rect id="Rectangle_324" data-name="Rectangle 324" width="2.871" height="25.559" transform="translate(884.24 53.797)" fill="#fff"/>
        <rect id="Rectangle_325" data-name="Rectangle 325" width="2.871" height="25.559" transform="translate(884.24 53.797)" fill="none" stroke="#f2d6bd" stroke-width="2.179"/>
        <rect id="Rectangle_326" data-name="Rectangle 326" width="3.332" height="30.787" transform="translate(887.111 51.183)" fill="#fff"/>
        <rect id="Rectangle_327" data-name="Rectangle 327" width="3.332" height="30.787" transform="translate(887.111 51.183)" fill="none" stroke="#f2d6bd" stroke-width="2.179"/>
        <rect id="Rectangle_328" data-name="Rectangle 328" width="4.34" height="34.17" transform="translate(890.443 49.491)" fill="#fff"/>
        <rect id="Rectangle_329" data-name="Rectangle 329" width="4.34" height="34.17" transform="translate(890.443 49.491)" fill="none" stroke="#f2d6bd" stroke-width="2.179"/>
        <rect id="Rectangle_330" data-name="Rectangle 330" width="31.812" height="9.192" transform="translate(840.743 61.981)" fill="#f2d6bd"/>
        <rect id="Rectangle_331" data-name="Rectangle 331" width="31.812" height="9.192" transform="translate(840.743 61.981)" fill="#f2d6bd"/>
      </g>
    </g>
    <g id="Group_88114" data-name="Group 88114" transform="translate(840.743 61.978)">
      <g id="Group_88113" data-name="Group 88113" clip-path="url(#clip-path-3)">
        <path id="Path_123167" data-name="Path 123167" d="M1978.876,152.061a2.631,2.631,0,1,0,2.631-2.631,2.63,2.63,0,0,0-2.631,2.631m.418.168c0-.055-.006-.11-.006-.168a1.629,1.629,0,0,1,.009-.171,2.215,2.215,0,0,1,.526-1.275,2.71,2.71,0,0,1,.241-.241,2.213,2.213,0,0,1,1.272-.526,1.64,1.64,0,0,1,.343,0,2.214,2.214,0,0,1,1.272.526,2.756,2.756,0,0,1,.241.241,2.214,2.214,0,0,1,.526,1.275,1.6,1.6,0,0,1,.009.171c0,.058,0,.113-.005.168a2.24,2.24,0,0,1-.529,1.275,2.7,2.7,0,0,1-.241.241,2.214,2.214,0,0,1-1.272.526c-.055.006-.113.009-.171.009s-.117,0-.172-.009a2.213,2.213,0,0,1-1.272-.526,2.658,2.658,0,0,1-.241-.241,2.236,2.236,0,0,1-.528-1.275" transform="translate(-1976.212 -147.72)" fill="#f2d6bd"/>
        <path id="Path_123168" data-name="Path 123168" d="M1972.64,152.409a9.218,9.218,0,1,0-9.217-9.218,9.228,9.228,0,0,0,9.217,9.218" transform="translate(-1967.345 -138.852)" fill="#fff"/>
        <circle id="Ellipse_3" data-name="Ellipse 3" cx="9.218" cy="9.218" r="9.218" transform="translate(-6.748 9.328) rotate(-67.5)" fill="none" stroke="#f2d6bd" stroke-width="0.622"/>
        <path id="Path_123169" data-name="Path 123169" d="M1979.291,154.12a4.278,4.278,0,1,0-4.278-4.278,4.282,4.282,0,0,0,4.278,4.278" transform="translate(-1973.995 -145.502)" fill="#fff"/>
        <circle id="Ellipse_4" data-name="Ellipse 4" cx="4.278" cy="4.278" r="4.278" transform="translate(-0.294 6.655) rotate(-67.5)" fill="none" stroke="#f2d6bd" stroke-width="0.622"/>
        <path id="Path_123170" data-name="Path 123170" d="M1979.349,152.33a2.43,2.43,0,1,0,2.43-2.43,2.429,2.429,0,0,0-2.43,2.43" transform="translate(-1976.483 -147.99)" fill="#fff"/>
        <path id="Path_123171" data-name="Path 123171" d="M1979.349,152.33a2.43,2.43,0,1,0,2.43-2.43A2.429,2.429,0,0,0,1979.349,152.33Z" transform="translate(-1976.483 -147.99)" fill="none" stroke="#f2d6bd" stroke-width="0.622"/>
        <path id="Path_123172" data-name="Path 123172" d="M1984.279,155.4a.573.573,0,1,0-.573-.573.573.573,0,0,0,.573.573" transform="translate(-1978.983 -150.49)" fill="#fff"/>
        <path id="Path_123173" data-name="Path 123173" d="M1984.279,155.4a.573.573,0,1,0-.573-.573A.573.573,0,0,0,1984.279,155.4Z" transform="translate(-1978.983 -150.49)" fill="none" stroke="#f2d6bd" stroke-width="0.622"/>
        <path id="Path_123174" data-name="Path 123174" d="M1984.648,149.9v1.882a.569.569,0,0,1,.343,0V149.9Z" transform="translate(-1979.524 -147.99)" fill="#f2d6bd"/>
        <path id="Path_123175" data-name="Path 123175" d="M1984.819,156.911a.545.545,0,0,1-.172-.026v1.882h.343v-1.882a.543.543,0,0,1-.171.026" transform="translate(-1979.524 -151.998)" fill="#f2d6bd"/>
        <path id="Path_123176" data-name="Path 123176" d="M1986.331,155.2a.557.557,0,0,1,.026.171.536.536,0,0,1-.026.168h1.885v-.34Z" transform="translate(-1980.489 -151.032)" fill="#f2d6bd"/>
        <path id="Path_123177" data-name="Path 123177" d="M1979.346,155.2v.34h1.885a.539.539,0,0,1-.026-.168.56.56,0,0,1,.026-.171Z" transform="translate(-1976.481 -151.032)" fill="#f2d6bd"/>
        <path id="Path_123178" data-name="Path 123178" d="M1986.853,151.437l-1.176,1.179a.585.585,0,0,1,.238.241l1.179-1.179.154-.154-.241-.241Z" transform="translate(-1980.114 -148.784)" fill="#f2d6bd"/>
        <path id="Path_123179" data-name="Path 123179" d="M1980.736,157.557l.241.241.154-.154,1.176-1.179a.547.547,0,0,1-.238-.241Z" transform="translate(-1977.279 -151.619)" fill="#f2d6bd"/>
        <path id="Path_123180" data-name="Path 123180" d="M1985.677,156.465l1.176,1.179.154.154.241-.241-1.333-1.333a.548.548,0,0,1-.238.241" transform="translate(-1980.114 -151.619)" fill="#f2d6bd"/>
        <path id="Path_123181" data-name="Path 123181" d="M1980.736,151.524l.154.154,1.179,1.179a.579.579,0,0,1,.238-.241l-1.176-1.179-.154-.154Z" transform="translate(-1977.279 -148.784)" fill="#f2d6bd"/>
        <path id="Path_123182" data-name="Path 123182" d="M2028.666,152.061a2.631,2.631,0,1,0,2.631-2.631,2.63,2.63,0,0,0-2.631,2.631m.418.168c0-.055-.006-.11-.006-.168a1.505,1.505,0,0,1,.009-.171,2.212,2.212,0,0,1,.525-1.275,2.777,2.777,0,0,1,.241-.241,2.213,2.213,0,0,1,1.272-.526,1.59,1.59,0,0,1,.171-.009,1.616,1.616,0,0,1,.172.009,2.213,2.213,0,0,1,1.272.526,2.756,2.756,0,0,1,.241.241,2.211,2.211,0,0,1,.526,1.275,1.6,1.6,0,0,1,.009.171c0,.058,0,.113-.006.168a2.229,2.229,0,0,1-.528,1.275,2.7,2.7,0,0,1-.241.241,2.214,2.214,0,0,1-1.272.526c-.055.006-.114.009-.172.009a1.711,1.711,0,0,1-.171-.009,2.213,2.213,0,0,1-1.272-.526,2.722,2.722,0,0,1-.241-.241,2.236,2.236,0,0,1-.528-1.275" transform="translate(-2004.781 -147.72)" fill="#f2d6bd"/>
        <path id="Path_123183" data-name="Path 123183" d="M2022.43,152.409a9.218,9.218,0,1,0-9.218-9.218,9.228,9.228,0,0,0,9.218,9.218" transform="translate(-1995.914 -138.852)" fill="#fff"/>
        <circle id="Ellipse_5" data-name="Ellipse 5" cx="9.218" cy="9.218" r="9.218" transform="translate(14.473 9.328) rotate(-67.5)" fill="none" stroke="#f2d6bd" stroke-width="0.622"/>
        <path id="Path_123184" data-name="Path 123184" d="M2029.08,154.12a4.278,4.278,0,1,0-4.278-4.278,4.283,4.283,0,0,0,4.278,4.278" transform="translate(-2002.564 -145.502)" fill="#fff"/>
        <circle id="Ellipse_6" data-name="Ellipse 6" cx="4.278" cy="4.278" r="4.278" transform="translate(20.927 6.655) rotate(-67.5)" fill="none" stroke="#f2d6bd" stroke-width="0.622"/>
        <path id="Path_123185" data-name="Path 123185" d="M2029.138,152.33a2.43,2.43,0,1,0,2.43-2.43,2.43,2.43,0,0,0-2.43,2.43" transform="translate(-2005.052 -147.99)" fill="#fff"/>
        <path id="Path_123186" data-name="Path 123186" d="M2029.138,152.33a2.43,2.43,0,1,0,2.43-2.43A2.43,2.43,0,0,0,2029.138,152.33Z" transform="translate(-2005.052 -147.99)" fill="none" stroke="#f2d6bd" stroke-width="0.622"/>
        <path id="Path_123187" data-name="Path 123187" d="M2034.068,155.4a.573.573,0,1,0-.573-.573.573.573,0,0,0,.573.573" transform="translate(-2007.552 -150.49)" fill="#fff"/>
        <path id="Path_123188" data-name="Path 123188" d="M2034.068,155.4a.573.573,0,1,0-.573-.573A.573.573,0,0,0,2034.068,155.4Z" transform="translate(-2007.552 -150.49)" fill="none" stroke="#f2d6bd" stroke-width="0.622"/>
        <path id="Path_123189" data-name="Path 123189" d="M2034.437,149.9v1.882a.569.569,0,0,1,.343,0V149.9Z" transform="translate(-2008.092 -147.99)" fill="#f2d6bd"/>
        <path id="Path_123190" data-name="Path 123190" d="M2034.609,156.911a.546.546,0,0,1-.172-.026v1.882h.343v-1.882a.544.544,0,0,1-.171.026" transform="translate(-2008.092 -151.998)" fill="#f2d6bd"/>
        <path id="Path_123191" data-name="Path 123191" d="M2036.12,155.2a.56.56,0,0,1,.026.171.539.539,0,0,1-.026.168H2038v-.34Z" transform="translate(-2009.058 -151.032)" fill="#f2d6bd"/>
        <path id="Path_123192" data-name="Path 123192" d="M2029.135,155.2v.34h1.885a.54.54,0,0,1-.026-.168.561.561,0,0,1,.026-.171Z" transform="translate(-2005.05 -151.032)" fill="#f2d6bd"/>
        <path id="Path_123193" data-name="Path 123193" d="M2036.642,151.437l-1.176,1.179a.585.585,0,0,1,.238.241l1.179-1.179.154-.154-.242-.241Z" transform="translate(-2008.683 -148.784)" fill="#f2d6bd"/>
        <path id="Path_123194" data-name="Path 123194" d="M2030.526,157.557l.241.241.154-.154,1.177-1.179a.545.545,0,0,1-.238-.241Z" transform="translate(-2005.848 -151.619)" fill="#f2d6bd"/>
        <path id="Path_123195" data-name="Path 123195" d="M2035.466,156.465l1.176,1.179.154.154.242-.241-1.333-1.333a.548.548,0,0,1-.238.241" transform="translate(-2008.683 -151.619)" fill="#f2d6bd"/>
        <path id="Path_123196" data-name="Path 123196" d="M2030.526,151.524l.154.154,1.179,1.179a.578.578,0,0,1,.238-.241l-1.177-1.179-.154-.154Z" transform="translate(-2005.848 -148.784)" fill="#f2d6bd"/>
      </g>
    </g>
    <g id="Group_88119" data-name="Group 88119" transform="translate(0 -0.002)">
      <g id="Group_88118" data-name="Group 88118" clip-path="url(#clip-path-2)">
        <path id="Path_123197" data-name="Path 123197" d="M2034.9,63.656a12.424,12.424,0,1,1-12.425-12.424A12.425,12.425,0,0,1,2034.9,63.656" transform="translate(-1153.359 -29.395)" fill="#fff"/>
        <path id="Path_123198" data-name="Path 123198" d="M2034.9,63.656a12.424,12.424,0,1,1-12.425-12.424A12.425,12.425,0,0,1,2034.9,63.656Z" transform="translate(-1153.359 -29.395)" fill="none" stroke="#f2d6bd" stroke-width="2.179"/>
        <path id="Path_123199" data-name="Path 123199" d="M2035.706,66.779a10.105,10.105,0,1,1-10.105-10.1,10.105,10.105,0,0,1,10.105,10.1" transform="translate(-1156.481 -32.517)" fill="#fff"/>
        <circle id="Ellipse_7" data-name="Ellipse 7" cx="10.105" cy="10.105" r="10.105" transform="matrix(0.23, -0.973, 0.973, 0.23, 856.964, 41.775)" fill="none" stroke="#f2d6bd" stroke-width="2.179"/>
        <path id="Path_123200" data-name="Path 123200" d="M2036.725,70.74a7.162,7.162,0,1,1-7.163-7.162,7.163,7.163,0,0,1,7.163,7.162" transform="translate(-1160.443 -36.479)" fill="#fff"/>
        <circle id="Ellipse_8" data-name="Ellipse 8" cx="7.162" cy="7.162" r="7.162" transform="translate(859.762 30.386) rotate(-22.5)" fill="none" stroke="#f2d6bd" stroke-width="2.179"/>
        <path id="Path_123201" data-name="Path 123201" d="M2037.1,72.495a4.184,4.184,0,1,0,.657,2.248,4.19,4.19,0,0,0-.657-2.248" transform="translate(-1164.443 -40.48)" fill="#fff"/>
        <path id="Path_123202" data-name="Path 123202" d="M2037.1,72.495a4.184,4.184,0,1,0,.657,2.248A4.19,4.19,0,0,0,2037.1,72.495Z" transform="translate(-1164.443 -40.48)" fill="none" stroke="#f2d6bd" stroke-width="2.179"/>
        <path id="Path_123203" data-name="Path 123203" d="M1976.38,63.656a12.424,12.424,0,1,1-12.424-12.424,12.425,12.425,0,0,1,12.424,12.424" transform="translate(-1119.779 -29.395)" fill="#fff"/>
        <path id="Path_123204" data-name="Path 123204" d="M1976.38,63.656a12.424,12.424,0,1,1-12.424-12.424A12.425,12.425,0,0,1,1976.38,63.656Z" transform="translate(-1119.779 -29.395)" fill="none" stroke="#f2d6bd" stroke-width="2.179"/>
        <path id="Path_123205" data-name="Path 123205" d="M1977.183,66.779a10.1,10.1,0,1,1-10.1-10.1,10.1,10.1,0,0,1,10.1,10.1" transform="translate(-1122.901 -32.517)" fill="#fff"/>
        <circle id="Ellipse_9" data-name="Ellipse 9" cx="10.105" cy="10.105" r="10.105" transform="matrix(0.23, -0.973, 0.973, 0.23, 832.021, 41.775)" fill="none" stroke="#f2d6bd" stroke-width="2.179"/>
        <path id="Path_123206" data-name="Path 123206" d="M1978.2,70.74a7.162,7.162,0,1,1-7.162-7.162,7.162,7.162,0,0,1,7.162,7.162" transform="translate(-1126.862 -36.479)" fill="#fff"/>
        <circle id="Ellipse_10" data-name="Ellipse 10" cx="7.162" cy="7.162" r="7.162" transform="translate(834.819 30.386) rotate(-22.5)" fill="none" stroke="#f2d6bd" stroke-width="2.179"/>
        <path id="Path_123207" data-name="Path 123207" d="M1978.573,72.495a4.184,4.184,0,1,0,.658,2.248,4.145,4.145,0,0,0-.658-2.248" transform="translate(-1130.863 -40.48)" fill="#fff"/>
        <path id="Path_123208" data-name="Path 123208" d="M1978.573,72.495a4.184,4.184,0,1,0,.658,2.248A4.145,4.145,0,0,0,1978.573,72.495Z" transform="translate(-1130.863 -40.48)" fill="none" stroke="#f2d6bd" stroke-width="2.179"/>
        <rect id="Rectangle_334" data-name="Rectangle 334" width="31.812" height="9.192" transform="translate(840.743 61.981)" fill="none" stroke="#f2d6bd" stroke-width="2.179"/>
        <rect id="Rectangle_335" data-name="Rectangle 335" width="137.296" height="216.008" transform="translate(176.991 0)" fill="#f2d6bd"/>
        <path id="Path_123209" data-name="Path 123209" d="M695.122,246.415h0a2.362,2.362,0,0,1-2.356-2.356v-35.65a2.356,2.356,0,1,1,4.711,0v35.65a2.363,2.363,0,0,1-2.356,2.356" transform="translate(-397.506 -118.23)" fill="#f5efe9"/>
        <rect id="Rectangle_336" data-name="Rectangle 336" width="137.296" height="216.008" transform="translate(314.286 0)" fill="#f2d6bd"/>
        <path id="Path_123210" data-name="Path 123210" d="M1017.257,246.415h0a2.363,2.363,0,0,1-2.356-2.356v-35.65a2.356,2.356,0,1,1,4.711,0v35.65a2.362,2.362,0,0,1-2.355,2.356" transform="translate(-582.345 -118.23)" fill="#f5efe9"/>
        <rect id="Rectangle_337" data-name="Rectangle 337" width="137.296" height="216.008" transform="translate(451.583 0)" fill="#f2d6bd"/>
        <path id="Path_123211" data-name="Path 123211" d="M1339.393,246.415h0a2.363,2.363,0,0,1-2.356-2.356v-35.65a2.356,2.356,0,1,1,4.711,0v35.65a2.362,2.362,0,0,1-2.356,2.356" transform="translate(-767.185 -118.23)" fill="#f5efe9"/>
        <rect id="Rectangle_338" data-name="Rectangle 338" width="137.296" height="216.008" transform="translate(588.878 0)" fill="#f2d6bd"/>
        <path id="Path_123212" data-name="Path 123212" d="M1661.529,246.415h0a2.363,2.363,0,0,1-2.356-2.356v-35.65a2.356,2.356,0,1,1,4.711,0v35.65a2.362,2.362,0,0,1-2.356,2.356" transform="translate(-952.025 -118.23)" fill="#f5efe9"/>
        <line id="Line_71" data-name="Line 71" y2="216.008" transform="translate(588.878 0)" fill="none" stroke="#d1af90" stroke-width="3.273"/>
        <line id="Line_72" data-name="Line 72" y2="216.008" transform="translate(451.582 0)" fill="none" stroke="#d1af90" stroke-width="3.273"/>
        <line id="Line_73" data-name="Line 73" y2="216.008" transform="translate(314.286 0)" fill="none" stroke="#d1af90" stroke-width="3.273"/>
        <rect id="Rectangle_339" data-name="Rectangle 339" width="13.043" height="466.617" transform="translate(145.401 151.296)" fill="#396c85"/>
        <path id="Path_123213" data-name="Path 123213" d="M329.468,334.727H225.963a6.732,6.732,0,0,1-6.732-6.732V224.489a6.732,6.732,0,0,1,6.732-6.732H329.468a6.732,6.732,0,0,1,6.732,6.732V327.995a6.732,6.732,0,0,1-6.732,6.732" transform="translate(-125.794 -124.946)" fill="#396c85"/>
        <path id="Path_123214" data-name="Path 123214" d="M331.992,88.074H223.438a4.208,4.208,0,0,1-4.208-4.207V4.2A4.208,4.208,0,0,1,223.438,0H331.992A4.208,4.208,0,0,1,336.2,4.2V83.866a4.208,4.208,0,0,1-4.208,4.207" transform="translate(-125.793 0.004)" fill="#4298c7"/>
        <path id="Path_123215" data-name="Path 123215" d="M338.629,285.683a51.472,51.472,0,1,1-51.472-51.472,51.472,51.472,0,0,1,51.472,51.472" transform="translate(-135.234 -134.387)" fill="#4298c7"/>
        <path id="Path_123216" data-name="Path 123216" d="M339.915,290.687a47.756,47.756,0,1,1-47.755-47.755,47.755,47.755,0,0,1,47.755,47.755" transform="translate(-140.238 -139.391)" fill="#f4c97c"/>
        <path id="Path_123217" data-name="Path 123217" d="M258.507,210.325H246.5a2.1,2.1,0,0,1-2.1-2.1V200.85a2.1,2.1,0,0,1,2.1-2.1h12.006a2.1,2.1,0,0,1,2.1,2.1v7.378a2.1,2.1,0,0,1-2.1,2.1" transform="translate(-140.238 -114.042)" fill="#4298c7"/>
        <path id="Path_123218" data-name="Path 123218" d="M432.59,210.325H444.6a2.1,2.1,0,0,0,2.1-2.1V200.85a2.1,2.1,0,0,0-2.1-2.1H432.59a2.1,2.1,0,0,0-2.1,2.1v7.378a2.1,2.1,0,0,0,2.1,2.1" transform="translate(-247.015 -114.042)" fill="#4298c7"/>
        <path id="Path_123219" data-name="Path 123219" d="M506.25,330.519V221.965a4.208,4.208,0,0,1,4.207-4.208H590.12a4.208,4.208,0,0,1,4.207,4.208V330.519a4.208,4.208,0,0,1-4.207,4.208H510.457a4.208,4.208,0,0,1-4.207-4.208" transform="translate(-290.484 -124.946)" fill="#4298c7"/>
        <path id="Path_123220" data-name="Path 123220" d="M487,257.034V245.027a2.1,2.1,0,0,1,2.1-2.1h7.378a2.1,2.1,0,0,1,2.1,2.1v12.006a2.1,2.1,0,0,1-2.1,2.1H489.1a2.1,2.1,0,0,1-2.1-2.1" transform="translate(-279.437 -139.39)" fill="#4298c7"/>
        <path id="Path_123221" data-name="Path 123221" d="M487,431.118v12.006a2.1,2.1,0,0,0,2.1,2.1h7.378a2.1,2.1,0,0,0,2.1-2.1V431.118a2.1,2.1,0,0,0-2.1-2.1H489.1a2.1,2.1,0,0,0-2.1,2.1" transform="translate(-279.437 -246.168)" fill="#4298c7"/>
        <path id="Path_123222" data-name="Path 123222" d="M88.078,221.965V330.52a4.207,4.207,0,0,1-4.207,4.208H4.207A4.207,4.207,0,0,1,0,330.52V221.965a4.208,4.208,0,0,1,4.207-4.208H83.87a4.208,4.208,0,0,1,4.207,4.208" transform="translate(0 -124.946)" fill="#4298c7"/>
        <path id="Path_123223" data-name="Path 123223" d="M210.33,431.118v12.006a2.1,2.1,0,0,1-2.1,2.1h-7.378a2.1,2.1,0,0,1-2.1-2.1V431.118a2.1,2.1,0,0,1,2.1-2.1h7.378a2.1,2.1,0,0,1,2.1,2.1" transform="translate(-114.047 -246.168)" fill="#4298c7"/>
        <path id="Path_123224" data-name="Path 123224" d="M210.33,257.034V245.027a2.1,2.1,0,0,0-2.1-2.1h-7.378a2.1,2.1,0,0,0-2.1,2.1v12.006a2.1,2.1,0,0,0,2.1,2.1h7.378a2.1,2.1,0,0,0,2.1-2.1" transform="translate(-114.047 -139.39)" fill="#4298c7"/>
        <path id="Path_123225" data-name="Path 123225" d="M331.992,503.308H223.438a4.208,4.208,0,0,0-4.208,4.207v79.663a4.208,4.208,0,0,0,4.208,4.208H331.992a4.208,4.208,0,0,0,4.208-4.208V507.516a4.208,4.208,0,0,0-4.208-4.207" transform="translate(-125.793 -288.793)" fill="#4298c7"/>
        <path id="Path_123226" data-name="Path 123226" d="M258.507,484.058H246.5a2.1,2.1,0,0,0-2.1,2.1v7.378a2.1,2.1,0,0,0,2.1,2.1h12.006a2.1,2.1,0,0,0,2.1-2.1v-7.378a2.1,2.1,0,0,0-2.1-2.1" transform="translate(-140.238 -277.748)" fill="#4298c7"/>
        <path id="Path_123227" data-name="Path 123227" d="M432.59,484.058H444.6a2.1,2.1,0,0,1,2.1,2.1v7.378a2.1,2.1,0,0,1-2.1,2.1H432.59a2.1,2.1,0,0,1-2.1-2.1v-7.378a2.1,2.1,0,0,1,2.1-2.1" transform="translate(-247.015 -277.748)" fill="#4298c7"/>
        <rect id="Rectangle_340" data-name="Rectangle 340" width="18.794" height="6.732" transform="translate(156.551 396.281)" fill="#4298c7"/>
        <path id="Path_123228" data-name="Path 123228" d="M349.545,932.472H333.907a3.121,3.121,0,0,1-3.121-3.121V905.509a3.121,3.121,0,0,1,3.121-3.121h15.638a3.121,3.121,0,0,1,3.121,3.121v23.843a3.121,3.121,0,0,1-3.121,3.121" transform="translate(-189.803 -517.784)" fill="#4298c7"/>
        <path id="Path_123229" data-name="Path 123229" d="M349.545,1115.764H333.907a3.121,3.121,0,0,1-3.121-3.121V1088.8a3.121,3.121,0,0,1,3.121-3.121h15.638a3.121,3.121,0,0,1,3.121,3.121v23.843a3.121,3.121,0,0,1-3.121,3.121" transform="translate(-189.803 -622.956)" fill="#4298c7"/>
        <path id="Path_123230" data-name="Path 123230" d="M407.059,934.646h-6.872a1.613,1.613,0,0,1-1.613-1.613V918.727a1.613,1.613,0,0,1,1.613-1.613h6.872a1.613,1.613,0,0,1,1.613,1.613v14.306a1.613,1.613,0,0,1-1.613,1.613" transform="translate(-228.7 -526.233)" fill="#4298c7"/>
        <path id="Path_123231" data-name="Path 123231" d="M344.5,1437.334h-69v-3.646a5.61,5.61,0,0,1,5.61-5.61h57.784a5.61,5.61,0,0,1,5.61,5.61Z" transform="translate(-158.081 -819.422)" fill="#396c85"/>
        <g id="Group_88117" data-name="Group 88117" transform="translate(392.156 53.772)" opacity="0.2">
          <g id="Group_88116" data-name="Group 88116">
            <g id="Group_88115" data-name="Group 88115" clip-path="url(#clip-path-5)">
              <path id="Path_123232" data-name="Path 123232" d="M1332.514,168.566l-53.857,521.823H920.11l314.17-564.231Z" transform="translate(-920.11 -126.159)" fill="#f4c97c"/>
            </g>
          </g>
        </g>
        <path id="Path_123233" data-name="Path 123233" d="M1654.44,80.423c-1.659,3.834,19.51,16.666,47.272,28.682s51.587,18.656,53.246,14.823a54.765,54.765,0,0,0-100.519-43.5" transform="translate(-949.257 -27.2)" fill="#b0a393"/>
        <path id="Path_123234" data-name="Path 123234" d="M1654.44,123.411c-1.659,3.834,19.51,16.666,47.272,28.682s51.587,18.656,53.246,14.823-19.489-16.657-47.252-28.673-51.608-18.665-53.267-14.832" transform="translate(-949.257 -70.188)" fill="#80776b"/>
        <path id="Path_123235" data-name="Path 123235" d="M1703.879,152.575c31.262,13.53,49.93,17.194,51.6,15.443.1-2.324-15.353-13.426-46.616-26.956s-49.948-17.2-51.618-15.452c-.093,2.324,15.365,13.431,46.636,26.965" transform="translate(-950.918 -71.839)" fill="#f4c97c"/>
        <path id="Path_123236" data-name="Path 123236" d="M1802.635,50.738h0a4.209,4.209,0,0,0,4.208-4.208V0h-8.417V46.53a4.209,4.209,0,0,0,4.208,4.208" transform="translate(-1031.928 0.005)" fill="#80776b"/>
        <path id="Path_123237" data-name="Path 123237" d="M1492.134,654.816H1528.5l-2.193-22.365h-36.367Z" transform="translate(-854.921 -362.895)" fill="#4d4740"/>
        <rect id="Rectangle_342" data-name="Rectangle 342" width="16.41" height="13.305" transform="translate(669.91 216.955)" fill="#4d4740"/>
        <rect id="Rectangle_343" data-name="Rectangle 343" width="15.818" height="13.206" transform="translate(571.008 236.863)" fill="#4d4740"/>
        <path id="Path_123238" data-name="Path 123238" d="M1481.325,529.653l13.6,59.561h-35a1.8,1.8,0,0,1-1.583-.947l-2.023-3.774a6.732,6.732,0,0,0-5.933-3.551h-81.715l-11.235-51.289Z" transform="translate(-778.892 -303.91)" fill="#80776b"/>
        <rect id="Rectangle_344" data-name="Rectangle 344" width="27.941" height="5.132" transform="translate(550.607 196.8)" fill="#4d4740"/>
        <path id="Path_123239" data-name="Path 123239" d="M1419.018,588.622h73.622l-5.617-28.484H1413.4Z" transform="translate(-811.002 -321.402)" fill="#4d4740"/>
        <path id="Path_123240" data-name="Path 123240" d="M1291.129,568.074H1302.1a11.526,11.526,0,0,0,11.3-13.787l-3.075-15.369a11.525,11.525,0,0,0-11.3-9.264h-15.585Z" transform="translate(-736.433 -303.91)" fill="#80776b"/>
        <path id="Path_123241" data-name="Path 123241" d="M1453.979,553.779l1.262,9.226a4.243,4.243,0,0,1-4.2,4.819H1411.55" transform="translate(-809.94 -317.753)" fill="none" stroke="#80776b" stroke-width="1.715"/>
        <path id="Path_123242" data-name="Path 123242" d="M1486.139,617l-1.157-4.937a5.862,5.862,0,0,0-5.708-4.525H1417.1" transform="translate(-813.125 -348.603)" fill="none" stroke="#80776b" stroke-width="1.715"/>
        <path id="Path_123243" data-name="Path 123243" d="M1663.681,764.617s-4.232.124-4.735-1.259,1.88-2.148,1.88-2.148c-1.03-.7-.766-2.058.909-2.514s7.043-2.575,9.036-3.383,5.764-5.422,4.919-6.053-5.369,4.15-6.946,4.161-.975-1.73-.416-2.389,5.5-6.1,8.132-8.484c2.314-2.1,6.278-2.806,7.4-2.879,5.314-3.2,40.121-25.9,40.122-25.894,5.84-3.98,14.7-2.525,19.1,3.127a13.508,13.508,0,0,1-7.058,21.326c-.008,0-.013.008-.021.01-5.375,1.883-39.255,13.253-45.408,15.447a45.938,45.938,0,0,1-4.382,4.969c-3.135,3.034-9.14,6.631-11.443,7.057s-8.309,1.73-10.279,1.255c-1.831-.441-.817-2.35-.817-2.35" transform="translate(-951.854 -408.267)" fill="#de8759"/>
        <rect id="Rectangle_345" data-name="Rectangle 345" width="3.487" height="85.339" transform="translate(660.68 307.563) rotate(-58.779)" fill="#80776b"/>
        <path id="Path_123244" data-name="Path 123244" d="M1701.269,806.735h0a3.216,3.216,0,0,0-1.083-4.416l-15.187-9.2a3.215,3.215,0,0,0-3.333,5.5l15.187,9.2a3.216,3.216,0,0,0,4.417-1.083" transform="translate(-964.042 -454.815)" fill="#4d4740"/>
        <path id="Path_123245" data-name="Path 123245" d="M1579.652,476.586h-36.233a1.3,1.3,0,0,1-1.289-1.163l-1.213-11.814a1.3,1.3,0,0,1,1.289-1.428h5.627a4.4,4.4,0,0,0,4.374-4.883l-.465-4.228a1.455,1.455,0,0,1,1.447-1.616h36.386a2.9,2.9,0,0,1,2.82,3.577l-3.988,16.616a3.909,3.909,0,0,1-2.374,2.727l-4.954,1.943a3.915,3.915,0,0,1-1.427.27" transform="translate(-884.166 -259.04)" fill="#80776b"/>
        <path id="Path_123246" data-name="Path 123246" d="M1331.225,469.226l3.808,15.372a7.059,7.059,0,0,0,6.849,5.358h41.2a7.053,7.053,0,0,0,6.849-8.75l-3.816-15.372a7.046,7.046,0,0,0-6.849-5.358h-41.19a7.055,7.055,0,0,0-6.849,8.75m6.184-2.215a.818.818,0,0,1,.665-.322h41.19a.845.845,0,0,1,.818.636l3.809,15.38a.793.793,0,0,1-.154.716.8.8,0,0,1-.658.321h-41.2a.83.83,0,0,1-.812-.636l-3.815-15.372a.812.812,0,0,1,.153-.724" transform="translate(-763.729 -264.217)" fill="#80776b"/>
        <path id="Path_123247" data-name="Path 123247" d="M1451.543,496.681l5.849,22.414-16.705,1.035,5.98-15.935Z" transform="translate(-826.659 -284.991)" fill="#80776b"/>
        <path id="Path_123248" data-name="Path 123248" d="M1334.866,460.477h-13.847l.986,6.552h4.041Z" transform="translate(-757.994 -264.217)" fill="#80776b"/>
        <path id="Path_123249" data-name="Path 123249" d="M1263.263,466.537h16.483a.754.754,0,0,0,.75-.821l-.5-5.587a.753.753,0,0,0-.75-.686h-15.979a3.547,3.547,0,0,0,0,7.094" transform="translate(-722.818 -263.624)" fill="#80776b"/>
        <path id="Path_123250" data-name="Path 123250" d="M1502.484,735.21h35.034l-1.462-25.921h-35.034Z" transform="translate(-861.279 -406.985)" fill="#4d4740"/>
        <path id="Path_123251" data-name="Path 123251" d="M1449.433,693.633h78.845L1526.816,682h-78.845Z" transform="translate(-830.838 -391.328)" fill="#80776b"/>
        <path id="Path_123252" data-name="Path 123252" d="M1518.565,716.28h0a17.543,17.543,0,0,0,17.543-17.543v-5.52h-35.086v5.52a17.543,17.543,0,0,0,17.543,17.543" transform="translate(-861.279 -397.763)" fill="#80776b"/>
        <path id="Path_123253" data-name="Path 123253" d="M1495.529,778.287H1538.7l-.731-8.18H1494.8Z" transform="translate(-857.707 -441.881)" fill="#80776b"/>
        <path id="Path_123254" data-name="Path 123254" d="M1546.3,714.341a5.237,5.237,0,1,0,5.237-5.237,5.236,5.236,0,0,0-5.237,5.237" transform="translate(-887.257 -406.878)" fill="#4d4740"/>
        <path id="Path_123255" data-name="Path 123255" d="M1550.282,716.627a3.538,3.538,0,1,0,3.539-3.538,3.538,3.538,0,0,0-3.539,3.538" transform="translate(-889.544 -409.165)" fill="#80776b"/>
        <rect id="Rectangle_346" data-name="Rectangle 346" width="3.487" height="85.339" transform="translate(662.592 308.376) rotate(-45)" fill="#80776b"/>
        <path id="Path_123256" data-name="Path 123256" d="M1679.979,843.1h0a3.215,3.215,0,0,0,0-4.547l-12.557-12.557a3.215,3.215,0,0,0-4.546,4.547l12.557,12.557a3.216,3.216,0,0,0,4.547,0" transform="translate(-953.609 -473.407)" fill="#4d4740"/>
        <path id="Path_123257" data-name="Path 123257" d="M1902.6,1203.636c2.835,3.775,5.73,6.526,7.258,10.508l4.211,10.97-52.965,16.267s-3.955-5.072-.993-8.924c1.781-2.324,6.771-1.138,10.445-5.051.451-.484.872-.971,1.271-1.477a17.371,17.371,0,0,0,1.5-2.232,12.159,12.159,0,0,0,.863-1.916,10.44,10.44,0,0,0,.65-3.5,9.959,9.959,0,0,0-.43-2.409c-4.18-15.494-39.177-83.887-46.3-98.659a19.81,19.81,0,0,1-1.354-2.79,20.291,20.291,0,0,1,11.673-26.218c10.464-4.017,21.161,1.8,28.13,10.617,17.276,21.861,20.37,83.947,36.04,104.816" transform="translate(-1047.406 -623.659)" fill="#f7b897"/>
        <path id="Path_123258" data-name="Path 123258" d="M1954.327,1371.3l4.211,10.97-42.908,16.471-12.149-.2s-1.863-5.072,1.1-8.924c1.781-2.324,6.771-1.137,10.445-5.051.451-.484.872-.971,1.271-1.478a17.349,17.349,0,0,0,1.5-2.232,12.087,12.087,0,0,0,.863-1.915,10.426,10.426,0,0,0,.65-3.5,9.906,9.906,0,0,0-.43-2.409c2.6-.915,7.924-2.349,9.837.24,2.579,3.478,10.35,1.359,12.25-2.129,1.621-3,1.432-8.356,6.1-10.345,2.658,3.9,5.73,6.526,7.258,10.508" transform="translate(-1091.876 -780.811)" fill="#fff"/>
        <path id="Path_123259" data-name="Path 123259" d="M1936.271,1416.312l-1.645,1.536a9.921,9.921,0,0,0-3.281-3.28c.451-.484.871-.971,1.271-1.477a10,10,0,0,1,3.655,3.221" transform="translate(-1108.196 -810.822)" fill="#f3d7c9"/>
        <path id="Path_123260" data-name="Path 123260" d="M1944.379,1407.339l-1.645,1.536c-1.093-1.815-3.382-2.987-4.876-3.6a12.172,12.172,0,0,0,.863-1.915,21.084,21.084,0,0,1,5.658,3.98" transform="translate(-1111.933 -805.238)" fill="#f3d7c9"/>
        <path id="Path_123261" data-name="Path 123261" d="M1913.411,1417.309h6.823l42.657-16.375" transform="translate(-1097.905 -803.847)" fill="none" stroke="#f3d7c9" stroke-width="2.818"/>
        <path id="Path_123262" data-name="Path 123262" d="M1822.9,866.645a24.743,24.743,0,0,1,27.194,22.021l8.851,93.349a23.789,23.789,0,1,1-47.316,4.973l-10.75-93.149a24.743,24.743,0,0,1,22.021-27.194" transform="translate(-1033.258 -497.195)" fill="#f56763"/>
        <path id="Path_123263" data-name="Path 123263" d="M1827.343,1119.357a23.788,23.788,0,0,1,44.417-17.05c.191.5.359,1,.514,1.5l28.018,81.9-38.347,14.72-33.979-79.611c-.221-.478-.433-.963-.624-1.461" transform="translate(-1047.61 -623.735)" fill="#f56763"/>
        <path id="Path_123264" data-name="Path 123264" d="M1904.537,1330.634l39.5-15.164a3.1,3.1,0,0,0,1.784-4.007l-3.74-9.742a3.1,3.1,0,0,0-4.007-1.784l-39.5,15.164a3.1,3.1,0,0,0-1.784,4.008l3.74,9.742a3.1,3.1,0,0,0,4.008,1.784" transform="translate(-1088.25 -745.776)" fill="#c75450"/>
        <path id="Path_123265" data-name="Path 123265" d="M1646.052,1221.328c-.489,4.7,3.011,8.146,3.011,12.411v11.75h-56.734s-1.874-6.153,2.271-8.687c2.5-1.532,8.186-2.43,13.019-4.767.594-.29,1.161-.594,1.716-.924a17.234,17.234,0,0,0,2.2-1.545,12.164,12.164,0,0,0,1.492-1.478,10.437,10.437,0,0,0,1.861-3.037c.2-.489.162-1.328.462-2.4,5.13-18.388,23.474-107.588,23.474-108.644a20.291,20.291,0,0,1,20.293-20.293c11.21,0,15.126,8.355,18.472,19.086,8.3,26.6-29.193,85.991-31.542,108.531" transform="translate(-913.427 -627.564)" fill="#f7b897"/>
        <path id="Path_123266" data-name="Path 123266" d="M1649.063,1405.547v11.75h-56.734s-1.875-6.152,2.271-8.687c2.5-1.532,8.186-2.429,13.018-4.766.595-.29,1.162-.594,1.717-.924a17.363,17.363,0,0,0,2.2-1.545,12.158,12.158,0,0,0,1.492-1.479,10.454,10.454,0,0,0,1.861-3.037,9.958,9.958,0,0,0,.462-2.4c2.759.079,8.238.647,9.1,3.75,1.162,4.172,9.176,4.978,12.2,2.4,2.588-2.218,4.331-7.288,9.4-7.473,1.083,4.595,3.011,8.147,3.011,12.411" transform="translate(-913.428 -799.372)" fill="#fff"/>
        <path id="Path_123267" data-name="Path 123267" d="M1632.746,1420.408l-2.086.845a9.921,9.921,0,0,0-1.888-4.238c.594-.291,1.161-.594,1.716-.925a10.014,10.014,0,0,1,2.258,4.318" transform="translate(-934.581 -812.543)" fill="#f3d7c9"/>
        <path id="Path_123268" data-name="Path 123268" d="M1643.319,1414.74l-2.086.845c-.37-2.087-2.086-4-3.261-5.11a12.112,12.112,0,0,0,1.492-1.479,21.066,21.066,0,0,1,3.855,5.744" transform="translate(-939.86 -808.473)" fill="#f3d7c9"/>
        <line id="Line_74" data-name="Line 74" x2="53" transform="translate(682.635 613.248)" fill="none" stroke="#f3d7c9" stroke-width="2.818"/>
        <path id="Path_123269" data-name="Path 123269" d="M1713.653,1104.069a21.474,21.474,0,1,0,26.031-15.642A21.474,21.474,0,0,0,1713.653,1104.069Z" transform="translate(-982.917 -624.163)" fill="none" stroke="#f7b897" stroke-width="2.328"/>
        <path id="Path_123270" data-name="Path 123270" d="M1711.53,1104.223c-2.808,11.262,4.452,22.77,16.216,25.7s23.577-3.818,26.385-15.081-4.452-22.77-16.216-25.7S1714.338,1092.96,1711.53,1104.223Z" transform="translate(-981.721 -624.548)" fill="none" stroke="#f7b897" stroke-width="2.329"/>
        <path id="Path_123271" data-name="Path 123271" d="M1754.466,867.394a24.744,24.744,0,0,1,18.022,29.994l-23.61,90.747a23.788,23.788,0,1,1-46.164-11.51l21.757-91.209a24.743,24.743,0,0,1,29.994-18.022" transform="translate(-976.6 -497.279)" fill="#f56763"/>
        <path id="Path_123272" data-name="Path 123272" d="M1672.184,1099.039a23.789,23.789,0,0,1,45.249,14.7c-.166.508-.351,1-.547,1.492l-29.766,81.281-39.064-12.693,23.693-83.253c.129-.511.27-1.02.435-1.528" transform="translate(-945.646 -621.185)" fill="#f56763"/>
        <path id="Path_123273" data-name="Path 123273" d="M1633.538,1326l40.245,13.076a3.1,3.1,0,0,0,3.908-1.991l3.225-9.925a3.1,3.1,0,0,0-1.991-3.909l-40.244-13.076a3.1,3.1,0,0,0-3.908,1.991l-3.225,9.925a3.1,3.1,0,0,0,1.991,3.908" transform="translate(-936.086 -751.683)" fill="#c75450"/>
        <path id="Path_123274" data-name="Path 123274" d="M1781.852,984.867l-10.113-91.974-16.538-3.076-3.239,13.821s6.133-2.708,12.258,7.223,17.633,74.007,17.633,74.007" transform="translate(-1005.266 -510.57)" fill="#c75450"/>
        <path id="Path_123275" data-name="Path 123275" d="M1771.065,597.469a94.963,94.963,0,0,0-12.584,35.455c-2.307,15.533-4.824,90.2-4.824,90.2a85.658,85.658,0,0,0,41.738,8.363c23.49-1.441,28.808-5.636,28.808-5.636s7.686-70.471-3.43-98.785c-4.523-11.52-5.344-23.751-10.659-28.674-5.817-5.388-14.718-8.344-14.718-8.344Z" transform="translate(-1006.239 -338.563)" fill="#bddef2"/>
        <path id="Path_123276" data-name="Path 123276" d="M1804.037,733.585l.005.014c.285,3,11.8,4.357,25.712,3.036s24.958-4.828,24.674-7.825c0-.023-.009-.06-.01-.083-.5-2.939-11.926-4.264-25.7-2.953-13.9,1.315-24.931,4.816-24.68,7.811" transform="translate(-1035.145 -416.153)" fill="#92c3e0"/>
        <path id="Path_123277" data-name="Path 123277" d="M1825.275,598.8h0a18.748,18.748,0,0,0-16.02,21.028l7.844,58.029a18.693,18.693,0,1,0,37.048-5.008l-7.844-58.028a18.747,18.747,0,0,0-21.028-16.02" transform="translate(-1038.044 -343.491)" fill="#f7b897"/>
        <path id="Path_123278" data-name="Path 123278" d="M1818.1,554.21s.524,9.985.734,11.978c0,0-22.006,10.7-24.329,7.423a77.171,77.171,0,0,0,3.1-7.79c.828-3.418,1.366-14,1.366-14l17.559-3.356Z" transform="translate(-1029.675 -314.704)" fill="#f7b897"/>
        <path id="Path_123279" data-name="Path 123279" d="M1803.247,564.586s9.486-4.51,10.255-10.872l-9.518,1.118Z" transform="translate(-1034.694 -317.716)" fill="#de8759"/>
        <path id="Path_123280" data-name="Path 123280" d="M1789.705,468.717s-1.512,1.581-1.306,5.294-.084,6.441-1.341,8.062c-2.32,2.991-4.435,4.658-4.366,6.1s4.262,3.489,4.262,3.489v2.779s3.713,1.14,6.24-1.181a6.778,6.778,0,0,1-5.346,3.862s-1.1,6.589.482,7.826,14.438-.343,19.664-2.681,13.132-30.871,3.437-36.165-17.945-2.063-21.726,2.613" transform="translate(-1022.899 -265.877)" fill="#f7b897"/>
        <path id="Path_123281" data-name="Path 123281" d="M1835.613,526.1s-3.636-2.517-6.432-14.262l-2.1-3.243h-1.958s1.888-9.9-.28-14.095l18.177,7.271s-3.915,8.389-4.894,12.654-2.517,11.675-2.517,11.675" transform="translate(-1047.088 -283.738)" fill="#57504e"/>
        <path id="Path_123282" data-name="Path 123282" d="M1799.175,465.178s-.559-4.055-3.023-4.055-12.112.315-16.045-12.426c0,0,4.824,3.461,9.123,3.775a12.906,12.906,0,0,1-3.932-9.071s3.88,5.505,10.015,5.4,15.677.157,17.67,7.131a5.663,5.663,0,0,1,7.656,3.146c2.569,5.506-1,10.906-1.992,12.27s.472,4.876.472,4.876a5.949,5.949,0,0,1-4.221-4.757s-2.49,2.758-7.1,1.451c0,0,4.677-.887,4.121-2.644l-6.761-2.439a5.9,5.9,0,0,0,0,3.985s-2.969-3.044-3.074-5.481l-1.862-.745s-.708,2.346-2.124,2.817c0,0,1.456-1.757,1.084-3.233" transform="translate(-1021.416 -254.419)" fill="#332f2e"/>
        <path id="Path_123283" data-name="Path 123283" d="M1829.593,525.091c1.426,1.515,4.132,1.285,6.044-.514s2.306-4.487.88-6-4.131-1.285-6.044.515-2.306,4.487-.88,6" transform="translate(-1049.32 -296.979)" fill="#f7b897"/>
        <line id="Line_75" data-name="Line 75" y1="2.858" x2="4.093" transform="translate(781.255 223.212)" fill="none" stroke="#de8759" stroke-linecap="round" stroke-linejoin="round" stroke-width="1.486"/>
        <path id="Path_123284" data-name="Path 123284" d="M1648.8,790.687s-5.1-.922-5.349-2.7,2.793-2.1,2.793-2.1c-1.054-1.1-.4-2.656,1.725-2.778s9.08-1.3,11.67-1.763,8.27-5.03,7.419-6-7.475,3.608-9.365,3.223-.73-2.317.106-2.965,8.127-5.9,11.878-8.1c3.3-1.929,8.224-1.77,9.587-1.573,7.17-2.489,54.566-20.841,54.567-20.839,8-3.286,18.228.7,22.071,8.576a16.522,16.522,0,0,1-13.841,23.736c-.01,0-.018.006-.027.007-6.909.894-50.332,5.93-58.251,7a56.191,56.191,0,0,1-6.5,4.838c-4.52,2.839-12.616,5.624-15.479,5.551s-10.381-.031-12.619-1.1c-2.08-.991-.382-3.02-.382-3.02" transform="translate(-942.996 -426.867)" fill="#f7b897"/>
        <path id="Path_123285" data-name="Path 123285" d="M1651.011,839.649s10.65,1.046,13.4.313a12.553,12.553,0,0,0,4.587-2.344" transform="translate(-947.341 -480.618)" fill="none" stroke="#de8759" stroke-linecap="round" stroke-linejoin="round" stroke-width="1.217"/>
        <path id="Path_123286" data-name="Path 123286" d="M1656.023,851.507s8.1.654,10.5.805c2.57.161,5.185-1.025,7.342-2.377" transform="translate(-950.218 -487.687)" fill="none" stroke="#de8759" stroke-linecap="round" stroke-linejoin="round" stroke-width="1.217"/>
        <path id="Path_123287" data-name="Path 123287" d="M1798.37,630.912c-.119,10.566,2.34,29.138,2.415,29.718-.251-2.995,10.78-6.5,24.68-7.811,13.775-1.311,25.2.014,25.7,2.953-.22-1.7-3.846-29.072-6.051-37.879-2.1-8.4-10.313-21.519-26.129-19.577s-20.5,22.667-20.616,32.595" transform="translate(-1031.893 -343.198)" fill="#bddef2"/>
        <line id="Line_76" data-name="Line 76" x1="1.819" y1="16.971" transform="translate(767.073 300.461)" fill="none" stroke="#332f2e" stroke-width="1.46"/>
        <path id="Path_123288" data-name="Path 123288" d="M1803.917,496.907c-.147.252-1.156-.064-2.254-.705s-1.868-1.366-1.721-1.618,1.156.064,2.254.705,1.869,1.366,1.721,1.618" transform="translate(-1032.787 -283.738)" fill="#362e29"/>
        <path id="Path_123289" data-name="Path 123289" d="M1799.125,505.982c0,.889.36,1.609.8,1.609s.8-.72.8-1.609-.36-1.609-.8-1.609-.8.72-.8,1.609" transform="translate(-1032.329 -289.405)" fill="#362e29"/>
        <rect id="Rectangle_347" data-name="Rectangle 347" width="7.048" height="285.836" transform="translate(655.515 332.316)" fill="#80776b"/>
        <path id="Path_123290" data-name="Path 123290" d="M1391.009,1065.539h7.048L1443.7,779.7h-7.049Z" transform="translate(-798.154 -447.388)" fill="#80776b"/>
        <path id="Path_123291" data-name="Path 123291" d="M1630.653,1065.539H1623.6L1577.966,779.7h7.048Z" transform="translate(-905.429 -447.388)" fill="#80776b"/>
        <path id="Path_123292" data-name="Path 123292" d="M1534.862,1118.4h9.011a.641.641,0,0,0,.642-.642v-15.735a.642.642,0,0,0-.642-.642h-9.011a.642.642,0,0,0-.642.642v15.735a.641.641,0,0,0,.642.642" transform="translate(-880.328 -631.964)" fill="#4d4740"/>
        <path id="Path_123293" data-name="Path 123293" d="M1438.142,1118.4h8.317a.981.981,0,0,0,.974-.862l1.845-15.055a.982.982,0,0,0-.974-1.1h-8.317a.982.982,0,0,0-.974.862l-1.845,15.056a.982.982,0,0,0,.974,1.1" transform="translate(-824.635 -631.964)" fill="#4d4740"/>
        <path id="Path_123294" data-name="Path 123294" d="M1638.127,1118.4h-8.317a.982.982,0,0,1-.974-.862l-1.845-15.055a.982.982,0,0,1,.974-1.1h8.317a.982.982,0,0,1,.974.862l1.846,15.056a.982.982,0,0,1-.974,1.1" transform="translate(-933.555 -631.964)" fill="#4d4740"/>
        <path id="Path_123295" data-name="Path 123295" d="M143.572,1022.08H121.464A133.387,133.387,0,0,1,90,985.011c0-.012-.011-.012-.011-.023-8.655-15.415-14.678-34.778-10.651-56.432C89.352,874.721,26.114,859.5,38.954,794.049,51.465,730.3,19.9,705.482,18.23,704.223a408.971,408.971,0,0,1,33.315,25.306c27.972,23.481,63.567,59.642,64.871,92.447,2.485,62.07,11.105,68.9,30.366,106.58,24.66,48.242-3.21,93.524-3.21,93.524" transform="translate(-10.46 -404.077)" fill="#867d2d"/>
        <path id="Path_123296" data-name="Path 123296" d="M162.513,1049.2S159.454,871.267,68.3,751.482" transform="translate(-39.191 -431.194)" fill="none" stroke="#585c1f" stroke-width="2.661"/>
        <path id="Path_123297" data-name="Path 123297" d="M79.335,928.555C89.351,874.721,26.114,859.5,38.954,794.048,51.465,730.3,19.9,705.481,18.23,704.222a409.129,409.129,0,0,1,33.315,25.307,133.059,133.059,0,0,1,6.227,40.88c.261,44.068-5.74,55.332,6.194,82.011S86.607,900.583,82.4,923.632s.182,46.144,7.589,61.355c-8.655-15.415-14.678-34.778-10.651-56.432" transform="translate(-10.46 -404.077)" fill="#c6ba4c"/>
        <path id="Path_123298" data-name="Path 123298" d="M131.624,657.058s-10.041-63.3-33.9-53.514,33.9,53.514,33.9,53.514" transform="translate(-52.759 -345.718)" fill="#867d2d"/>
        <path id="Path_123299" data-name="Path 123299" d="M213.277,998.884s7.077-233.521-70.14-335.084" transform="translate(-82.131 -380.883)" fill="none" stroke="#585c1f" stroke-width="2.661"/>
        <path id="Path_123300" data-name="Path 123300" d="M157.777,1233.506S146.506,1132.726,68.3,1072.8" transform="translate(-39.191 -615.564)" fill="none" stroke="#585c1f" stroke-width="2.661"/>
        <path id="Path_123301" data-name="Path 123301" d="M65.141,1060.511a9.126,9.126,0,1,1-9.126-9.126,9.127,9.127,0,0,1,9.126,9.126" transform="translate(-26.905 -603.277)" fill="#f4b647"/>
        <path id="Path_123302" data-name="Path 123302" d="M140.323,1192.168s-17.833-20.736-42-21.883" transform="translate(-56.418 -671.502)" fill="none" stroke="#585c1f" stroke-width="2.661"/>
        <path id="Path_123303" data-name="Path 123303" d="M87.5,1161.689a6.385,6.385,0,1,1-6.385-6.385,6.385,6.385,0,0,1,6.385,6.385" transform="translate(-42.881 -662.905)" fill="#f4b647"/>
        <path id="Path_123304" data-name="Path 123304" d="M146.844,1109.417s-10.443-21.2-2.919-36.619" transform="translate(-81.02 -615.564)" fill="none" stroke="#585c1f" stroke-width="2.661"/>
        <path id="Path_123305" data-name="Path 123305" d="M148.5,1055.445a6.269,6.269,0,1,1-6.269-6.269,6.269,6.269,0,0,1,6.269,6.269" transform="translate(-78.017 -602.01)" fill="#f4b647"/>
        <path id="Path_123306" data-name="Path 123306" d="M187.292,1351.174s-10.094-55.365-60.259-73.412c0,0,11.317,42.823,55.058,73.412Z" transform="translate(-72.891 -733.171)" fill="#585c1f"/>
        <path id="Path_123307" data-name="Path 123307" d="M174.475,1400.591s-6.8-35.176-69.779-36.706c0,0,26.038,28.906,64.579,36.706Z" transform="translate(-60.074 -782.588)" fill="#c6ba4c"/>
        <path id="Path_123308" data-name="Path 123308" d="M572.766,1216.245c-1.3,4.557-3.022,8.177-3.022,12.458V1240.5h56.946s1.882-6.176-2.279-8.72c-2.5-1.537-8.216-2.438-13.067-4.784-.6-.292-1.166-.6-1.723-.928a17.444,17.444,0,0,1-2.213-1.55,12.149,12.149,0,0,1-1.5-1.484,10.471,10.471,0,0,1-1.869-3.048,9.963,9.963,0,0,1-.464-2.412c-1.657-16.022,6.538-92.7,7.9-109.108a19.914,19.914,0,0,0,.265-3.1,20.367,20.367,0,0,0-20.369-20.369c-11.251,0-19.183,9.3-22.542,20.068-8.326,26.7,11.109,85.992,3.931,111.184" transform="translate(-325.181 -622.561)" fill="#f7b897"/>
        <path id="Path_123309" data-name="Path 123309" d="M573.816,1405.405v11.8h56.946s1.882-6.176-2.279-8.72c-2.5-1.537-8.217-2.438-13.068-4.784-.6-.292-1.166-.6-1.723-.928a17.322,17.322,0,0,1-2.213-1.55,12.182,12.182,0,0,1-1.5-1.484,10.479,10.479,0,0,1-1.869-3.048,9.973,9.973,0,0,1-.463-2.412c-2.77.079-8.27.649-9.131,3.764-1.166,4.188-9.21,5-12.245,2.412-2.6-2.226-4.347-7.315-9.435-7.5-1.087,4.612-3.022,8.177-3.022,12.458" transform="translate(-329.253 -799.264)" fill="#ffece3"/>
        <path id="Path_123310" data-name="Path 123310" d="M662.061,1420.322l2.094.848a9.951,9.951,0,0,1,1.895-4.254c-.6-.292-1.166-.6-1.723-.928a10.043,10.043,0,0,0-2.266,4.333" transform="translate(-379.887 -812.485)" fill="#f3d7c9"/>
        <path id="Path_123311" data-name="Path 123311" d="M649.592,1414.634l2.094.848c.371-2.094,2.094-4.016,3.273-5.129a12.188,12.188,0,0,1-1.5-1.484,21.158,21.158,0,0,0-3.87,5.765" transform="translate(-372.733 -808.4)" fill="#f3d7c9"/>
        <line id="Line_77" data-name="Line 77" x1="53.199" transform="translate(244.563 613.241)" fill="none" stroke="#f3d7c9" stroke-width="2.829"/>
        <path id="Path_123312" data-name="Path 123312" d="M612.134,1114.778a21.555,21.555,0,1,1-21.555-21.554A21.554,21.554,0,0,1,612.134,1114.778Z" transform="translate(-326.504 -627.284)" fill="none" stroke="#f7b897" stroke-width="2.337"/>
        <path id="Path_123313" data-name="Path 123313" d="M613.094,1115.4c0,11.65-9.865,21.095-22.035,21.095s-22.034-9.445-22.034-21.095,9.865-21.1,22.034-21.1S613.094,1103.747,613.094,1115.4Z" transform="translate(-326.504 -627.903)" fill="none" stroke="#f7b897" stroke-width="2.338"/>
        <path id="Path_123314" data-name="Path 123314" d="M586.163,864.706a24.836,24.836,0,0,0-24.836,24.836l.958,94.114a23.878,23.878,0,1,0,47.755,0L611,889.542a24.836,24.836,0,0,0-24.836-24.836" transform="translate(-322.087 -496.162)" fill="#5eadf2"/>
        <path id="Path_123315" data-name="Path 123315" d="M611.331,1111.651a23.877,23.877,0,1,0-47.755,0c0,.536.024,1.066.059,1.594l3.2,86.824h41.229l3.2-86.825c.035-.527.059-1.057.059-1.594" transform="translate(-323.377 -624.157)" fill="#5eadf2"/>
        <path id="Path_123316" data-name="Path 123316" d="M609.192,1348.361H566.718a3.114,3.114,0,0,1-3.113-3.113v-10.474a3.113,3.113,0,0,1,3.113-3.113h42.474a3.113,3.113,0,0,1,3.113,3.113v10.474a3.114,3.114,0,0,1-3.113,3.113" transform="translate(-323.394 -764.098)" fill="#3782a6"/>
        <path id="Path_123317" data-name="Path 123317" d="M377.314,1216.245c-.162,4.736,3.022,8.177,3.022,12.458V1240.5H323.39s-1.882-6.176,2.279-8.72c2.5-1.537,8.216-2.438,13.067-4.784.6-.292,1.166-.6,1.723-.928a17.442,17.442,0,0,0,2.213-1.55,12.147,12.147,0,0,0,1.5-1.484,10.469,10.469,0,0,0,1.869-3.048,9.966,9.966,0,0,0,.464-2.412c1.657-16.022,19.937-111.149,19.937-112.209a20.367,20.367,0,0,1,20.369-20.369c11.251,0,15.182,8.387,18.54,19.157,8.326,26.7-27.225,88.489-28.034,112.1" transform="translate(-185.316 -622.561)" fill="#f7b897"/>
        <path id="Path_123318" data-name="Path 123318" d="M380.336,1405.405v11.8H323.39s-1.882-6.176,2.279-8.72c2.5-1.537,8.217-2.438,13.067-4.784.6-.292,1.166-.6,1.723-.928a17.355,17.355,0,0,0,2.213-1.55,12.189,12.189,0,0,0,1.5-1.484,10.481,10.481,0,0,0,1.869-3.048,9.963,9.963,0,0,0,.463-2.412c2.77.079,8.27.649,9.132,3.764,1.166,4.188,9.21,5,12.245,2.412,2.6-2.226,4.347-7.315,9.435-7.5,1.087,4.612,3.022,8.177,3.022,12.458" transform="translate(-185.316 -799.264)" fill="#ffece3"/>
        <path id="Path_123319" data-name="Path 123319" d="M363.958,1420.322l-2.094.848a9.958,9.958,0,0,0-1.895-4.254c.6-.292,1.166-.6,1.723-.928a10.043,10.043,0,0,1,2.266,4.333" transform="translate(-206.548 -812.485)" fill="#f3d7c9"/>
        <path id="Path_123320" data-name="Path 123320" d="M374.57,1414.634l-2.094.848c-.371-2.094-2.094-4.016-3.273-5.129a12.18,12.18,0,0,0,1.5-1.484,21.16,21.16,0,0,1,3.87,5.765" transform="translate(-211.847 -808.4)" fill="#f3d7c9"/>
        <line id="Line_78" data-name="Line 78" x2="53.199" transform="translate(141.821 613.241)" fill="none" stroke="#f3d7c9" stroke-width="2.829"/>
        <path id="Path_123321" data-name="Path 123321" d="M426.3,1102.8a21.555,21.555,0,1,0,26.129-15.7A21.555,21.555,0,0,0,426.3,1102.8Z" transform="translate(-244.239 -623.4)" fill="none" stroke="#f7b897" stroke-width="2.337"/>
        <path id="Path_123322" data-name="Path 123322" d="M424.17,1102.953c-2.818,11.3,4.469,22.855,16.277,25.8s23.665-3.833,26.483-15.138-4.469-22.855-16.276-25.8S426.988,1091.649,424.17,1102.953Z" transform="translate(-243.039 -623.786)" fill="none" stroke="#f7b897" stroke-width="2.338"/>
        <path id="Path_123323" data-name="Path 123323" d="M472.865,865.237a24.836,24.836,0,0,1,18.09,30.106l-23.7,91.087a23.878,23.878,0,0,1-46.337-11.553l21.838-91.55a24.836,24.836,0,0,1,30.107-18.09" transform="translate(-241.111 -496.04)" fill="#5eadf2"/>
        <path id="Path_123324" data-name="Path 123324" d="M397.347,1099.109a23.878,23.878,0,1,1,46.337,11.553c-.129.52-.281,1.029-.442,1.532l-24.114,83.47-40-9.974,17.9-85.021c.094-.52.2-1.04.328-1.561" transform="translate(-217.539 -620.271)" fill="#5eadf2"/>
        <path id="Path_123325" data-name="Path 123325" d="M366.218,1332.949l41.212,10.275a3.114,3.114,0,0,0,3.775-2.268l2.534-10.163a3.113,3.113,0,0,0-2.267-3.774l-41.212-10.275a3.113,3.113,0,0,0-3.774,2.268l-2.534,10.163a3.113,3.113,0,0,0,2.268,3.774" transform="translate(-208.779 -755.486)" fill="#3782a6"/>
        <path id="Path_123326" data-name="Path 123326" d="M559.152,882.165l1.013-30.315H478.695l-7.725,28.065Z" transform="translate(-270.24 -488.785)" fill="#5eadf2"/>
        <path id="Path_123327" data-name="Path 123327" d="M562.723,580.23l-39.181-8.157H500.45l-37.289,16.614.3,2.3c1.551,12.181,8.588,68.971,6.335,79.484a161.631,161.631,0,0,0-3.1,18.947S477.309,702.052,514.6,703.1s43.609-3.789,43.609-3.789.632-9.474,1.053-17.474-2.105-16.631-2.315-24.631,5.775-76.982,5.775-76.982" transform="translate(-265.759 -328.25)" fill="#f25e5e"/>
        <path id="Path_123328" data-name="Path 123328" d="M562.4,956.276l5.285-20.313,9.576-7.973,5.9-25.263" transform="translate(-322.702 -517.978)" fill="none" stroke="#efecdb" stroke-width="1.465"/>
        <path id="Path_123329" data-name="Path 123329" d="M550.651,544.722s11.13,6.6,23.093.26l-.265-4.778-.4-3.978-.621-6.243-.322-3.307-5.506-.627-.012,0L552.1,524.407Z" transform="translate(-315.961 -300.9)" fill="#f7b897"/>
        <path id="Path_123330" data-name="Path 123330" d="M572.878,540.959a18.338,18.338,0,0,0,12.9,5.416l-.4-3.978-.622-6.242-3.141-1-.012,0c-6.21,1.043-11.573,2.825-8.725,5.8" transform="translate(-328.264 -307.07)" fill="#c87447"/>
        <path id="Path_123331" data-name="Path 123331" d="M579.267,490.225c.012,7.289-2.04,11.782-15.9,8.779-7.124-1.544-11-6.4-10.584-13.68l.869-15.112a11.192,11.192,0,0,1,11.819-10.534c6.163.354,12.016,5.772,11.661,11.947a33.89,33.89,0,0,0,.894,8.9,62.305,62.305,0,0,1,1.243,9.7" transform="translate(-317.165 -263.748)" fill="#f7b897"/>
        <path id="Path_123332" data-name="Path 123332" d="M543.733,454.276s2.2,3.474,1.466,6.526-7.566,4.975-7.309,11.487-2.716,14.826-2.716,14.826-5.448-1.787-6.4-4.525a12.8,12.8,0,0,1-.632-5.227,7.964,7.964,0,0,1-5.474-7.825,9.3,9.3,0,0,1,4.737-8.21,8.637,8.637,0,0,1-2.947-7.579c.526-4.947,7.789-8.631,12.736-8.105,0,0,5.494-7.579,13.378-7.474s6.845,5.263,6.845,5.263,6.619,0,8.724,4.737a6.8,6.8,0,0,1-1.684,7.895s1.369,3.566-.632,5.993-3.865,1.08-3.865,1.08.181-4.652-.768-5.073a9.28,9.28,0,0,1-4.693-5.053s-5.373,3.344-10.771,1.263" transform="translate(-299.904 -251.418)" fill="#362e29"/>
        <path id="Path_123333" data-name="Path 123333" d="M550.18,516.24c-1.431,1.521-4.147,1.29-6.066-.517s-2.315-4.5-.884-6.024,4.147-1.29,6.067.516,2.315,4.5.883,6.024" transform="translate(-311.209 -291.884)" fill="#f7b897"/>
        <line id="Line_79" data-name="Line 79" x1="4.109" y1="2.869" transform="translate(233.878 219.437)" fill="none" stroke="#de8759" stroke-linecap="round" stroke-linejoin="round" stroke-width="1.492"/>
        <path id="Path_123334" data-name="Path 123334" d="M576.6,495.295c.128.22,1.009-.056,1.966-.616s1.63-1.192,1.5-1.411-1.009.056-1.967.615-1.63,1.191-1.5,1.411" transform="translate(-330.842 -282.989)" fill="#362e29"/>
        <path id="Path_123335" data-name="Path 123335" d="M600.2,491.7c-.141.212.439.847,1.3,1.419s1.667.865,1.808.653-.439-.847-1.3-1.419-1.666-.865-1.807-.653" transform="translate(-344.381 -282.091)" fill="#362e29"/>
        <path id="Path_123336" data-name="Path 123336" d="M590.262,528.017s-3.4.061-5.277-1.684c0,0,.069,2.866,1.986,3.2s3.291-1.514,3.291-1.514" transform="translate(-335.661 -302.006)" fill="#fff"/>
        <path id="Path_123337" data-name="Path 123337" d="M593.918,504.2s1.119,4.465,3.306,6.061a3.79,3.79,0,0,1-3.834,1.649" transform="translate(-340.484 -289.306)" fill="none" stroke="#de8759" stroke-linecap="round" stroke-linejoin="round" stroke-width="1.492"/>
        <path id="Path_123338" data-name="Path 123338" d="M464.123,616.751a18.673,18.673,0,0,1,3.952,10.929l.789,26,.681,22.784.124,4.072.135,4.393.047,1.513c.008.234,0,.478.01.712a18.757,18.757,0,0,1-33.4,11.572l-.043-.055a18.7,18.7,0,0,1-4.079-11.092l-1.776-58.759a18.754,18.754,0,0,1,33.561-12.067" transform="translate(-247.05 -349.723)" fill="#f25e5e"/>
        <path id="Path_123339" data-name="Path 123339" d="M712.667,664.666h0a18.818,18.818,0,0,1-26.522-.8l-40.283-42.8a18.817,18.817,0,0,1,.8-26.522h0a18.818,18.818,0,0,1,26.522.8l40.283,42.8a18.818,18.818,0,0,1-.8,26.522" transform="translate(-367.679 -338.229)" fill="#f25e5e"/>
        <path id="Path_123340" data-name="Path 123340" d="M544.367,571.179a2.54,2.54,0,0,1,2.786-2.741s11.954,5.889,22.882,0a2.4,2.4,0,0,1,2.405,2.576s-4.594,3.8-13.851,3.64-14.222-3.474-14.222-3.474" transform="translate(-312.353 -326.165)" fill="#f29494"/>
        <path id="Path_123341" data-name="Path 123341" d="M628.62,703.1l-5.631,2.476A30.748,30.748,0,0,1,582.466,689.8l61.927-27.224A30.748,30.748,0,0,1,628.62,703.1" transform="translate(-334.216 -380.181)" fill="#62824d"/>
        <path id="Path_123342" data-name="Path 123342" d="M642.956,649.89c4.511,10.262-5.695,24.675-22.8,32.193s-34.62,5.293-39.132-4.969,5.694-24.675,22.8-32.193,34.621-5.293,39.132,4.969" transform="translate(-332.779 -367.495)" fill="#83ad67"/>
        <path id="Path_123343" data-name="Path 123343" d="M643.46,651.933a11.736,11.736,0,0,1,.969,4.77c.01,9-9.253,19.747-23.158,25.86-9.372,4.121-18.867,5.262-26.079,3.725-5.487-1.184-9.662-3.92-11.492-8.083-4.238-9.641,5.7-23.382,22.189-30.629s33.332-5.283,37.57,4.358" transform="translate(-334.364 -369.064)" fill="#62824d"/>
        <path id="Path_123344" data-name="Path 123344" d="M620.675,755.471s-9.658-2.013-13.158-3.212-3.994,1.481-1.455,2.4,6.024,2.261,5.83,2.868-7.728-3.115-10.837-6.394-2.538,4.113-.724,6.7c5.59,7.97,19.75,17.491,26.167,13.541s-5.823-15.9-5.823-15.9" transform="translate(-343.614 -430.52)" fill="#f7b897"/>
        <path id="Path_123345" data-name="Path 123345" d="M655.682,668.23c0,7.072-5.719,15.2-14.911,21.341a54.562,54.562,0,0,1-5.677,3.306c-.5.251-1,.488-1.521.725-.349.167-.7.335-1.06.488a2.165,2.165,0,0,1-.265.112c-.419.181-.837.363-1.255.516-.837.349-1.674.669-2.5.962-.516.181-1.032.349-1.534.5-1.256.4-2.511.753-3.738,1.032-.6.153-1.186.279-1.785.39q-1.591.314-3.139.5a35.39,35.39,0,0,1-11.856-.293c-2.79-2.5-4.1-5.551-4.115-7.351-.042-4.31,4.017-5.775,2.664-9.876-1.088-3.292,1.381-6.263,4.394-7.63a7.92,7.92,0,0,1,4.1-.781,4.526,4.526,0,0,1,1.45.362c2.859,1.27,6.221,1.172,10.7-2.636s9.764-8.983,14.311-5.426,9.122,2.929,13.335,3.222a9.173,9.173,0,0,1,2.4.53" transform="translate(-345.613 -380.587)" fill="#fff"/>
        <path id="Path_123346" data-name="Path 123346" d="M573.328,663.26l11.093-9.37-13.388-17.354s.358-12.943-2.79-12.388-3.58,12.247-5.431,16.047-6.36,8.041-6.36,8.041Z" transform="translate(-319.289 -358.121)" fill="#f7b897"/>
        <path id="Path_123347" data-name="Path 123347" d="M490.3,677.837l17.821,16.83c-2.378,3.052-13.025,15.83-24.844,29.146a206.459,206.459,0,0,1-14.755,15.337,16.469,16.469,0,0,1-11.439,5.561l-.069.007a18.319,18.319,0,0,1-2.534-.08A17.068,17.068,0,0,1,439.559,726.1c.485-4.6,2-9.431,5.374-12.086.717-.75,3.16-2.857,6.582-5.691,1.289-1.069,2.706-2.239,4.22-3.47,2.135-1.747,4.462-3.634,6.872-5.565,11.263-9.054,24.275-19.243,27.693-21.453" transform="translate(-252.167 -388.937)" fill="#f25e5e"/>
        <path id="Path_123348" data-name="Path 123348" d="M639.873,720.229c3.473-1.68,18.676-8.408,35.192-15.109,7.822-3.166,13.475-5.138,17.211-6.336.133-.041.262-.066.377-.11.928-.288,1.739-.531,2.419-.733a16.488,16.488,0,0,1,5.469-1.22.16.16,0,0,1,.088,0,16.189,16.189,0,0,1,7.612,1.511c.211.082.4.177.609.276.428.218.847.47,1.251.718a17.035,17.035,0,0,1,7.079,18.786,15.291,15.291,0,0,1-1.921,4.456c-2.471,3.911-5.975,7.557-10.171,8.443-1.418.514-7.232,1.939-14.675,3.638-15.239,3.477-37.238,8.118-42.029,8.66,0,0-3.68-3.258-6.632-11.23a27.234,27.234,0,0,1-1.879-11.75" transform="translate(-367.116 -399.764)" fill="#f25e5e"/>
        <path id="Path_123349" data-name="Path 123349" d="M583.605,503.212c0,.775-.314,1.4-.7,1.4s-.7-.628-.7-1.4.314-1.4.7-1.4.7.628.7,1.4" transform="translate(-334.065 -287.933)" fill="#362e29"/>
        <path id="Path_123350" data-name="Path 123350" d="M602.943,503.212c0,.775-.314,1.4-.7,1.4s-.7-.628-.7-1.4.314-1.4.7-1.4.7.628.7,1.4" transform="translate(-345.161 -287.933)" fill="#362e29"/>
        <path id="Path_123351" data-name="Path 123351" d="M606.733,664.791h0a1.839,1.839,0,0,1-2.58-.263L585.1,641.143a1.834,1.834,0,0,1,2.843-2.316L607,662.211a1.839,1.839,0,0,1-.263,2.58" transform="translate(-335.493 -366.167)" fill="#73655a"/>
        <path id="Path_123352" data-name="Path 123352" d="M639.412,714.747c-.6.153-1.186.279-1.785.391-5.175-4.436-6.584-14.13-6.946-18.454-.112-1.172-.139-1.952-.139-2.12v-.056c.014-.042.014-.084.028-.125s0-.042.014-.056a.877.877,0,0,1,.07-.167.049.049,0,0,0,.014-.028h.014v-.014a.785.785,0,0,1,.1-.112c.014,0,.028-.014.042-.014s.014-.014.028-.028a.284.284,0,0,1,.084-.056l.014-.014a.62.62,0,0,1,.07-.014.565.565,0,0,1,.209-.042h.028a.575.575,0,0,1,.154.014.013.013,0,0,1,.014.014h.028c.014.014.028.014.056.028h.014a.341.341,0,0,1,.1.056h.014c.014.014.028.014.028.028.028.014.042.042.07.056l.014.014a.991.991,0,0,1,.139.2v.014c0,.028.014.042.028.07a.81.81,0,0,1,.028.2c0,.028.014.363.056.934a4.233,4.233,0,0,0,.042.558c.014.32.056.7.084,1.116.042.307.07.627.111.977.586,4.882,2.288,13.418,7.184,16.64" transform="translate(-361.801 -398.118)" fill="#73655a"/>
        <path id="Path_123353" data-name="Path 123353" d="M644.685,713.212c-.516.181-1.032.349-1.534.5-4.491-3.975-8.69-11.326-10.922-15.608-.181-.349-.349-.684-.5-.977-.586-1.186-.976-1.995-1.088-2.246a.073.073,0,0,1-.028-.056.2.2,0,0,1-.028-.084.424.424,0,0,1-.042-.181v-.056c.014-.042.014-.084.028-.126s0-.042.014-.056a.852.852,0,0,1,.069-.167.049.049,0,0,0,.014-.028h.014v-.014a.785.785,0,0,1,.1-.112c.028-.014.042-.028.07-.042a.285.285,0,0,1,.083-.055l.014-.014a.586.586,0,0,1,.07-.014.565.565,0,0,1,.209-.042h.028a.7.7,0,0,1,.168.028h.028c.014.014.028.014.056.028a.129.129,0,0,1,.07.042.05.05,0,0,1,.041.014h.014v.014c.014,0,.014,0,.028.014s.042.042.07.056l.014.014a.972.972,0,0,1,.139.2v.014c0,.028.014.042.028.069.084.168.293.614.614,1.27.167.321.349.683.558,1.1.042.084.1.182.14.279,2.218,4.31,6.862,12.581,11.465,16.236" transform="translate(-361.801 -398.118)" fill="#73655a"/>
        <path id="Path_123354" data-name="Path 123354" d="M648.436,711.734c-.418.181-.837.363-1.255.516-2.288-5.4-10.015-12.094-13.963-15.273a1.421,1.421,0,0,0-.237-.2c-.349-.293-.67-.544-.949-.768-.558-.432-.948-.725-1.116-.865a.73.73,0,0,1-.279-.265.074.074,0,0,1-.028-.056.2.2,0,0,1-.028-.084.431.431,0,0,1-.042-.181v-.056c.014-.042.014-.084.028-.126a.084.084,0,0,1,.014-.056.881.881,0,0,1,.07-.167h.014v-.028h.014v-.014a.766.766,0,0,1,.1-.112c.028-.014.042-.028.07-.042a.3.3,0,0,1,.084-.055l.014-.014a.6.6,0,0,1,.07-.014.565.565,0,0,1,.209-.042h.028a.57.57,0,0,1,.153.014.014.014,0,0,1,.014.014h.028a.086.086,0,0,1,.056.014v.014h.014c.014.014.042.014.056.042a.051.051,0,0,1,.042.014.014.014,0,0,1,.014.014c.014,0,.014,0,.028.014s.042.042.07.056l.014.014c.251.181.948.7,1.939,1.492.265.209.544.432.851.7,4.129,3.348,11.494,9.876,13.907,15.5" transform="translate(-361.801 -398.118)" fill="#73655a"/>
        <path id="Path_123355" data-name="Path 123355" d="M651.282,710.409c-.5.251-1,.488-1.521.725a7.674,7.674,0,0,0-.363-4.491c-2.162-5.454-10.2-8.857-14.869-10.406-.335-.112-.642-.223-.935-.307-.39-.125-.753-.237-1.074-.335-.2-.042-.376-.1-.53-.14-.558-.153-.893-.237-.906-.237a.86.86,0,0,1-.167-.07.728.728,0,0,1-.279-.265.073.073,0,0,1-.028-.056.2.2,0,0,1-.028-.084.422.422,0,0,1-.042-.181v-.056c.014-.042.014-.084.028-.125a.643.643,0,0,1,.1-.223c0-.014.014-.014.014-.028a.679.679,0,0,1,.139-.139.554.554,0,0,1,.2-.112.565.565,0,0,1,.209-.042h.028a.573.573,0,0,1,.154.014c.014,0,.014,0,.028.014h.014a.085.085,0,0,1,.056.014c.279.07.991.251,1.981.544,4.435,1.325,14.548,5.008,17.212,11.7a8.827,8.827,0,0,1,.586,4.282" transform="translate(-361.801 -398.118)" fill="#73655a"/>
        <path id="Path_123356" data-name="Path 123356" d="M615.463,674.563l-10.6,9.557a2.773,2.773,0,0,1-3.906-.2l-.15-.166a2.774,2.774,0,0,1,.2-3.906l10.6-9.557a2.775,2.775,0,0,1,3.906.2l.149.165a2.774,2.774,0,0,1-.2,3.906" transform="translate(-344.333 -384.2)" fill="#f7b897"/>
        <path id="Path_123357" data-name="Path 123357" d="M606.841,665l-10.6,9.557a2.774,2.774,0,0,1-3.906-.2l-.149-.166a2.774,2.774,0,0,1,.2-3.906l10.6-9.557a2.774,2.774,0,0,1,3.906.2l.149.165a2.774,2.774,0,0,1-.2,3.906" transform="translate(-339.385 -378.712)" fill="#f7b897"/>
        <path id="Path_123358" data-name="Path 123358" d="M597.58,656.587l-10.6,9.557a2.773,2.773,0,0,1-3.906-.2l-.149-.166a2.774,2.774,0,0,1,.2-3.906l10.6-9.557a2.774,2.774,0,0,1,3.906.2l.149.166a2.774,2.774,0,0,1-.2,3.906" transform="translate(-334.072 -373.885)" fill="#f7b897"/>
        <path id="Path_123359" data-name="Path 123359" d="M588.318,648.174l-10.6,9.557a2.773,2.773,0,0,1-3.906-.2l-.15-.166a2.774,2.774,0,0,1,.2-3.906l10.6-9.557a2.774,2.774,0,0,1,3.906.2l.149.165a2.774,2.774,0,0,1-.2,3.906" transform="translate(-328.757 -369.058)" fill="#f7b897"/>
        <path id="Path_123360" data-name="Path 123360" d="M662.273,716.68a54.59,54.59,0,0,1-5.677,3.306c-.5.251-1,.488-1.521.725-.349.167-.7.335-1.06.488a2.111,2.111,0,0,1-.265.111c-.418.182-.836.363-1.255.516-.837.349-1.674.67-2.5.962-.516.182-1.032.349-1.534.5-1.255.4-2.511.753-3.738,1.032-.6.153-1.186.279-1.785.391q-1.59.314-3.139.5c.739-1.911,2.26-4.505,5.008-4.952,4.435-.7,6.709,1.2,7.7-2.483s.684-7.253,4.143-7.253c1.827,0,4,3.166,5.621,6.151" transform="translate(-367.115 -407.695)" fill="#fff"/>
        <path id="Path_123361" data-name="Path 123361" d="M508.1,669.486s-22.115,17.533-24.56,24.116-4.349,14.037-4.349,14.037-2.633-7.223-1.129-12.921c0,0-7.96,9.469-7.365,16.649s0,.734,0,.734-2.6-17.349,10.939-25.857l1.692-22.961,3.385,19.9Z" transform="translate(-269.97 -380.587)" fill="#cf5050"/>
        <path id="Path_123362" data-name="Path 123362" d="M525.337,735.579S499.62,772.114,480.63,777.85" transform="translate(-275.783 -422.069)" fill="none" stroke="#c74242" stroke-width="2.455"/>
        <path id="Path_123363" data-name="Path 123363" d="M1055.363,466.087s6.043.474,6.607,7.339-1.281,11.5-.829,14.587,5.437,3.844,5.155,8.64,3.009,3.985,5.548,7.494,2.445,6.224,2.445,6.224h-54.916a8.863,8.863,0,0,1,2.069-7.711c3.2-3.844,3.479-4.6,2.727-7.982s-1.5-6.018,2.727-8.839,2.539-7.805,2.351-12.977,3.547-8.843,7.98-8.639,18.138,1.865,18.138,1.865" transform="translate(-584.8 -266.361)" fill="#362e29"/>
        <path id="Path_123364" data-name="Path 123364" d="M956.411,658.316l5.325-12.988.826-2.016.821-2L980.2,600.294a16.522,16.522,0,0,0-30.575-12.531l-15.809,38.555-1.828,4.461-1.828,4.461-4.322,10.543a16.522,16.522,0,0,0,30.575,12.532" transform="translate(-530.536 -331.373)" fill="#f7b897"/>
        <path id="Path_123365" data-name="Path 123365" d="M993.588,577.368s-10.048-2.315-15.972,6.336-6.3,11.472-6.3,11.472,7.9,6.233,9.215,13.884,15.233-19.619,15.421-20-2.364-11.7-2.364-11.7" transform="translate(-557.336 -331.127)" fill="#e06b3f"/>
        <path id="Path_123366" data-name="Path 123366" d="M1051.035,627.362s-.753,1.855-1.827,4.756v.028c-2.636,7.211-7.1,20.853-6.4,28.706H990.052s2.232-10.336-.837-19.96-8.16-21.592-8.09-30.143c.07-8.843,11.954-15.483,18.091-33h32.137l17.268,1.883Z" transform="translate(-562.964 -331.506)" fill="#f47445"/>
        <path id="Path_123367" data-name="Path 123367" d="M1071.929,550.508l-.168-20.243-17.533,2.591-2.4,17.652s8.379,7.465,20.1,0" transform="translate(-603.534 -304.261)" fill="#f7b897"/>
        <path id="Path_123368" data-name="Path 123368" d="M1053.952,551.6s8.167.8,12.565-4.574-11.607-2.475-11.607-2.475Z" transform="translate(-604.752 -312.01)" fill="#de8759"/>
        <path id="Path_123369" data-name="Path 123369" d="M1040.1,489.91a12.87,12.87,0,0,0,25.734-.543l-.311-14.747a10.9,10.9,0,1,0-21.8.461,25.294,25.294,0,0,1-2.322,8.924c-.066.14-.122.245-.145.292a.092.092,0,0,0-.011.035,12.742,12.742,0,0,0-1.143,5.578" transform="translate(-596.803 -266.205)" fill="#f7b897"/>
        <path id="Path_123370" data-name="Path 123370" d="M1055.745,502.906s-.43,5.47-2.824,6.612a2.643,2.643,0,0,0,2.443,1.2" transform="translate(-604.16 -288.563)" fill="none" stroke="#de8759" stroke-linecap="round" stroke-linejoin="round" stroke-width="1.626"/>
        <path id="Path_123371" data-name="Path 123371" d="M1069.75,503.533c.017.8.41,1.448.879,1.438s.834-.67.817-1.474-.41-1.448-.879-1.437-.834.669-.817,1.473" transform="translate(-613.817 -288.077)" fill="#362e29"/>
        <path id="Path_123372" data-name="Path 123372" d="M1053.947,463.675a6.327,6.327,0,0,0,6.1,5.29c5.129.117,9.408,3.709,8.8,8.9a22.518,22.518,0,0,0,.705,9.046s3.468,6.952,3.491,9.609a16.318,16.318,0,0,1,2.269-7.793c2.4-4.289,11.707-23.9,0-26.575,0,0-13.318-11.754-21.364,1.528" transform="translate(-604.747 -262.422)" fill="#362e29"/>
        <path id="Path_123373" data-name="Path 123373" d="M1051.323,503.045c.017.8.41,1.448.879,1.438s.834-.67.817-1.473-.41-1.448-.879-1.438-.834.67-.817,1.473" transform="translate(-603.243 -287.797)" fill="#362e29"/>
        <path id="Path_123374" data-name="Path 123374" d="M1072.2,498.59s-1.012-1.734-3.927-1.243" transform="translate(-612.972 -285.322)" fill="none" stroke="#16142a" stroke-width="1.626"/>
        <path id="Path_123375" data-name="Path 123375" d="M1051.329,495.939a3.629,3.629,0,0,0-3.644.979" transform="translate(-601.156 -284.484)" fill="none" stroke="#16142a" stroke-width="1.626"/>
        <path id="Path_123376" data-name="Path 123376" d="M1086.646,521.453c1.409,1.469,4.053,1.219,5.906-.56s2.214-4.409.805-5.878-4.053-1.218-5.907.56-2.214,4.41-.805,5.878" transform="translate(-623.019 -294.962)" fill="#f7b897"/>
        <line id="Line_80" data-name="Line 80" y1="2.834" x2="3.977" transform="translate(464.568 221.651)" fill="none" stroke="#de8759" stroke-width="1.626"/>
        <path id="Path_123377" data-name="Path 123377" d="M1034.883,826.13a33.908,33.908,0,1,0-66.867-9.98h0l-8.474,106.5a17.791,17.791,0,1,0,34.67,8l39.07-99.434h0A34.184,34.184,0,0,0,1034.883,826.13Z" transform="translate(-550.316 -450.19)" fill="none" stroke="#000" stroke-width="3.257"/>
        <path id="Path_123378" data-name="Path 123378" d="M1152.8,615.305c1.992,6.17-10.258,31.493-16.362,29.448s-12.225-18.648-12.225-18.648l19.371-22.46Z" transform="translate(-645.068 -346.366)" fill="#e0773a"/>
        <path id="Path_123379" data-name="Path 123379" d="M971.834,1097.953a17.791,17.791,0,1,0-35.12-4.491l-16.632,127.232,15.673-.08,10.913-15.463s7.505-17.187,19.341-53.121c8.921-27.085,8.548-38.269,5.826-54.077" transform="translate(-527.938 -617.49)" fill="#f7b897"/>
        <path id="Path_123380" data-name="Path 123380" d="M1069.114,814.961a33.908,33.908,0,1,0-66.473,12.333h0l26.66,103.455a17.792,17.792,0,1,0,35.388-3.72l4.568-106.737h0A34.089,34.089,0,0,0,1069.114,814.961Z" transform="translate(-574.645 -450.194)" fill="none" stroke="#000" stroke-width="3.257"/>
        <path id="Path_123381" data-name="Path 123381" d="M1102.365,1101.579a17.791,17.791,0,1,0-35.366,1.676L1072.874,1221l-.16,10.438,14.739-8.172,8.012-4.006s5.139-25.974,10.555-63.417c4.082-28.223,1.774-39.172-3.653-54.267" transform="translate(-612.128 -621.335)" fill="#f7b897"/>
        <path id="Path_123382" data-name="Path 123382" d="M1070.186,578.029s-18.556,12.472-25.679-.268h23.221Z" transform="translate(-599.333 -331.514)" fill="#f7b897"/>
        <path id="Path_123383" data-name="Path 123383" d="M1160.5,644.91l-6.977-12.181-1.083-1.89-1.075-1.878L1129.329,590.5a16.521,16.521,0,0,0-28.671,16.426l20.709,36.161,2.4,4.183,2.4,4.183,5.664,9.887A16.521,16.521,0,0,0,1160.5,644.91" transform="translate(-630.303 -334.065)" fill="#f7b897"/>
        <path id="Path_123384" data-name="Path 123384" d="M1058.446,527.757s-1.626-.24-2.3-.235a8.805,8.805,0,0,0-1.386.2,6.318,6.318,0,0,0-1.091-.2c-.605-.01-2.619.235-2.619.235s.7,3.881,3.7,3.881c2.971,0,3.7-3.881,3.7-3.881" transform="translate(-603.087 -302.687)" fill="#dd5850"/>
        <path id="Path_123385" data-name="Path 123385" d="M1054.808,528.9a14.509,14.509,0,0,1-3.62-.665c1.221,1.751,2.561,2.321,3.62,2.321a4.625,4.625,0,0,0,3.66-2.321,15.035,15.035,0,0,1-3.66.665" transform="translate(-603.166 -303.098)" fill="#fff"/>
        <path id="Path_123386" data-name="Path 123386" d="M883.687,634.361c-2.334-2.816-18.767,7.379-15.5,12.978s11.371-1.9,11.371-1.9l4.732-9.146Z" transform="translate(-497.916 -363.714)" fill="#48694b"/>
        <path id="Path_123387" data-name="Path 123387" d="M859.553,631.736c2.173,3.085,6.356,14.421,14.807,29.635,8.934,16.083,13.383,24.457,13.611,24.806l.019-.009a17.493,17.493,0,1,0,26.939-21.578c-.008-.008-.011-.016-.018-.024-5.571-5.725-36.72-34.341-40.49-37.887-5.158-4.853-17.489,1.332-14.867,5.056" transform="translate(-493 -358.56)" fill="#f7b897"/>
        <path id="Path_123388" data-name="Path 123388" d="M877.752,1385.016c3.151-.4,8.609-2.04,12.251-5.191a14.186,14.186,0,0,0,1.352-1.343c3.5-4.021,10.505-19.483,11.995-27.214h.008a8.5,8.5,0,0,1,16.939,1.083c0,.282-.015.562-.042.837h0a14.941,14.941,0,0,0,.69,5.56c.964,2.721,2.412,4.769,2.576,7.377.31,4.864-1.474,4.762-2.7,9.092s-2.2,13.826-2.2,13.826H915.89s-.077-11.372-2.815-15.117c0,0-8.351,9.875-9.108,15.117H875.479s-1.291-3.572,2.273-4.029" transform="translate(-502.215 -771.089)" fill="#f7b897"/>
        <path id="Path_123389" data-name="Path 123389" d="M875.479,1409.111h28.488c.758-5.242,9.108-15.117,9.108-15.117,2.738,3.745,2.815,15.117,2.815,15.117h2.738s.982-9.5,2.2-13.826,3.145-4.09,2.835-8.954c-.164-2.609-1.75-4.795-2.714-7.515-2.738,3.521-12.828,16.047-20.249,19.43A20.772,20.772,0,0,1,890,1399.891c-3.642,3.151-9.1,4.786-12.251,5.191-3.564.456-2.273,4.029-2.273,4.029" transform="translate(-502.215 -791.156)" fill="#3d405b"/>
        <path id="Path_123390" data-name="Path 123390" d="M1034.834,1385.124c3.151-.4,8.609-2.04,12.251-5.191a14.185,14.185,0,0,0,1.351-1.343c3.5-4.021,10.505-19.483,11.995-27.214h.008a8.5,8.5,0,0,1,16.939,1.083c0,.282-.015.561-.042.836h0a14.942,14.942,0,0,0,.69,5.56c.964,2.721,2.413,4.77,2.576,7.378.31,4.865-1.474,4.761-2.7,9.092s-2.2,13.826-2.2,13.826h-2.738s-.078-11.373-2.815-15.118c0,0-8.351,9.875-9.109,15.118h-28.487s-1.292-3.573,2.273-4.029" transform="translate(-592.347 -771.151)" fill="#f7b897"/>
        <path id="Path_123391" data-name="Path 123391" d="M1032.561,1409.22h28.487c.758-5.243,9.109-15.118,9.109-15.118,2.738,3.745,2.815,15.118,2.815,15.118h2.738s.982-9.5,2.2-13.826,3.145-4.09,2.835-8.954c-.164-2.609-1.75-4.795-2.714-7.515-2.738,3.521-12.828,16.048-20.249,19.431a20.775,20.775,0,0,1-10.692,1.645c-3.642,3.15-9.1,4.786-12.251,5.191-3.564.456-2.273,4.029-2.273,4.029" transform="translate(-592.347 -791.218)" fill="#3d405b"/>
        <path id="Path_123392" data-name="Path 123392" d="M1039.768,957.831c-.753,15.232-1.953,29.71-1.953,29.71h-22.122a112.327,112.327,0,0,0,3.013-19.751c.572-10.336-4.324-24.451-4.324-33.853a153.574,153.574,0,0,0-4.324,20.881c-1.325,10.531-4.073,32.723-4.073,32.723h-74.08s14.464-121.491,16.836-149.709,2.455-34.508,5.551-43.533,6.626-16.808,7.518-21.564h52.753c2.859,4.477,5.928,9.471,8.787,14.813v.028c6.263,11.731,11.466,25.093,11.061,38.275-.614,20.155,2.538,62.182,1.227,76.2s4.882,40.534,4.129,55.78" transform="translate(-534.723 -443.389)" fill="#f47445"/>
        <path id="Path_123393" data-name="Path 123393" d="M1051.409,468.016a44.9,44.9,0,0,1-2.78,6.791s.041-1.478,0-4.064,2.921-7.852,4.943-5.172-2.163,2.445-2.163,2.445" transform="translate(-601.698 -266.716)" fill="#362e29"/>
        <path id="Path_123394" data-name="Path 123394" d="M1127.327,725.9v.028a40.755,40.755,0,0,1-11.075-14.841,39.157,39.157,0,0,1-1.7-25.875,38.75,38.75,0,0,0,0-19.918l10.392,17.059v.028c-2.636,7.211-7.1,20.853-6.4,28.706,2.859,4.477,5.928,9.471,8.787,14.813" transform="translate(-638.698 -381.739)" fill="#e06b3f"/>
        <path id="Path_123395" data-name="Path 123395" d="M900.04,605.623c0,19.655-12.236,35.589-27.328,35.589s-27.328-15.934-27.328-35.589,12.235-35.589,27.328-35.589,27.328,15.934,27.328,35.589" transform="translate(-485.077 -327.08)" fill="#a38a76"/>
        <path id="Path_123396" data-name="Path 123396" d="M902.431,617.734c0,14.687-9.143,26.593-20.42,26.593s-20.421-11.906-20.421-26.593,9.143-26.593,20.421-26.593,20.42,11.906,20.42,26.593" transform="translate(-494.376 -339.192)" fill="#73655a"/>
        <path id="Path_123397" data-name="Path 123397" d="M1047.112,668.983c-1.656-.805,4.555-2.6,4.892-3.637.643-1.966-6.686-7.456-6.093-8.431.989-1.625,4.261.595,5.9,1.84,1.381,1.053,6.574,4.48,9.3,7.343a17.491,17.491,0,0,0,7.9,5,266.346,266.346,0,0,0,26.041,5.9c15.775,2.961,23.933,4.333,24.285,4.425l0,.018a15.261,15.261,0,1,1-10.431,28.246c-.009,0-.016,0-.025-.008-6.274-3.033-38.572-20.344-42.819-21.99a91.284,91.284,0,0,0-14.394-4.382c-2.565-.506-3.81-5.521-3.81-5.521s-4.325-4.44-.425-4.226Z" transform="translate(-600.078 -376.604)" fill="#f7b897"/>
        <path id="Path_123398" data-name="Path 123398" d="M1025.17,699.754h0a2.315,2.315,0,0,1-1.565-2.876l11.294-38.272a2.315,2.315,0,0,1,4.441,1.311l-11.293,38.272a2.316,2.316,0,0,1-2.876,1.565" transform="translate(-587.285 -376.95)" fill="#28244d"/>
        <path id="Path_123399" data-name="Path 123399" d="M1046.08,680.6l-13.783-3.437a2.113,2.113,0,1,1,1.022-4.1L1047.1,676.5a2.113,2.113,0,0,1-1.022,4.1" transform="translate(-591.408 -386.161)" fill="#f7b897"/>
        <path id="Path_123400" data-name="Path 123400" d="M1043.681,690.218l-13.784-3.437a2.113,2.113,0,1,1,1.023-4.1l13.783,3.436a2.113,2.113,0,0,1-1.022,4.1" transform="translate(-590.031 -391.681)" fill="#f7b897"/>
        <path id="Path_123401" data-name="Path 123401" d="M1041.283,699.838,1027.5,696.4a2.113,2.113,0,1,1,1.022-4.1l13.784,3.436a2.113,2.113,0,0,1-1.023,4.1" transform="translate(-588.655 -397.201)" fill="#f7b897"/>
        <path id="Path_123402" data-name="Path 123402" d="M1038.884,709.458l-13.783-3.437a2.113,2.113,0,1,1,1.022-4.1l13.783,3.437a2.113,2.113,0,0,1-1.022,4.1" transform="translate(-587.279 -402.721)" fill="#f7b897"/>
        <path id="Path_123403" data-name="Path 123403" d="M1106.155,632.428s4.789-31.705,22.844-29.448c0,0-4.466-19.532-22.075-20.815h-9.992l-14.2,16.771Z" transform="translate(-621.267 -334.041)" fill="#f47445"/>
        <path id="Path_123404" data-name="Path 123404" d="M291.547,1120.083V875.022H757.206v245.062" transform="translate(-167.288 -502.081)" fill="#f2d6bd"/>
        <rect id="Rectangle_348" data-name="Rectangle 348" width="477.19" height="12.078" transform="translate(118.493 360.863)" fill="#deba9b"/>
        <path id="Path_123405" data-name="Path 123405" d="M991.867,785.467H941.3a3.632,3.632,0,0,1-3.632-3.632v-35.11H995.5v35.11a3.632,3.632,0,0,1-3.632,3.632" transform="translate(-538.029 -428.465)" fill="#73655a"/>
        <path id="Path_123406" data-name="Path 123406" d="M998.422,841.485H957.47V840.7a3.08,3.08,0,0,1,3.08-3.08h34.793a3.08,3.08,0,0,1,3.08,3.08Z" transform="translate(-549.391 -480.622)" fill="#4d4740"/>
        <path id="Path_123407" data-name="Path 123407" d="M927.576,763.859h-5.989a2.445,2.445,0,1,1,0-4.89h5.989a2.445,2.445,0,0,1,0,4.89" transform="translate(-527.399 -435.49)" fill="#73655a"/>
        <path id="Path_123408" data-name="Path 123408" d="M1068.8,763.859h5.989a2.445,2.445,0,1,0,0-4.89H1068.8a2.445,2.445,0,0,0,0,4.89" transform="translate(-611.871 -435.49)" fill="#73655a"/>
        <path id="Path_123409" data-name="Path 123409" d="M993.84,744.851H936.29a1.269,1.269,0,0,1,0-2.539H993.84a1.269,1.269,0,1,1,0,2.539" transform="translate(-536.51 -425.933)" fill="#a38a76"/>
        <rect id="Rectangle_349" data-name="Rectangle 349" width="155.22" height="41.748" transform="translate(124.259 372.941)" fill="none" stroke="#deba9b" stroke-width="3.273"/>
        <rect id="Rectangle_350" data-name="Rectangle 350" width="155.22" height="41.748" transform="translate(279.478 372.941)" fill="none" stroke="#deba9b" stroke-width="3.273"/>
        <rect id="Rectangle_351" data-name="Rectangle 351" width="155.22" height="41.748" transform="translate(434.698 372.941)" fill="none" stroke="#deba9b" stroke-width="3.273"/>
        <path id="Path_123410" data-name="Path 123410" d="M465.433,892.853H439.162a2.719,2.719,0,0,1,0-5.438h26.272a2.719,2.719,0,1,1,0,5.438" transform="translate(-250.429 -509.192)" fill="#f5efe9"/>
        <path id="Path_123411" data-name="Path 123411" d="M829.623,892.853H803.352a2.719,2.719,0,0,1,0-5.438h26.272a2.719,2.719,0,1,1,0,5.438" transform="translate(-459.399 -509.192)" fill="#f5efe9"/>
        <path id="Path_123412" data-name="Path 123412" d="M1193.812,892.853H1167.54a2.719,2.719,0,1,1,0-5.438h26.272a2.719,2.719,0,0,1,0,5.438" transform="translate(-668.368 -509.192)" fill="#f5efe9"/>
        <path id="Path_123413" data-name="Path 123413" d="M646.4,1181.863V982.69h7.279v199.173" transform="translate(-370.902 -563.86)" fill="none" stroke="#f5eae1" stroke-width="4.59"/>
        <path id="Path_123414" data-name="Path 123414" d="M1011.388,1181.863V982.69h7.279v199.173" transform="translate(-580.329 -563.86)" fill="none" stroke="#f5eae1" stroke-width="4.59"/>
        <path id="Path_123415" data-name="Path 123415" d="M291.547,1002.317l465.659-29.342H291.547Z" transform="translate(-167.288 -558.286)" fill="#deba9b"/>
        <path id="Path_123416" data-name="Path 123416" d="M741.42,450.075H667.978a4.252,4.252,0,0,1-4.252-4.252V406.681a4.252,4.252,0,0,1,4.252-4.252H741.42a4.252,4.252,0,0,1,4.252,4.252v39.142a4.252,4.252,0,0,1-4.252,4.252" transform="translate(-380.842 -230.91)" fill="#fff"/>
        <path id="Path_123417" data-name="Path 123417" d="M746.452,505.776l-9.96,17.717,25.632-15.782Z" transform="translate(-422.595 -290.209)" fill="#fff"/>
        <rect id="Rectangle_352" data-name="Rectangle 352" width="70.563" height="3.179" transform="translate(288.575 177.86)" fill="#bddef2"/>
        <rect id="Rectangle_353" data-name="Rectangle 353" width="70.563" height="3.179" transform="translate(288.575 185.806)" fill="#bddef2"/>
        <rect id="Rectangle_354" data-name="Rectangle 354" width="70.563" height="3.179" transform="translate(288.575 193.753)" fill="#bddef2"/>
        <rect id="Rectangle_355" data-name="Rectangle 355" width="70.563" height="3.179" transform="translate(288.575 201.699)" fill="#bddef2"/>
        <rect id="Rectangle_356" data-name="Rectangle 356" width="70.563" height="3.179" transform="translate(288.575 209.646)" fill="#bddef2"/>
        <path id="Path_123418" data-name="Path 123418" d="M960.68,1469.592H161.149a9.611,9.611,0,0,1-9.611-9.611v-.519a9.611,9.611,0,0,1,9.611-9.611H960.68a9.611,9.611,0,0,1,9.611,9.611v.519a9.611,9.611,0,0,1-9.611,9.611" transform="translate(-86.952 -831.915)" fill="#585c1f"/>
        <path id="Path_123419" data-name="Path 123419" d="M900.607,382.318h65.311a4.854,4.854,0,0,0,4.854-4.854v-18.5a4.854,4.854,0,0,0-4.854-4.854H900.607a4.854,4.854,0,0,0-4.854,4.854v18.5a4.854,4.854,0,0,0,4.854,4.854" transform="translate(-513.978 -203.184)" fill="#fff"/>
        <path id="Path_123420" data-name="Path 123420" d="M1004.382,409.8l9.81,17.45-25.244-15.544Z" transform="translate(-567.453 -235.142)" fill="#fff"/>
        <path id="Path_123421" data-name="Path 123421" d="M930.728,378.088a6.77,6.77,0,1,1-6.77-6.77,6.77,6.77,0,0,1,6.77,6.77" transform="translate(-526.277 -213.058)" fill="#bddef2"/>
        <path id="Path_123422" data-name="Path 123422" d="M981.414,378.088a6.77,6.77,0,1,1-6.77-6.77,6.77,6.77,0,0,1,6.77,6.77" transform="translate(-555.361 -213.058)" fill="#bddef2"/>
        <path id="Path_123423" data-name="Path 123423" d="M1032.1,378.088a6.77,6.77,0,1,1-6.77-6.77,6.77,6.77,0,0,1,6.77,6.77" transform="translate(-584.446 -213.058)" fill="#bddef2"/>
        <path id="Path_123424" data-name="Path 123424" d="M1922.309,358.936l3.541,7.174,7.917,1.15-5.729,5.584,1.352,7.885-7.081-3.723-7.081,3.723,1.352-7.885-5.729-5.584,7.918-1.15Z" transform="translate(-1096.436 -205.953)" fill="#f5efe9"/>
        <path id="Path_123425" data-name="Path 123425" d="M20,545.165l3.541,7.174,7.917,1.15-5.729,5.584,1.352,7.885L20,563.237l-7.081,3.723,1.352-7.885L8.543,553.49l7.917-1.15Z" transform="translate(-4.902 -312.811)" fill="#f5efe9"/>
        <path id="Path_123426" data-name="Path 123426" d="M2029.739,240.088l3.541,7.174,7.917,1.15L2035.468,254l1.352,7.885-7.081-3.723-7.081,3.723L2024.01,254l-5.729-5.585,7.918-1.15Z" transform="translate(-1158.08 -137.759)" fill="#f5efe9"/>
      </g>
    </g>
  </g>
</svg>
