<svg xmlns="http://www.w3.org/2000/svg" xmlns:xlink="http://www.w3.org/1999/xlink" width="1169.133" height="812.292" viewBox="0 0 1169.133 812.292">
  <defs>
    <clipPath id="clip-path">
      <rect id="Rectangle_228" data-name="Rectangle 228" width="1070.618" height="619.388" fill="none"/>
    </clipPath>
  </defs>
  <g id="Group_88291" data-name="Group 88291" transform="translate(118.185) rotate(11)">
    <g id="Group_88069" data-name="Group 88069" clip-path="url(#clip-path)">
      <path id="Path_122835" data-name="Path 122835" d="M132.8,147.825C79.275,97.654,16.575,84.713,0,82.068,11.16,51.958,28.412,7.189,32.708.557A63.909,63.909,0,0,1,41.085.079c12.176,0,38.236,2.534,75.934,19.5,54.438,24.5,69.009,52.059,71.872,58.8ZM33.115,0h0" transform="translate(403.509 21.525)" fill="#fff"/>
      <path id="Path_122836" data-name="Path 122836" d="M45.607,6.608c11.912,0,37.441,2.494,74.576,19.205,49.252,22.164,65.167,46.94,69.358,55.322l-52.574,65.093c-31.639-28.806-65.74-44.719-89.325-53.093A248.956,248.956,0,0,0,9.016,82.676C21.35,49.53,34.772,15.408,39.278,6.875c1.464-.137,3.581-.268,6.329-.268m0-6.608A55.494,55.494,0,0,0,35.579.7C31.709,1.989,0,87.992,0,87.992s75.269,7.678,137.637,67.921L197.171,82.2s-9.935-33.462-74.277-62.415C85.19,2.821,58.91,0,45.607,0" transform="translate(398.988 18.3)" fill="#a0c6f4"/>
      <path id="Path_122837" data-name="Path 122837" d="M0,0S74.01,7.477,119.613,49.34" transform="translate(410.039 112.971)" fill="none" stroke="#2a1e17" stroke-linecap="round" stroke-linejoin="round" stroke-width="1"/>
      <path id="Path_122838" data-name="Path 122838" d="M0,53.686,27.61,0,55.987,55.987Z" transform="translate(473.948 55.676)" fill="#a0c6f4"/>
      <path id="Path_122839" data-name="Path 122839" d="M0,53.686,27.61,0,55.987,55.987Z" transform="translate(479.317 54.909)" fill="none" stroke="#2a1e17" stroke-linecap="round" stroke-linejoin="round" stroke-width="1"/>
      <path id="Path_122840" data-name="Path 122840" d="M0,0S82.981,7.475,134.565,68.778" transform="translate(453.399 15.038)" fill="none" stroke="#2a1e17" stroke-linecap="round" stroke-linejoin="round" stroke-width="1"/>
      <path id="Path_122841" data-name="Path 122841" d="M7.548,45.7C2.992,42.349,0,40.1,0,40.1,1.264,38.417,21.234,17.142,32.794,0c0,0-23.383,47.07-25.246,45.7" transform="translate(488.25 207.248)" fill="#2a1e17"/>
      <path id="Path_122842" data-name="Path 122842" d="M0,0C2.224,3.707,3.213,2.223,9.637,1.73s15.568,4.2,18.779,12.109,2.223,9.142.494,10.131-14.084,2.47-14.578,4.941" transform="translate(212.845 97.879)" fill="none" stroke="#2a1e17" stroke-linecap="round" stroke-linejoin="round" stroke-width="1"/>
      <path id="Path_122843" data-name="Path 122843" d="M26.18,9.73,20.423,0,0,34.04l5.361,4.125Z" transform="translate(353.132 490.33)" fill="#f9865f"/>
      <path id="Path_122844" data-name="Path 122844" d="M7.175,25.638S-3.408,8.431,1.132,0L34.894,3.613Z" transform="translate(236.523 390.008)" fill="#f9865f"/>
      <path id="Path_122845" data-name="Path 122845" d="M4.475,28.435,6.5,33.082.261,57.406a8.325,8.325,0,0,0,2.625,8.37L33.762,20.134A10.616,10.616,0,0,0,32.194,6.409L25.294,0Z" transform="translate(239.223 387.211)"/>
      <path id="Path_122846" data-name="Path 122846" d="M15.782,29.426c9.669-.23,21.921-.842,19.471-8.194S23.614-4.5,2.785,1.016c0,0-7.353,6.125,1.837,17.154s11.16,11.256,11.16,11.256" transform="translate(211.393 97.364)" fill="#2a1e33"/>
      <path id="Path_122847" data-name="Path 122847" d="M58.074,135.787s-16.5-48.73-2.539-70.125C67.062,48,104.718,76.725,109.878,80.6l26.943-48.661s-6.22-8.721-21.492-17.259-78.356-34.107-108,12.667C-3.631,44.63-3.8,118.815,17.215,147.245Z" transform="translate(218.04 258.242)" fill="#7595ec"/>
      <path id="Path_122848" data-name="Path 122848" d="M8.15,75.815S-8.355,27.084,5.611,5.69C17.138-11.967,54.794,16.753,59.954,20.624" transform="translate(267.964 318.214)" fill="none" stroke="#2a1e17" stroke-linecap="round" stroke-linejoin="round" stroke-width="1"/>
      <path id="Path_122849" data-name="Path 122849" d="M61.514,0C49.26,12.9,12.929,75.738,4.758,105.772-6.169,145.945-2.061,179.263,58,244.5l29.034-42.288s-20.415-31-16.6-60.218c5.512-42.273,35.594-83.259,50.817-109.257Z" transform="translate(293.347 290.177)" fill="#7595ec"/>
      <path id="Path_122850" data-name="Path 122850" d="M0,0,48.3,37.9,62.729,15.959Z" transform="translate(359.474 295.637)" fill="#2a1e17"/>
      <path id="Path_122851" data-name="Path 122851" d="M0,0Q11.3,2.421,17.215,8.607c3.945,4.125,2.151,6.277.717,7.531S10.937,15.959,6.1,11.656,0,0,0,0" transform="translate(636.864 255.783)" fill="#ff8a66"/>
      <path id="Path_122852" data-name="Path 122852" d="M0,40.1C1.264,38.417,21.234,17.142,32.794,0c0,0,34.947,39.154,38.736,40.418,1.407.469,9.974.357,20.614.248,17.98-.187,41.88-.367,47.171,2.278,8.42,4.211,13.471,6.315,15.578,12.211s2.934,9.745-2.106,10.1c-5.894.421-9.684-7.156-9.684-7.156s-4.815,2.909-17.261,7.577c0,0-44.781,17.385-74.714,8.978C42.955,72.361,0,40.1,0,40.1" transform="translate(488.25 207.248)" fill="#f9865f"/>
      <path id="Path_122853" data-name="Path 122853" d="M4.818.807C.976,2.271-1.36,4.02.865,7.725S4.076,9.951,10.5,9.455s15.568,4.2,18.781,12.109,2.223,9.143.494,10.131S15.691,34.166,15.2,36.637,20.2,46.4,31.57,45.906l2.717-.494S58.192,68.759,61.651,72.22,90.535,92.9,104.54,96.4c10.645,2.661,32.209-.771,45.169-3.3,6.294-1.227,10.559-2.242,10.559-2.242s-9.725-17.519-11.7-44.453c0,0-23.267,3.738-38.728,7.13,0,0-36.078-20.114-53.623-29.01,0,0-15.32-18.779-22.486-21.25S10.007-1.17,4.818.807" transform="translate(211.98 90.153)" fill="#f9865f"/>
      <path id="Path_122854" data-name="Path 122854" d="M7.166,44.006c6.294-1.227,10.557-2.242,10.557-2.242S5.96,26.935,3.983,0c0,0-5.318,5.732-3.664,20.986,2.08,19.172,6.847,23.02,6.847,23.02" transform="translate(354.523 139.251)" fill="#2a1e17"/>
      <path id="Path_122855" data-name="Path 122855" d="M42.728,4.743s.325,32.915,9.143,46.644l3.163-1.265S13.479,98.736.04,130.5c-2.2,5.2,86.277,61.713,99.349,60.922,0,0,43.107-65.793,57.852-85.3l15.844,12.28s31.079-31.474,32.75-42.651c0,0-30.019-36.529-54.578-47.224S104.751-.487,78.372.01C55.535.439,42.728,4.743,42.728,4.743" transform="translate(315.209 131.494)" fill="#fff7c9"/>
      <path id="Path_122856" data-name="Path 122856" d="M15.845,19.157,0,6.879,2.524,0Z" transform="translate(472.45 230.741)" fill="#2a1e17"/>
      <path id="Path_122857" data-name="Path 122857" d="M75.732,28.626C72.958,37.254,64.946,62.216,56.009,65.3s-18.242-.788-18.242-.788l-9.52,4.872c-1.061,3.187-8.575,5.93-18.277,6.3C2.787,75.962-1.587,66.737.539,60.059c.975-3.066,4.622-18.181,4.622-18.181s7.7-28.352,14.791-34.207S33.7-3.983,52.619,3.663C81.586,15.374,75.732,28.626,75.732,28.626" transform="translate(436.666 91.126)" fill="#f9865f"/>
      <path id="Path_122858" data-name="Path 122858" d="M14.05,53.481c-1.272,5.3-6.783,15.9-10.386,13.989s-4.875-6.783-2.331-16.108S6,20.842,13.2,17.026s10.384.636,10.384.636S20.408,2.19,29.733.071c0,0,3.18-1.483,1.908,9.114,0,0,3.6-9.75,15.26-8.478S62.585,18.3,62.585,18.3s.847-4.45,6.145-4.45S82.083,21.69,80.177,30.379c0,0,13.561-4.244,20.77,6.571S107.3,59.628,89.925,64.29C71.753,69.166,71.91,47.97,69.155,45.215S63.433,39.281,53.26,43.1s-20.771-7.417-20.771-7.417S30.794,49.242,29.1,50.514s-5.086,2.967-4.239-3.391S26.766,41.4,26.13,39.7s-3.5-7.044-9.537-2.331c-6.783,5.3-2.544,16.108-2.544,16.108" transform="translate(440.92 67.5)" fill="#2a1e33"/>
      <path id="Path_122859" data-name="Path 122859" d="M4.917,21.053C.875,17.656-1.929,11.675,1.63,5.69S11.008-1.1,12.787,1.164s2.466,6.081.795,10.605" transform="translate(452.937 102.3)" fill="none" stroke="#2a1e33" stroke-linecap="round" stroke-linejoin="round" stroke-width="1"/>
      <path id="Path_122860" data-name="Path 122860" d="M4.475,28.435,6.5,33.082.261,57.406a8.325,8.325,0,0,0,2.625,8.37L33.762,20.134A10.616,10.616,0,0,0,32.194,6.409L25.294,0Z" transform="translate(354.017 500.059)"/>
      <path id="Path_122861" data-name="Path 122861" d="M9.451,9.715S7.087,2.024,0,0" transform="translate(455.056 75.447)" fill="none" stroke="#2a1e33" stroke-linecap="round" stroke-linejoin="round" stroke-width="1"/>
      <line id="Line_36" data-name="Line 36" y1="119.489" x2="85.54" transform="translate(314.281 140.183)" fill="none" stroke="#2a1e17" stroke-linecap="round" stroke-linejoin="round" stroke-width="1"/>
      <path id="Path_122862" data-name="Path 122862" d="M2.027,0c-3.081,4.008-4.485,21.25,9.694,22.37s23.243-5.109,23.243-5.109" transform="translate(433.05 148.542)" fill="none" stroke="#2a1e17" stroke-linecap="round" stroke-linejoin="round" stroke-width="1"/>
      <path id="Path_122863" data-name="Path 122863" d="M0,0S9.778,12.941,11.314,17.552" transform="translate(245.708 93.432)" fill="none" stroke="#2a1e17" stroke-linecap="round" stroke-linejoin="round" stroke-width="1"/>
      <path id="Path_122864" data-name="Path 122864" d="M0,9.33s6.533,5.379,19.542-1.581c4.718-2.524,1.358-8.5-4.612-7S1.867,0,1.867,0" transform="translate(611.811 257.6)" fill="none" stroke="#2a1e17" stroke-linecap="round" stroke-linejoin="round" stroke-width="1"/>
      <path id="Path_122865" data-name="Path 122865" d="M0,0S6.269,7.311,6.1,11.656" transform="translate(639.104 256.53)" fill="none" stroke="#2a1e17" stroke-linecap="round" stroke-linejoin="round" stroke-width="1"/>
      <path id="Path_122866" data-name="Path 122866" d="M0,8.068S5.666.517,12.91,0" transform="translate(546.869 247.666)" fill="none" stroke="#2a1e17" stroke-linecap="round" stroke-linejoin="round" stroke-width="1"/>
      <path id="Path_122867" data-name="Path 122867" d="M0,12.2S3.309,1.893,13.909,0" transform="translate(307.908 143.692)" fill="none" stroke="#2a1e17" stroke-linecap="round" stroke-linejoin="round" stroke-width="1"/>
      <path id="Path_122868" data-name="Path 122868" d="M43.122,0,30.477,24.191S-11.218,94.753,2.929,140.34" transform="translate(293.512 312.288)" fill="none" stroke="#2a1e17" stroke-linecap="round" stroke-linejoin="round" stroke-width="1"/>
      <path id="Path_122869" data-name="Path 122869" d="M0,194.422,41.026,124.1S94.8,46.109,100.3,35.105L119.273,0" transform="translate(373.573 198.82)" fill="none" stroke="#2a1e17" stroke-linecap="round" stroke-linejoin="round" stroke-width="1"/>
      <path id="Path_122870" data-name="Path 122870" d="M0,0S72.956,53.191,94.59,55.753" transform="translate(320.009 267.162)" fill="none" stroke="#2a1e17" stroke-linecap="round" stroke-linejoin="round" stroke-width="1"/>
      <path id="Path_122871" data-name="Path 122871" d="M0,0S-.066,33.381,8.934,47.065" transform="translate(357.937 136.236)" fill="none" stroke="#2a1e17" stroke-linecap="round" stroke-linejoin="round" stroke-width="1"/>
      <path id="Path_122872" data-name="Path 122872" d="M32.75,0C30.458,13.759,0,42.651,0,42.651" transform="translate(485.952 201.957)" fill="none" stroke="#2a1e17" stroke-linecap="round" stroke-linejoin="round" stroke-width="1"/>
      <path id="Path_122873" data-name="Path 122873" d="M8.664,4.333A4.332,4.332,0,1,1,4.331,0,4.333,4.333,0,0,1,8.664,4.333" transform="translate(287.129 364.641)" fill="#2a1e17"/>
      <path id="Path_122874" data-name="Path 122874" d="M2.394,16.571,0,0,14.132,9.4l-7.4,1.612Z" transform="translate(695.511 445.493)" fill="none" stroke="#2a1e17" stroke-linecap="round" stroke-linejoin="round" stroke-width="1"/>
      <path id="Path_122875" data-name="Path 122875" d="M26.459,4.945C-.322-18.685-44.577,40.241,117.365,227.8c93.418,108.193,166.819,117.9,176.762,80.256,17.838-67.531-46.584-84.6-22.613-58.151,34.856,38.46,134,46.586,207.882,10.695,72.9-35.414,28.089-90.412,23.563-93.62" transform="translate(202.725 174.249)" fill="none" stroke="#2a1e17" stroke-linecap="round" stroke-linejoin="round" stroke-width="1"/>
      <path id="Path_122876" data-name="Path 122876" d="M8.664,4.333A4.332,4.332,0,1,1,4.331,0,4.333,4.333,0,0,1,8.664,4.333" transform="translate(678.955 430.178)" fill="#2a1e17"/>
      <line id="Line_37" data-name="Line 37" y1="72.376" x2="128.41" transform="translate(620.249 397.492)" fill="none" stroke="#2a1e17" stroke-linecap="round" stroke-linejoin="round" stroke-width="1"/>
      <path id="Path_122877" data-name="Path 122877" d="M8.664,4.333A4.332,4.332,0,1,1,4.331,0,4.333,4.333,0,0,1,8.664,4.333" transform="translate(227.524 178.364)" fill="#2a1e17"/>
      <path id="Path_122878" data-name="Path 122878" d="M18.588,9.294A9.294,9.294,0,1,1,9.294,0a9.294,9.294,0,0,1,9.294,9.294" transform="translate(333.021 83.966)" fill="#ff6d66"/>
      <path id="Path_122879" data-name="Path 122879" d="M4.085,0A4.086,4.086,0,1,0,8.17,4.085,4.085,4.085,0,0,0,4.085,0" transform="translate(169.584 22.372)" fill="#a0c6f4"/>
      <path id="Path_122880" data-name="Path 122880" d="M8.172,4.085A4.086,4.086,0,1,1,4.087,0,4.085,4.085,0,0,1,8.172,4.085" transform="translate(717.029 521.64)" fill="#fad8b0"/>
      <path id="Path_122881" data-name="Path 122881" d="M46.544,65.253,2.622,44.641a4.56,4.56,0,0,1,.1-8.3L84.436.386A4.558,4.558,0,0,1,88.07.37L144.2,24.461Z" transform="translate(601.572 275.955)" fill="#2a1e33"/>
      <path id="Path_122882" data-name="Path 122882" d="M0,47.774c.112,18.175,2.721,67.739,2.721,67.739l97.652-40.791L98.184,5.75A5.932,5.932,0,0,0,89.8.54L5.716,38.857A9.738,9.738,0,0,0,0,47.774" transform="translate(645.395 225.695)" fill="#c6cbcb"/>
      <path id="Path_122883" data-name="Path 122883" d="M0,115.417,97.652,74.626,95.464,5.653s-.651-7.53-8.389-5.209" transform="translate(648.115 225.791)" fill="none" stroke="#2a1e17" stroke-linecap="round" stroke-linejoin="round" stroke-width="1"/>
      <line id="Line_38" data-name="Line 38" y1="15.584" x2="6.593" transform="translate(695.381 276.052)" fill="none" stroke="#2a1e17" stroke-linecap="round" stroke-linejoin="round" stroke-width="1"/>
      <line id="Line_39" data-name="Line 39" y1="15.584" x2="6.593" transform="translate(701.974 276.052)" fill="none" stroke="#2a1e17" stroke-linecap="round" stroke-linejoin="round" stroke-width="1"/>
      <path id="Path_122884" data-name="Path 122884" d="M8.172,4.085A4.086,4.086,0,1,1,4.087,0,4.085,4.085,0,0,1,8.172,4.085" transform="translate(187.195 453.455)" fill="#ff6d66"/>
      <path id="Path_122885" data-name="Path 122885" d="M11.354,5.676A5.677,5.677,0,1,1,5.678,0a5.676,5.676,0,0,1,5.676,5.676" transform="translate(530.083 472.105)" fill="#ff6d66"/>
      <path id="Path_122886" data-name="Path 122886" d="M10.533.229A121.237,121.237,0,0,0,62.123,11.29a2.324,2.324,0,0,1,2.308,2.62L60.866,42.2a2.327,2.327,0,0,1-1.883,2C51.752,45.559,22.605,49.559.8,31.07A2.321,2.321,0,0,1,.08,28.7l7.2-26.971a2.326,2.326,0,0,1,3.249-1.5" transform="translate(223.09 517.89)" fill="#fff7dc"/>
      <path id="Path_122887" data-name="Path 122887" d="M0,0S12.6,17.7,17.086,20.231,45.823,8.314,45.823,8.314" transform="translate(236.185 526.432)" fill="none" stroke="#2a1e17" stroke-linecap="round" stroke-linejoin="round" stroke-width="1"/>
      <line id="Line_40" data-name="Line 40" x2="13.23" y2="13.6" transform="translate(265.144 544.197)" fill="none" stroke="#2a1e17" stroke-linecap="round" stroke-linejoin="round" stroke-width="1"/>
      <line id="Line_41" data-name="Line 41" x1="15.475" y2="4.207" transform="translate(231.288 541.576)" fill="none" stroke="#2a1e17" stroke-linecap="round" stroke-linejoin="round" stroke-width="1"/>
      <rect id="Rectangle_224" data-name="Rectangle 224" width="14.781" height="14.781" transform="translate(623.971 183.442)" fill="#ffe1c0"/>
      <path id="Path_122888" data-name="Path 122888" d="M8.787,0l4.394,7.61,4.392,7.609H0L4.392,7.61Z" transform="translate(617.187 382.827)" fill="#a0c6f4"/>
      <path id="Path_122889" data-name="Path 122889" d="M0,43.322,1.15,8.775C1.029,5.55,2.342,4.523,4.33,4.083c9.386-2.076,37.912-8.435,68.94.737C77.279,6,77.152,8.127,77.087,10.037l-1.11,32.936c-.081,2.418-2.608,4.169-5.428,3.756C61.491,45.4,49.17,44.993,36.656,45.1c-12.928.109-24.449,1.07-32.51,2.623C1.069,48.314-.084,46.021,0,43.322Z" transform="translate(270.71 2.382)" fill="none" stroke="#2a1e17" stroke-linecap="round" stroke-linejoin="round" stroke-width="1"/>
      <path id="Path_122890" data-name="Path 122890" d="M0,21.141,18.057,0,38.049,19.731C31.155,17.486,0,21.141,0,21.141Z" transform="translate(281.157 19.513)" fill="none" stroke="#2a1e17" stroke-linecap="round" stroke-linejoin="round" stroke-width="1"/>
      <path id="Path_122891" data-name="Path 122891" d="M0,11.684,14.6,0,26.9,8.782l.461,13.728L8.922,21.627" transform="translate(310.285 17.615)" fill="none" stroke="#2a1e17" stroke-linecap="round" stroke-linejoin="round" stroke-width="1"/>
      <path id="Path_122892" data-name="Path 122892" d="M7.084,2.828A3.088,3.088,0,0,1,3.9,6.038,3.56,3.56,0,0,1,.017,3.216,3.088,3.088,0,0,1,3.205.006,3.561,3.561,0,0,1,7.084,2.828Z" transform="translate(281.933 14.577)" fill="none" stroke="#2a1e17" stroke-linecap="round" stroke-linejoin="round" stroke-width="1"/>
      <path id="Path_122893" data-name="Path 122893" d="M48.44,1.994l12.115,22.37c1.275,2,.823,3.144-.276,4.161-5.19,4.809-20.946,19.453-44.065,25.161-2.987.738-3.7-.657-4.364-1.895L.311,30.457c-.847-1.566.106-3.618,2.052-4.4A175.943,175.943,0,0,0,24.5,14.489,141.077,141.077,0,0,0,44.173.739C45.907-.781,47.493.246,48.44,1.994Z" transform="translate(571.486 492.54)" fill="none" stroke="#2a1e17" stroke-linecap="round" stroke-linejoin="round" stroke-width="1"/>
      <path id="Path_122894" data-name="Path 122894" d="M23.646,0,20.033,20.142,0,15.041C5.214,13.906,23.646,0,23.646,0Z" transform="translate(591.523 501.624)" fill="none" stroke="#2a1e17" stroke-linecap="round" stroke-linejoin="round" stroke-width="1"/>
      <path id="Path_122895" data-name="Path 122895" d="M21.407,3,16.476,15.849l-11.078-1L0,6.3,12.044,0" transform="translate(579.48 516.664)" fill="none" stroke="#2a1e17" stroke-linecap="round" stroke-linejoin="round" stroke-width="1"/>
      <path id="Path_122896" data-name="Path 122896" d="M.381,3.73A2.274,2.274,0,0,1,1.213.506a2.621,2.621,0,0,1,3.512.35A2.274,2.274,0,0,1,3.893,4.08,2.621,2.621,0,0,1,.381,3.73Z" transform="translate(618.439 515.584)" fill="none" stroke="#2a1e17" stroke-linecap="round" stroke-linejoin="round" stroke-width="1"/>
      <path id="Path_122897" data-name="Path 122897" d="M.953,15.589,50.173,53.262a2.432,2.432,0,0,0,3.434-.487L61.037,42.7a2.43,2.43,0,0,0-.438-3.342L12.076.534a2.431,2.431,0,0,0-3.489.472L.461,12.233a2.434,2.434,0,0,0,.492,3.357" transform="translate(559.998 97.052)" fill="#fff"/>
      <path id="Path_122898" data-name="Path 122898" d="M.953,15.589,50.173,53.262a2.432,2.432,0,0,0,3.434-.487L61.037,42.7a2.43,2.43,0,0,0-.438-3.342L12.076.534a2.431,2.431,0,0,0-3.489.472L.461,12.233A2.434,2.434,0,0,0,.953,15.589Z" transform="translate(559.998 97.052)" fill="none" stroke="#2a1e17" stroke-linecap="round" stroke-linejoin="round" stroke-width="1"/>
      <path id="Path_122899" data-name="Path 122899" d="M0,9.988l11.937,8.375,7.042-8.4L7.041,0Z" transform="translate(564.594 100.972)" fill="#ff6d66"/>
      <path id="Path_122900" data-name="Path 122900" d="M0,8.162l11.952,9.482,6.406-7.881L6.327,0Z" transform="translate(581.024 114.44)" fill="#fad8b0"/>
      <path id="Path_122901" data-name="Path 122901" d="M0,8.392l11.937,8.375,5.684-7.3L6.315,0Z" transform="translate(596.996 127.336)" fill="#a0c6f4"/>
      <path id="Path_122902" data-name="Path 122902" d="M.026,7.235l11.215,94.253a3.723,3.723,0,0,0,4.2,3.249l18.991-2.6a3.724,3.724,0,0,0,3.2-4.049L28.43,3.363A3.724,3.724,0,0,0,24.186.04l-21,3.073A3.721,3.721,0,0,0,.026,7.235" transform="translate(659.132 52.74)" fill="#fff"/>
      <path id="Path_122903" data-name="Path 122903" d="M.026,7.235l11.215,94.253a3.723,3.723,0,0,0,4.2,3.249l18.991-2.6a3.724,3.724,0,0,0,3.2-4.049L28.43,3.363A3.724,3.724,0,0,0,24.186.04l-21,3.073A3.721,3.721,0,0,0,.026,7.235Z" transform="translate(659.132 52.74)" fill="none" stroke="#2a1e17" stroke-linecap="round" stroke-linejoin="round" stroke-width="1"/>
      <path id="Path_122904" data-name="Path 122904" d="M0,2.939,3.555,24.984,20.3,23.738,18.482,0Z" transform="translate(664.895 59.239)" fill="#ff6d66"/>
      <path id="Path_122905" data-name="Path 122905" d="M0,1.771,2.356,25.015l15.492-1.386L15.715,0Z" transform="translate(669.663 90.872)" fill="#91ba83"/>
      <path id="Path_122906" data-name="Path 122906" d="M0,2.03,3.555,24.075l14.089-1.561L15.954,0Z" transform="translate(672.314 122.161)" fill="#fad8b0"/>
      <path id="Path_122907" data-name="Path 122907" d="M.159,11.823l31.06,91.3a2.96,2.96,0,0,0,3.806,1.832l19.453-7a2.961,2.961,0,0,0,1.82-3.68L27.133,2.07A2.96,2.96,0,0,0,23.281.186L1.934,8.092A2.963,2.963,0,0,0,.159,11.823" transform="translate(634.515 68.218)" fill="#fff"/>
      <path id="Path_122908" data-name="Path 122908" d="M.159,11.823l31.06,91.3a2.96,2.96,0,0,0,3.806,1.832l19.453-7a2.961,2.961,0,0,0,1.82-3.68L27.133,2.07A2.96,2.96,0,0,0,23.281.186L1.934,8.092A2.963,2.963,0,0,0,.159,11.823Z" transform="translate(634.515 68.218)" fill="none" stroke="#2a1e17" stroke-linecap="round" stroke-linejoin="round" stroke-width="1"/>
      <path id="Path_122909" data-name="Path 122909" d="M0,6.718,8.061,27.543l16.121-4.7L17.466,0Z" transform="translate(640.982 74.987)" fill="#a0c6f4"/>
      <path id="Path_122910" data-name="Path 122910" d="M0,5,7.138,27.247,22,22.669,15,0Z" transform="translate(651.982 105.513)" fill="#f9865f"/>
      <path id="Path_122911" data-name="Path 122911" d="M0,5.3,8.061,26.127,21.518,21.67,15.185,0Z" transform="translate(661.135 135.518)" fill="#fad8b0"/>
      <path id="Path_122912" data-name="Path 122912" d="M165.9,39.332H9.059A9.06,9.06,0,0,1,0,30.273V9.059A9.061,9.061,0,0,1,9.059,0H165.9a9.06,9.06,0,0,1,9.059,9.059V30.273a9.059,9.059,0,0,1-9.059,9.059" transform="translate(234.698 195.357)" fill="#7595ec"/>
      <path id="Path_122913" data-name="Path 122913" d="M88.5,5.985H2.992A2.992,2.992,0,0,1,2.992,0H88.5a2.992,2.992,0,1,1,0,5.985" transform="translate(253.34 206.937)" fill="#fff"/>
      <line id="Line_42" data-name="Line 42" x2="145.357" transform="translate(254.195 220.676)" fill="none" stroke="#2a1e17" stroke-linecap="round" stroke-linejoin="round" stroke-width="1"/>
      <path id="Path_122914" data-name="Path 122914" d="M10.67,2.711,8.194,0,0,7.483l2.476,2.711a2.8,2.8,0,0,0,3.961.18l4.054-3.7a2.8,2.8,0,0,0,.178-3.96" transform="translate(171.634 121.372)" fill="#91ba83"/>
      <path id="Rectangle_225" data-name="Rectangle 225" d="M.979,0H13.173a.981.981,0,0,1,.981.981V19.553a.979.979,0,0,1-.979.979H.98a.98.98,0,0,1-.98-.98V.979A.979.979,0,0,1,.979,0Z" transform="translate(156.475 114.894) rotate(-42.41)" fill="none" stroke="#2a1e17" stroke-linecap="round" stroke-linejoin="round" stroke-width="1"/>
      <rect id="Rectangle_226" data-name="Rectangle 226" width="14.654" height="13.381" transform="translate(130.726 174.115)" fill="#ff6d66"/>
      <path id="Path_122915" data-name="Path 122915" d="M8.765,0V8.61H0" transform="translate(121.959 165.506)" fill="none" stroke="#2a1e17" stroke-linecap="round" stroke-linejoin="round" stroke-width="1"/>
      <rect id="Rectangle_227" data-name="Rectangle 227" width="14.654" height="13.381" transform="translate(613.501 23.015)" fill="#fad8b0"/>
      <path id="Path_122916" data-name="Path 122916" d="M8.765,0V8.61H0" transform="translate(604.735 14.404)" fill="none" stroke="#2a1e17" stroke-linecap="round" stroke-linejoin="round" stroke-width="1"/>
      <path id="Path_122917" data-name="Path 122917" d="M157.662,16.8C5.744-46.178-111.21,75.106,175.161,260.828c22.551,14.625,57.132,19.755,57.132,19.755" transform="translate(59.23 88.925)" fill="none" stroke="#2a1e17" stroke-linecap="round" stroke-linejoin="round" stroke-width="1"/>
      <path id="Path_122918" data-name="Path 122918" d="M8.664,4.333A4.332,4.332,0,1,1,4.331,0,4.333,4.333,0,0,1,8.664,4.333" transform="translate(72.837 105.623)" fill="#2a1e17"/>
      <path id="Path_122919" data-name="Path 122919" d="M0,4.551,4.741,0l10.9,6.236,5.478,16.9-16.729-7Z" transform="translate(49.602 81.629)" fill="none" stroke="#2a1e17" stroke-linecap="round" stroke-linejoin="round" stroke-width="1"/>
      <path id="Path_122920" data-name="Path 122920" d="M7.4,3.035,2.655,7.586,0,4.363,4.551,0Z" transform="translate(46.947 78.594)" fill="none" stroke="#2a1e17" stroke-linecap="round" stroke-linejoin="round" stroke-width="1"/>
      <line id="Line_43" data-name="Line 43" x1="10.878" y1="11.952" transform="translate(59.841 92.815)" fill="none" stroke="#2a1e17" stroke-linecap="round" stroke-linejoin="round" stroke-width="1"/>
      <path id="Path_122921" data-name="Path 122921" d="M.045,5.9,11.853,66.744a2.433,2.433,0,0,0,2.893,1.916l12.242-2.6a2.43,2.43,0,0,0,1.891-2.79L18.358,2.02A2.432,2.432,0,0,0,15.434.059l-13.529,3A2.43,2.43,0,0,0,.045,5.9" transform="translate(97.008 402.132)" fill="#fff"/>
      <path id="Path_122922" data-name="Path 122922" d="M.045,5.9,11.853,66.744a2.433,2.433,0,0,0,2.893,1.916l12.242-2.6a2.43,2.43,0,0,0,1.891-2.79L18.358,2.02A2.432,2.432,0,0,0,15.434.059l-13.529,3A2.43,2.43,0,0,0,.045,5.9Z" transform="translate(97.008 402.132)" fill="none" stroke="#2a1e17" stroke-linecap="round" stroke-linejoin="round" stroke-width="1"/>
      <path id="Path_122923" data-name="Path 122923" d="M0,2.8,3.368,16.984l10.847-1.612L11.9,0Z" transform="translate(100.893 406.394)" fill="#ff6d66"/>
      <path id="Path_122924" data-name="Path 122924" d="M0,1.9,2.645,16.931l10.024-1.644L10.149,0Z" transform="translate(105.454 426.899)" fill="#fad8b0"/>
      <path id="Path_122925" data-name="Path 122925" d="M0,2.085,3.368,16.272l9.1-1.69L10.293,0Z" transform="translate(108.688 447.138)" fill="#a0c6f4"/>
      <path id="Path_122926" data-name="Path 122926" d="M0,13.359,49.9,0l1.9,5.408L1.341,18.508Z" transform="translate(435.177 547.166)" fill="none" stroke="#2a1e17" stroke-linecap="round" stroke-linejoin="round" stroke-width="1"/>
      <line id="Line_44" data-name="Line 44" x2="1.439" y2="4.531" transform="translate(428.253 553.547)" fill="none" stroke="#2a1e17" stroke-linecap="round" stroke-linejoin="round" stroke-width="1"/>
      <line id="Line_45" data-name="Line 45" y1="1.447" x2="4.211" transform="translate(426.847 555.054)" fill="none" stroke="#2a1e17" stroke-linecap="round" stroke-linejoin="round" stroke-width="1"/>
      <line id="Line_46" data-name="Line 46" x2="2.716" y2="8.547" transform="translate(425.831 570.848)" fill="none" stroke="#2a1e17" stroke-linecap="round" stroke-linejoin="round" stroke-width="1"/>
      <line id="Line_47" data-name="Line 47" y1="2.382" x2="7.498" transform="translate(423.519 573.885)" fill="none" stroke="#2a1e17" stroke-linecap="round" stroke-linejoin="round" stroke-width="1"/>
      <line id="Line_48" data-name="Line 48" x2="3.542" y2="11.319" transform="translate(414.428 556.742)" fill="none" stroke="#2a1e17" stroke-linecap="round" stroke-linejoin="round" stroke-width="1"/>
      <line id="Line_49" data-name="Line 49" y1="3.355" x2="10.508" transform="translate(410.907 560.437)" fill="none" stroke="#2a1e17" stroke-linecap="round" stroke-linejoin="round" stroke-width="1"/>
      <path id="Path_122927" data-name="Path 122927" d="M31.58,17.871,0,3.616,1.308,0,33.07,14.628Z" transform="translate(39.74 0.555)" fill="none" stroke="#2a1e17" stroke-linecap="round" stroke-linejoin="round" stroke-width="0.671"/>
      <line id="Line_50" data-name="Line 50" y1="2.964" x2="1.176" transform="translate(71.95 22.025)" fill="none" stroke="#2a1e17" stroke-linecap="round" stroke-linejoin="round" stroke-width="0.671"/>
      <line id="Line_51" data-name="Line 51" x1="2.8" y1="1.037" transform="translate(71.135 23.014)" fill="none" stroke="#2a1e17" stroke-linecap="round" stroke-linejoin="round" stroke-width="0.671"/>
      <line id="Line_52" data-name="Line 52" y1="5.59" x2="2.22" transform="translate(80.555 11.445)" fill="none" stroke="#2a1e17" stroke-linecap="round" stroke-linejoin="round" stroke-width="0.671"/>
      <line id="Line_53" data-name="Line 53" x1="4.905" y1="1.948" transform="translate(79.152 13.256)" fill="none" stroke="#2a1e17" stroke-linecap="round" stroke-linejoin="round" stroke-width="0.671"/>
      <line id="Line_54" data-name="Line 54" y1="7.381" x2="2.969" transform="translate(80.485 21.82)" fill="none" stroke="#2a1e17" stroke-linecap="round" stroke-linejoin="round" stroke-width="0.671"/>
      <line id="Line_55" data-name="Line 55" x1="6.88" y1="2.721" transform="translate(78.425 24.315)" fill="none" stroke="#2a1e17" stroke-linecap="round" stroke-linejoin="round" stroke-width="0.671"/>
      <path id="Path_122928" data-name="Path 122928" d="M36.854,70.387C14.594,54.362-7.274,29.458,2.319,3.876c0,0,15.35-10.234,39.651,2.557l24.3,12.791Z" transform="translate(152.477 214.729)" fill="#fad8b0"/>
      <path id="Path_122929" data-name="Path 122929" d="M61.467,161.8c-10.014-4.733-52.779-27-60.39-65.038C-5.5,63.885,19.64,19.572,32.231,0c-.808,25.985,25.286,47.98,37.875,57.046,12.756,9.181,22.138,13.673,35.075,18.531Z" transform="translate(117.774 230.083)" fill="#fff"/>
      <path id="Path_122930" data-name="Path 122930" d="M32.795,19.209C35.525,36.48,48.706,54.383,71.139,70.534a134.24,134.24,0,0,0,33.067,17.857l-41.373,81.6c-12.606-6.272-49.9-27.521-56.846-62.236C.215,78.89,19.782,40.611,32.795,19.209M39.5,0S-7.826,63.955,1.127,108.722s63.955,67.792,63.955,67.792L111.128,85.7c-14.388-5.276-23.737-9.571-37.092-19.187C51.775,50.486,29.907,25.582,39.5,0" transform="translate(115.296 218.603)" fill="#fad8b0"/>
      <path id="Path_122931" data-name="Path 122931" d="M0,0A54.879,54.879,0,0,0,28.443,39.455" transform="translate(142.35 255.77)" fill="none" stroke="#2a1e17" stroke-linecap="round" stroke-linejoin="round" stroke-width="1"/>
      <line id="Line_56" data-name="Line 56" x2="25.691" y2="13.762" transform="translate(184.557 304.399)" fill="none" stroke="#2a1e17" stroke-linecap="round" stroke-linejoin="round" stroke-width="1"/>
      <path id="Path_122932" data-name="Path 122932" d="M0,0S8.258,18.351,34.866,30.278" transform="translate(146.021 292.471)" fill="none" stroke="#2a1e17" stroke-linecap="round" stroke-linejoin="round" stroke-width="1"/>
      <path id="Path_122933" data-name="Path 122933" d="M0,0S.917,19.268,13.762,25.691" transform="translate(124.917 295.223)" fill="none" stroke="#2a1e17" stroke-linecap="round" stroke-linejoin="round" stroke-width="1"/>
      <path id="Path_122934" data-name="Path 122934" d="M.03,0S-2.35,24.744,35.083,56.873" transform="translate(154.249 228.244)" fill="none" stroke="#2a1e17" stroke-linecap="round" stroke-linejoin="round" stroke-width="1"/>
      <path id="Path_122935" data-name="Path 122935" d="M0,.014S11.929-.9,29.361,11.943" transform="translate(168.041 232.817)" fill="none" stroke="#2a1e17" stroke-linecap="round" stroke-linejoin="round" stroke-width="1"/>
      <path id="Path_122936" data-name="Path 122936" d="M.109,0C-.658,12.271.875,56.754,65.3,85.131" transform="translate(111.839 311.837)" fill="none" stroke="#2a1e17" stroke-linecap="round" stroke-linejoin="round" stroke-width="1"/>
      <path id="Path_122937" data-name="Path 122937" d="M27.326,0,0,54.765s18.535,6.821,4.046,28.068c0,0,34.256,14.2,56.671-22.693S27.326,0,27.326,0" transform="translate(496.002 287.089)" fill="#91ba83"/>
      <path id="Path_122938" data-name="Path 122938" d="M43.411,101.471c-13.83,0-28.425-5.646-43.411-16.79L51.121,0,81.526,19.146l.193.081A47,47,0,0,0,98.32,22.1a45.831,45.831,0,0,0,26.821-8.476L87.772,77.555c-.086.126-16.174,23.915-44.361,23.917" transform="translate(417.38 352.985)" fill="#fff"/>
      <path id="Path_122939" data-name="Path 122939" d="M55.211,9.2,83.3,26.885l.355.225.388.16A49.72,49.72,0,0,0,101.6,30.336a48.753,48.753,0,0,0,20-4.194l-32.6,55.779c-1.066,1.551-16.2,22.828-42.3,22.828-12.733,0-26.211-5.035-40.114-14.975Zm87.4-9.2C129.948,20.847,113.506,25.38,101.6,25.38a44.74,44.74,0,0,1-15.654-2.688L53.577,2.313,0,91.066C17.942,104.9,33.59,109.7,46.684,109.7c29.933,0,46.5-25.144,46.5-25.144Z" transform="translate(414.106 347.229)" fill="#96bd89"/>
      <path id="Path_122940" data-name="Path 122940" d="M0,0S20.382,7.2,4.046,28.068" transform="translate(496.002 341.854)" fill="none" stroke="#2a1e17" stroke-linecap="round" stroke-linejoin="round" stroke-width="1"/>
      <path id="Path_122941" data-name="Path 122941" d="M0,0S27.762,25.43,43.132,25.258,76.521,21.427,87.153,3.094" transform="translate(467.051 347.639)" fill="none" stroke="#2a1e17" stroke-linecap="round" stroke-linejoin="round" stroke-width="1"/>
      <path id="Path_122942" data-name="Path 122942" d="M0,0S19.055,16.922,40.365,11.486" transform="translate(470.457 380.537)" fill="none" stroke="#2a1e17" stroke-linecap="round" stroke-linejoin="round" stroke-width="1"/>
      <path id="Path_122943" data-name="Path 122943" d="M0,0S10,7.493,23.973.406" transform="translate(490.472 405.823)" fill="none" stroke="#2a1e17" stroke-linecap="round" stroke-linejoin="round" stroke-width="1"/>
      <path id="Path_122944" data-name="Path 122944" d="M0,0S23.069,22.942,59.384,7.809" transform="translate(444.479 416.25)" fill="none" stroke="#2a1e17" stroke-linecap="round" stroke-linejoin="round" stroke-width="1"/>
      <path id="Path_122945" data-name="Path 122945" d="M0,0S9.413,6.73,15.308,8.877" transform="translate(457.032 393.875)" fill="none" stroke="#2a1e17" stroke-linecap="round" stroke-linejoin="round" stroke-width="1"/>
      <path id="Path_122946" data-name="Path 122946" d="M0,0S21.062,6.889,23.585,34.679" transform="translate(528.022 302.984)" fill="none" stroke="#2a1e17" stroke-linecap="round" stroke-linejoin="round" stroke-width="1"/>
      <path id="Path_122947" data-name="Path 122947" d="M6.692,0S16.389,15,0,30.011" transform="translate(531.917 337.328)" fill="none" stroke="#2a1e17" stroke-linecap="round" stroke-linejoin="round" stroke-width="1"/>
      <path id="Path_122948" data-name="Path 122948" d="M0,7.67S52.885,52.964,91.268,0" transform="translate(416.059 434.813)" fill="none" stroke="#2a1e17" stroke-linecap="round" stroke-linejoin="round" stroke-width="1"/>
      <line id="Line_57" data-name="Line 57" x2="12.328" transform="translate(34.322 269.994)" fill="none" stroke="#ff6d66" stroke-linecap="round" stroke-linejoin="round" stroke-width="1"/>
      <line id="Line_58" data-name="Line 58" x2="12.328" transform="translate(721.115 121.706)" fill="none" stroke="#ff6d66" stroke-linecap="round" stroke-linejoin="round" stroke-width="1"/>
      <line id="Line_59" data-name="Line 59" x2="12.328" transform="translate(390.489 37.116)" fill="none" stroke="#fad8b0" stroke-width="1"/>
      <line id="Line_60" data-name="Line 60" x2="12.135" y2="2.181" transform="translate(744.653 185.653)" fill="none" stroke="#fad8b0" stroke-width="1"/>
      <line id="Line_61" data-name="Line 61" x2="12.328" transform="translate(260.351 493.284)" fill="none" stroke="#a0c6f4" stroke-linecap="round" stroke-linejoin="round" stroke-width="1"/>
      <path id="Path_122949" data-name="Path 122949" d="M8.172,4.085A4.086,4.086,0,1,1,4.087,0,4.085,4.085,0,0,1,8.172,4.085" transform="translate(767.129 335.509)" fill="#91ba83"/>
      <path id="Path_122950" data-name="Path 122950" d="M8.172,4.085A4.086,4.086,0,1,1,4.087,0,4.085,4.085,0,0,1,8.172,4.085" transform="translate(-0.002 139.55)" fill="#91ba83"/>
      <path id="Path_122951" data-name="Path 122951" d="M3.026,8.464A4.333,4.333,0,1,1,8.464,5.641,4.333,4.333,0,0,1,3.026,8.464" transform="translate(814.392 598.305)" fill="#2a1e17"/>
      <path id="Path_122952" data-name="Path 122952" d="M319.034,60.4s34.015-101.283-118.057-41.53C42.874,80.988-20.269,211.246,5.633,221.526s64.482-12.913,64.482-12.913" transform="translate(747.509 394.409)" fill="none" stroke="#2a1e17" stroke-linecap="round" stroke-linejoin="round" stroke-width="1"/>
    </g>
  </g>
</svg>
