<svg id="Group_88299" data-name="Group 88299" xmlns="http://www.w3.org/2000/svg" xmlns:xlink="http://www.w3.org/1999/xlink" width="494.539" height="343.938" viewBox="0 0 494.539 343.938">
  <defs>
    <clipPath id="clip-path">
      <rect id="Rectangle_517" data-name="Rectangle 517" width="494.539" height="343.938" transform="translate(0 0)" fill="none"/>
    </clipPath>
  </defs>
  <g id="Group_88298" data-name="Group 88298" transform="translate(0 0)" clip-path="url(#clip-path)">
    <path id="Path_123696" data-name="Path 123696" d="M1333.14,197.33a7.692,7.692,0,1,1-7.692-7.692,7.692,7.692,0,0,1,7.692,7.692" transform="translate(-993.915 -143.035)" fill="#50bfa5"/>
    <path id="Path_123697" data-name="Path 123697" d="M1180.262,144.773c24.53,17.028,55.282,15.345,69.4-3.565l-90.321-62.7c-12.781,19.836-3.606,49.235,20.924,66.264" transform="translate(-870.088 -59.216)" fill="#96d9c9"/>
    <path id="Path_123698" data-name="Path 123698" d="M1257.613,336.52a4.966,4.966,0,1,1-4.966-4.966,4.966,4.966,0,0,1,4.966,4.966" transform="translate(-941.061 -250.075)" fill="#50bfa5"/>
    <path id="Path_123699" data-name="Path 123699" d="M1206.427,398.946l-1.936-.4,11.4-55.151h6.819v55.351h-1.977V345.372H1217.5Z" transform="translate(-908.485 -259.007)" fill="#50bfa5"/>
    <path id="Path_123700" data-name="Path 123700" d="M395.842,927.011H460.99a7.449,7.449,0,0,0,7.449-7.449V782.967a7.449,7.449,0,0,0-7.449-7.449H395.842a7.449,7.449,0,0,0-7.449,7.449V919.562a7.449,7.449,0,0,0,7.449,7.449" transform="translate(-292.945 -584.934)" fill="#184655"/>
    <path id="Path_123701" data-name="Path 123701" d="M480.08,923.363V808.608a7.121,7.121,0,0,0-7.121-7.121H416.083a7.121,7.121,0,0,0-7.121,7.121V923.363a7.121,7.121,0,0,0,7.121,7.121h56.875a7.121,7.121,0,0,0,7.121-7.121" transform="translate(-308.459 -604.521)" fill="#96d9c9"/>
    <path id="Path_123702" data-name="Path 123702" d="M520.148,1344.889c0,2.873-7.251,5.2-16.2,5.2s-16.195-2.329-16.195-5.2,7.251-5.2,16.195-5.2,16.2,2.329,16.2,5.2" transform="translate(-367.891 -1010.458)" fill="#13375b"/>
    <path id="Path_123703" data-name="Path 123703" d="M505.015,903.1H469.667a3.986,3.986,0,0,1-3.986-3.986V874.758a3.986,3.986,0,0,1,3.986-3.986h35.348A3.986,3.986,0,0,1,509,874.758v24.357a3.986,3.986,0,0,1-3.986,3.986" transform="translate(-351.239 -656.779)" fill="#b75742"/>
    <rect id="Rectangle_484" data-name="Rectangle 484" width="60.673" height="1.764" transform="translate(106.288 262.788)" fill="#184655"/>
    <path id="Path_123704" data-name="Path 123704" d="M498.395,1058.989h-.281a2.269,2.269,0,0,1-2.268-2.268v-10.709a2.268,2.268,0,0,1,2.268-2.268h.281a2.268,2.268,0,0,1,2.269,2.268v10.709a2.269,2.269,0,0,1-2.269,2.268" transform="translate(-373.99 -787.242)" fill="#355389"/>
    <path id="Path_123705" data-name="Path 123705" d="M545.448,907.879l-10.258-5.923a2.663,2.663,0,0,0-3.994,2.306v11.845a2.663,2.663,0,0,0,3.994,2.306l10.258-5.923a2.662,2.662,0,0,0,0-4.612" transform="translate(-400.654 -680.028)" fill="#fff"/>
    <path id="Path_123706" data-name="Path 123706" d="M943.258,712.109H679.846a15.03,15.03,0,0,1-15.03-15.03V503.158a15.03,15.03,0,0,1,15.03-15.03H943.258a15.03,15.03,0,0,1,15.03,15.03V697.079a15.03,15.03,0,0,1-15.03,15.03" transform="translate(-501.436 -368.171)" fill="#466eb6"/>
    <path id="Path_123707" data-name="Path 123707" d="M965.366,721.5H698.9a7.921,7.921,0,0,1-7.921-7.921V517.452a7.921,7.921,0,0,1,7.921-7.922H965.366a7.921,7.921,0,0,1,7.921,7.922V713.583a7.921,7.921,0,0,1-7.921,7.921" transform="translate(-521.169 -384.313)" fill="#184655"/>
    <path id="Path_123708" data-name="Path 123708" d="M664.817,1344.635v7.6c0,3.254,6.993,5.891,15.619,5.891H980.358c8.626,0,15.619-2.638,15.619-5.891v-7.6Z" transform="translate(-501.437 -1014.19)" fill="#355389"/>
    <rect id="Rectangle_485" data-name="Rectangle 485" width="244.113" height="181.887" transform="translate(189.27 132.548)" fill="#50bfa5"/>
    <rect id="Rectangle_486" data-name="Rectangle 486" width="221.261" height="14.033" transform="translate(202.193 139.115)" fill="#fff"/>
    <rect id="Rectangle_487" data-name="Rectangle 487" width="95.58" height="2.993" transform="translate(210.403 166.214)" fill="#96d9c9"/>
    <rect id="Rectangle_488" data-name="Rectangle 488" width="88.956" height="2.993" transform="translate(326.74 166.214)" fill="#96d9c9"/>
    <rect id="Rectangle_489" data-name="Rectangle 489" width="95.58" height="2.993" transform="translate(210.403 173.782)" fill="#96d9c9"/>
    <rect id="Rectangle_490" data-name="Rectangle 490" width="88.956" height="2.993" transform="translate(326.74 173.782)" fill="#96d9c9"/>
    <rect id="Rectangle_491" data-name="Rectangle 491" width="95.58" height="2.993" transform="translate(210.403 181.35)" fill="#96d9c9"/>
    <rect id="Rectangle_492" data-name="Rectangle 492" width="88.956" height="2.993" transform="translate(326.74 181.35)" fill="#96d9c9"/>
    <rect id="Rectangle_493" data-name="Rectangle 493" width="95.58" height="2.993" transform="translate(210.403 188.917)" fill="#96d9c9"/>
    <rect id="Rectangle_494" data-name="Rectangle 494" width="88.956" height="2.993" transform="translate(326.74 188.917)" fill="#96d9c9"/>
    <rect id="Rectangle_495" data-name="Rectangle 495" width="88.956" height="2.993" transform="translate(326.74 196.485)" fill="#96d9c9"/>
    <rect id="Rectangle_496" data-name="Rectangle 496" width="95.58" height="2.993" transform="translate(210.403 196.485)" fill="#96d9c9"/>
    <rect id="Rectangle_497" data-name="Rectangle 497" width="95.58" height="2.993" transform="translate(210.403 204.054)" fill="#96d9c9"/>
    <rect id="Rectangle_498" data-name="Rectangle 498" width="88.956" height="2.993" transform="translate(326.74 204.054)" fill="#96d9c9"/>
    <rect id="Rectangle_499" data-name="Rectangle 499" width="95.58" height="2.993" transform="translate(210.403 211.621)" fill="#96d9c9"/>
    <rect id="Rectangle_500" data-name="Rectangle 500" width="88.956" height="2.993" transform="translate(326.74 211.621)" fill="#96d9c9"/>
    <rect id="Rectangle_501" data-name="Rectangle 501" width="95.58" height="2.993" transform="translate(210.403 219.189)" fill="#96d9c9"/>
    <rect id="Rectangle_502" data-name="Rectangle 502" width="88.956" height="2.993" transform="translate(326.74 219.189)" fill="#96d9c9"/>
    <rect id="Rectangle_503" data-name="Rectangle 503" width="95.58" height="2.993" transform="translate(210.403 226.757)" fill="#96d9c9"/>
    <rect id="Rectangle_504" data-name="Rectangle 504" width="88.956" height="2.993" transform="translate(326.74 226.757)" fill="#96d9c9"/>
    <rect id="Rectangle_505" data-name="Rectangle 505" width="95.58" height="2.993" transform="translate(210.403 234.325)" fill="#96d9c9"/>
    <rect id="Rectangle_506" data-name="Rectangle 506" width="88.956" height="2.993" transform="translate(326.74 234.325)" fill="#96d9c9"/>
    <rect id="Rectangle_507" data-name="Rectangle 507" width="88.956" height="2.993" transform="translate(326.74 241.893)" fill="#96d9c9"/>
    <rect id="Rectangle_508" data-name="Rectangle 508" width="95.58" height="2.993" transform="translate(210.403 241.893)" fill="#96d9c9"/>
    <rect id="Rectangle_509" data-name="Rectangle 509" width="95.58" height="2.993" transform="translate(210.403 249.461)" fill="#96d9c9"/>
    <rect id="Rectangle_510" data-name="Rectangle 510" width="88.956" height="2.993" transform="translate(326.74 249.461)" fill="#96d9c9"/>
    <rect id="Rectangle_511" data-name="Rectangle 511" width="88.956" height="2.993" transform="translate(326.74 257.029)" fill="#96d9c9"/>
    <rect id="Rectangle_512" data-name="Rectangle 512" width="95.58" height="2.993" transform="translate(210.403 257.029)" fill="#96d9c9"/>
    <path id="Path_123709" data-name="Path 123709" d="M617.552,127.291s4.943.97,4.813,2.459c-.068.782-.5,2.8-.5,2.8l2.38,7.218-5.48,1.085s-.793-5.211-1.926-6.554c-.2-.24-.614-.2-.952-.487a15.151,15.151,0,0,1-2.978-3.722c-.625-2.215,4.638-2.8,4.638-2.8" transform="translate(-462.25 -96.01)" fill="#f7a491"/>
    <path id="Path_123710" data-name="Path 123710" d="M616.076,131.284l-.741.433a5.093,5.093,0,0,1,2.255.618,15.142,15.142,0,0,1,1.472.8,6.064,6.064,0,0,1,1.308-.741,19.683,19.683,0,0,1,2.965-.826c1.443-.319-3.088-2.108-3.088-2.108Z" transform="translate(-464.115 -97.647)" fill="#f48c7f"/>
    <path id="Path_123711" data-name="Path 123711" d="M571.943,165.346a.8.8,0,0,1-.594-.263l-82.887-91.15L328.336,1.539A.8.8,0,0,1,329,.076L489.426,72.607l.112.123,83,91.273a.8.8,0,0,1-.594,1.344" transform="translate(-247.291 -0.004)" fill="#13375b"/>
    <path id="Path_123712" data-name="Path 123712" d="M424.46,40.6s-.081,4.127.491,5.508c.3.726,1.767,3.771,1.767,3.771l.514,7.558,5.663-.661s-1.82-5.471-1.144-7.093a17.08,17.08,0,0,0,.873-4.642c-.071-2.3-8.164-4.441-8.164-4.441" transform="translate(-320.145 -30.624)" fill="#f7a491"/>
    <path id="Path_123713" data-name="Path 123713" d="M530.253,158.78s-2.944-3.1-5.312.672a2.354,2.354,0,0,0-3.1.8s-3.3-.992-4.1,3.936c0,0-1.7-.32-1.92,1.7a4.989,4.989,0,0,0,.8,3.36s-.953.714-.52,2.568a2.293,2.293,0,0,0,1.672,1.816s.352,2.656,1.5,3.456a3.755,3.755,0,0,0,2.72.416,1.776,1.776,0,0,0,1.76,1.312c1.344-.128,3.008-1.408,4.512-.832s5.408-.032,5.408-.032,4.384-1.952,3.072-6.432a3.276,3.276,0,0,0,.288-4.576s1.472-3.9-1.44-6.208-5.344-1.952-5.344-1.952" transform="translate(-389.033 -118.855)" fill="#07345a"/>
    <path id="Path_123714" data-name="Path 123714" d="M409.949,605.421a44.17,44.17,0,0,1-5.917-.993c-.841-.413-5.1,3.656-4.257,5.7.476,1.15,1.982,1,1.982,1l1.217-1.188,6.441,1.343Z" transform="translate(-301.447 -455.868)" fill="#f7a491"/>
    <path id="Path_123715" data-name="Path 123715" d="M548.449,695.59a44.191,44.191,0,0,1-3.4,4.941c-.73.587,1.155,6.17,3.361,6.267,1.244.055,1.747-1.371,1.747-1.371l-.562-1.605,3.942-5.268Z" transform="translate(-410.98 -524.648)" fill="#f7a491"/>
    <path id="Path_123716" data-name="Path 123716" d="M530.411,715a33.8,33.8,0,0,0,2.373,2.737,28.237,28.237,0,0,0,2.466,1.989s1.569,2.847,2,3.841c.955,2.212,2.026,4.676,1.872,5.914-.05.4-.943.818-1.687.589-3.1-.953-11.019-8.2-12.019-10.143-1.154-2.243,5-4.927,5-4.927" transform="translate(-396.184 -539.288)" fill="#07345a"/>
    <path id="Path_123717" data-name="Path 123717" d="M570.145,438.27c-.288-.805-.564-1.55-.83-2.251-3.295.719-7.017,1.51-10.845,2.326L558,452.378c0-1.084,2.878,22.382,2.878,22.382s-7.821,15.534-12.909,25.134a20.633,20.633,0,0,0,6.717,5.522c7.9-9.469,17.992-26.157,18.421-29.039.247-1.658.469-28.445-2.965-38.107" transform="translate(-413.308 -328.868)" fill="#b75742"/>
    <path id="Path_123718" data-name="Path 123718" d="M449.476,449.467c.9,9.728,2.377,24.453,2.647,29.408-6.289.907-21.148,5.376-23.918,5.371-1.048,2.349-1.629,5.2-.9,7.543.143.463,29.312,1.391,36.841-3.413,1.964-1.253,2.569-14.689,2.6-28.858l.466-14.033c-6.378,1.36-12.244,2.693-17.734,3.983" transform="translate(-322.048 -336.007)" fill="#f47458"/>
    <path id="Path_123719" data-name="Path 123719" d="M536.865,258.87l-7.158,1.079s-5.395.084-6.835.1c-.125,0-5.74,27.392-7.105,37.7s-.308,12.133-.308,12.133,9.52,2.141,16.563,1.517c7.324-.649,15.564-4.6,15.564-4.6s-6.458-19.26-7.7-25.445-3.022-22.478-3.022-22.478" transform="translate(-388.49 -195.253)" fill="#fff"/>
    <path id="Path_123720" data-name="Path 123720" d="M594.949,166.329s7.112,21.027,6.342,22.589c-1.12,2.272-15.05,9.312-15.05,9.312s5.73,22.8,8.261,31.505c.255.877,1.384,6.538,1.384,7.091,0,1.224-5.328,2.778-5.961,2.686-.566-.083-6.164-23.837-9.132-35.569-1.006-3.976-1.782-7.954-4.142-11.308l-2.064-2.933s4.152-1.5,6.007-2.1c2.762-.9,12.089-4.408,12.089-4.408s-3.276-14.83-3.542-16.247c-.071-.377,5.039-2.058,5.807-.618" transform="translate(-433.382 -125.022)" fill="#13375b"/>
    <path id="Path_123721" data-name="Path 123721" d="M458.823,142.2s-10.176-15.067-13.009-20.414c-2.32-4.379-7.554-17.528-7.75-18.245s-6.074-1.353-7.883-.531c-.487.221,4.812,17.718,7,23.426,2.018,5.272,9.187,20.627,9.187,20.627s4.134,9.432,3.489,16.721c-1.071,12.105-3.195,29.549-2.677,30.072,3.209,2.022,13.311,1.949,14.091.693,8.611-13.868-2.445-52.348-2.445-52.348" transform="translate(-324.44 -77.406)" fill="#13375b"/>
    <path id="Path_123722" data-name="Path 123722" d="M553.161,229.1l.533,3.954s1.194,5.7-.342,6.794-6.531-6.956-6.531-6.956l.528-10.018Z" transform="translate(-412.439 -168.104)" fill="#f7a491"/>
    <path id="Path_123723" data-name="Path 123723" d="M548.274,226.122a11.366,11.366,0,0,0,6.435,6.332l-.452-3.352-5.813-6.227Z" transform="translate(-413.535 -168.104)" fill="#f47458"/>
    <path id="Path_123724" data-name="Path 123724" d="M515.708,186.689c0,1.526.868,2.763,1.938,2.763s1.938-1.237,1.938-2.763-.868-2.763-1.938-2.763-1.938,1.237-1.938,2.763" transform="translate(-388.972 -138.727)" fill="#07345a"/>
    <path id="Path_123725" data-name="Path 123725" d="M539.367,166.131c0,.877,1.056,1.588,2.358,1.588s2.358-.711,2.358-1.588-1.056-1.588-2.358-1.588-2.358.711-2.358,1.588" transform="translate(-406.817 -124.107)" fill="#07345a"/>
    <path id="Path_123726" data-name="Path 123726" d="M547.549,179.17a5.284,5.284,0,0,1,6.915,4.21,39.889,39.889,0,0,1,.429,5.073c.084,4.618-2.307,9.112-4.4,9.112s-7.892-2.99-8.1-9.545c-.13-4.048,1.891-7.724,5.162-8.85" transform="translate(-409.09 -134.924)" fill="#f7a491"/>
    <path id="Path_123727" data-name="Path 123727" d="M539.434,212.507a1.539,1.539,0,1,1-1.508-1.844,1.7,1.7,0,0,1,1.508,1.844" transform="translate(-404.592 -158.893)" fill="#f7a491"/>
    <path id="Path_123728" data-name="Path 123728" d="M579.7,166.367c2.166,1.716,2.925,4.323,1.7,5.823s-3.982,1.325-6.148-.391-2.925-4.323-1.7-5.823,3.982-1.325,6.148.39" transform="translate(-432.156 -124.419)" fill="#07345a"/>
    <path id="Path_123729" data-name="Path 123729" d="M564.989,172.277c0,.746-.9,1.35-2.011,1.35s-2.011-.6-2.011-1.35.9-1.35,2.011-1.35,2.011.6,2.011,1.35" transform="translate(-423.108 -128.922)" fill="#07345a"/>
    <path id="Path_123730" data-name="Path 123730" d="M591.145,194.444a1.717,1.717,0,1,1-1.717-1.736,1.727,1.727,0,0,1,1.717,1.736" transform="translate(-443.281 -145.351)" fill="#07345a"/>
    <path id="Path_123731" data-name="Path 123731" d="M384.369,595.735a33.724,33.724,0,0,0-1.476,3.309,28.265,28.265,0,0,0-.759,3.076s-1.916,2.626-2.635,3.435c-1.6,1.8-3.558,3.93-4.746,4.314-.381.123-1.464-.2-1.453-1.041.04-3.241,3.151-13.806,4.49-15.536,1.545-1.994,6.579,2.444,6.579,2.444" transform="translate(-281.561 -447.102)" fill="#07345a"/>
    <path id="Path_123732" data-name="Path 123732" d="M1066.833,390.269c-19.17-9.789-38.992-19.91-55.377-34.576a87.787,87.787,0,0,1-19.8-25.568,79.668,79.668,0,0,1-8.651-31.025l1.11-.074c1.407,21.059,11.38,40.89,28.081,55.838,16.277,14.569,36.034,24.657,55.141,34.414Z" transform="translate(-741.432 -225.542)" fill="#13375b"/>
    <path id="Path_123733" data-name="Path 123733" d="M714.832,185.037a49.817,49.817,0,0,1-12.325-1.687c-10.546-2.732-20.963-8.033-30.964-15.756a150.374,150.374,0,0,1-24.908-24.976l.865-.7c17.88,22.149,35.964,35.349,55.285,40.355,7.517,1.947,18.264,3.15,26.774-2.179l.59.942a28.531,28.531,0,0,1-15.317,4" transform="translate(-487.723 -107.043)" fill="#13375b"/>
    <path id="Path_123734" data-name="Path 123734" d="M1349.055,20.474l1.727,31.016,4.077-31.016Z" transform="translate(-1017.523 -15.443)" fill="#96d9c9"/>
    <path id="Path_123735" data-name="Path 123735" d="M1380.354,75.095l29.1-28.623-5-3.892Z" transform="translate(-1041.13 -32.117)" fill="#96d9c9"/>
    <path id="Path_123736" data-name="Path 123736" d="M1432.419,163.54l28.813-9.5.155,5.934Z" transform="translate(-1080.4 -116.185)" fill="#96d9c9"/>
    <path id="Path_123737" data-name="Path 123737" d="M1043.2,808.467l1.153-4.834s4.34,5.008,6.383,7.051c2.285,2.285,6.171,6.084,7.722,5.787.5-.1,8.02-7.579,9.05-8.644,1.274-1.317,1.907-2.944,2.755-4.129s3.269-1.293,4.141-1.009-1.769,3.728-1.769,3.728a62.158,62.158,0,0,0-6.765,9.79c-2.486,4.784-10.767,9.843-11.561,9s-11.11-16.739-11.11-16.739" transform="translate(-786.829 -605.328)" fill="#f48c7f"/>
    <path id="Path_123738" data-name="Path 123738" d="M938.017,718.079c.679-3.044,1.345-6.108-.446-9.452a8.716,8.716,0,0,0-6.858-4.6c-8.219-.961-6.463,6.6-17.951,8.237-3.569.509-8.69.082-11.671,1.831-5.382,3.159-6.979,10.814-3.41,19.069,8.739,20.214,31.561,1.382,34.211-2.6,1.971-2.961,5.687-10.524,6.125-12.484" transform="translate(-675.634 -530.947)" fill="#13375b"/>
    <path id="Path_123739" data-name="Path 123739" d="M918.978,1281.06s-.585,5.856-2.09,6.931-3.511,5.054-2.508,7.2a2.517,2.517,0,0,0,1.654,1.277,4.407,4.407,0,0,0,5.263-2.429,12.17,12.17,0,0,0,1.033-4.465,15.966,15.966,0,0,1,1.73-7.177Z" transform="translate(-689.466 -966.238)" fill="#f7a491"/>
    <path id="Path_123740" data-name="Path 123740" d="M1025.316,1290.812s.474,5.909.089,7.829c-.206,1.028-1.354,3.145-.827,4.113a2.624,2.624,0,0,0,1.129,1.21l13.648.216c.744.012.252-.458-.347-.892a27.638,27.638,0,0,0-4.907-2.67c-.2-.1-.948-.563-1.217-.724a9.383,9.383,0,0,1-1.952-1.7c-.98-1.073-1.066-6.277-1.066-6.277Z" transform="translate(-772.683 -973.594)" fill="#f7a491"/>
    <path id="Path_123741" data-name="Path 123741" d="M1031.4,966.662s1.719,9.594.59,15.884-6.545,64.59-6.545,64.59l-6.019.334s-1.262-24.353-1.036-27.739a51.729,51.729,0,0,1,2.012-9.055l-.6-19.663,7.6-25.831Z" transform="translate(-768.098 -727.988)" fill="#355389"/>
    <path id="Path_123742" data-name="Path 123742" d="M947.712,956.314s-4.739,7.015-5.868,12.821.828,23.648-1.342,31.256c-1.175,4.119-5.629,10.479-6.306,15.8s-3.333,19.263-3.333,19.263l6.016,1.173,13.982-34.816,10.968-31.468,2.81-16.207Z" transform="translate(-702.102 -719.657)" fill="#466eb6"/>
    <path id="Path_123743" data-name="Path 123743" d="M994.544,800.576a14.957,14.957,0,0,0-6.072,3.686c-2.483,2.661,3.452,23.491,3.9,26.877s-3.7,11.287-3.7,11.287,15.508,2.824,19.722.082c0,0,.451-24.353,0-26.772s-4.213-12.257-5.116-13.225-8.738-1.935-8.738-1.935" transform="translate(-745.097 -603.834)" fill="#f7cc7f"/>
    <path id="Path_123744" data-name="Path 123744" d="M1167.882,805.581a22.137,22.137,0,0,1-.063,4.173c-.271.689-.649.247-.709.081a13.4,13.4,0,0,1-.175-2.892Z" transform="translate(-880.152 -607.609)" fill="#f48c7f"/>
    <path id="Path_123745" data-name="Path 123745" d="M1163.293,813.432a7.89,7.89,0,0,0,.328,2.442c.193.191.482.134.63-.278a20.935,20.935,0,0,0-.012-3.079Z" transform="translate(-877.412 -612.841)" fill="#f48c7f"/>
    <path id="Path_123746" data-name="Path 123746" d="M1165.1,799.719l-3.343-2.237a1.455,1.455,0,0,1-.4-2.019l.236-.353a1.456,1.456,0,0,1,2.019-.4l3.343,2.237a1.455,1.455,0,0,1,.4,2.019l-.236.353a1.455,1.455,0,0,1-2.019.4" transform="translate(-875.764 -599.224)" fill="#184655"/>
    <path id="Path_123747" data-name="Path 123747" d="M1139.918,800.381a.708.708,0,0,1-.195-.983l11.174-16.7a.708.708,0,1,1,1.178.788l-11.174,16.7a.709.709,0,0,1-.983.195" transform="translate(-859.544 -590.112)" fill="#184655"/>
    <path id="Path_123748" data-name="Path 123748" d="M1176.34,771.678l-5.089-3.405,3.47-5.186a2.672,2.672,0,0,1,3.707-.735l.648.434a2.672,2.672,0,0,1,.735,3.706Z" transform="translate(-883.414 -574.663)" fill="#f7cc7f"/>
    <rect id="Rectangle_513" data-name="Rectangle 513" width="1.246" height="7.152" transform="translate(287.067 193.639) rotate(-56.213)" fill="#184655"/>
    <path id="Path_123749" data-name="Path 123749" d="M1152.733,806.835s.357-.936.987-1.051,1.591.663,1.654.694c.044.021,1.406-.258,2.261-.437a.489.489,0,0,1,.3.923c-.985.45-4.641,2.054-5.083,1.277-.512-.9-.123-1.406-.123-1.406" transform="translate(-869.34 -607.754)" fill="#f7a491"/>
    <path id="Path_123750" data-name="Path 123750" d="M986.274,812.537c3.157-6.541,21.27,12.838,23.141,13.586s13.9-6.7,13.9-6.7a8.869,8.869,0,0,1,.967-3.692c.859-1.265,4.238-2.707,4.469-2.187s-1.065,1.639-1.333,1.993c-.146.193-.117.124.209.169.95.132,2.068-1.024,2.068-1.024a5.588,5.588,0,0,1-1.308,4.305c-1.715,1.96-2.433,2.756-2.433,2.756s-13.4,12.261-16.789,12.036c-3.154-.21-27.224-12.279-22.9-21.244" transform="translate(-743.504 -611.84)" fill="#f7a491"/>
    <path id="Path_123751" data-name="Path 123751" d="M1016.474,766.6s-.032.182-.091.491c-.28,1.483-1.357,6.4-2.085,7.758-.88,1.635,3.011,6.85,6.756,6.214,1.115-.19-.942-4.792-.843-5.279.189-.933.446-2.207.708-3.512.148-.737.3-1.483.439-2.185l.727-3.625Z" transform="translate(-764.938 -578.104)" fill="#f7a491"/>
    <path id="Path_123752" data-name="Path 123752" d="M1022.645,767.091c.058-.309.091-.491.091-.491l5.612-.138s-.327,1.631-.727,3.625l-.437,2.172a5.291,5.291,0,0,1-2.679-1.321,6.96,6.96,0,0,1-2.03-2.969c.069-.349.127-.649.17-.879" transform="translate(-771.2 -578.104)" fill="#f47458"/>
    <path id="Path_123753" data-name="Path 123753" d="M1019.486,713.533a6.647,6.647,0,0,0-3.947,2.422c-1.658,2.109-3.445,8.63.674,12.176s8.188-.468,8.791-4.723.481-10.028-5.519-9.875" transform="translate(-764.574 -538.18)" fill="#f7a491"/>
    <path id="Path_123754" data-name="Path 123754" d="M1058.167,740.67c-.492.94-1.317,1.46-1.843,1.162s-.554-1.3-.063-2.241,1.317-1.46,1.843-1.162.554,1.3.063,2.241" transform="translate(-796.418 -556.896)" fill="#f7a491"/>
    <path id="Path_123755" data-name="Path 123755" d="M1012.729,712.939s-3.534,6.2-6.062,6.488-2.86,3.582-2.86,3.582.9-7.593,3.406-9.058a9.437,9.437,0,0,1,5.515-1.012" transform="translate(-757.12 -537.685)" fill="#13375b"/>
    <path id="Path_123756" data-name="Path 123756" d="M1010.693,740.185c.206,1.1-.208,2.112-.923,2.256s-1.463-.631-1.668-1.732.208-2.111.923-2.256,1.463.631,1.668,1.732" transform="translate(-760.319 -556.965)" fill="#f7a491"/>
    <path id="Path_123757" data-name="Path 123757" d="M921.707,1321.306a6.771,6.771,0,0,1-6.6-2.71c-.833,1.6-1.344,3.6-.731,4.91.54,1.157,2.01,1.473,3.252,1.519a3.539,3.539,0,0,0,3.194-1.754,10.659,10.659,0,0,0,.881-1.966" transform="translate(-689.466 -994.55)" fill="#3c8f7c"/>
    <path id="Path_123758" data-name="Path 123758" d="M1032.789,1326.843a12.549,12.549,0,0,1-7.771-.3c-.385,1.073-.895,2.419-.624,3.195.331.951.8,1.243,1.22,1.254,3.3.085,12.077.123,14.591.155a.4.4,0,0,0,.319-.664c-.624-.733-7.466-3.478-7.735-3.64" transform="translate(-772.59 -1000.544)" fill="#3c8f7c"/>
    <path id="Path_123759" data-name="Path 123759" d="M1376.692,872.13a6.153,6.153,0,0,1,3.019-.385,46.309,46.309,0,0,0,3.558-4.32s9.422-12.305,9.9-12.989l2.972-15.922,8.926-.069s-3.729,17.195-4.093,18.046-15.3,15.881-16.561,17.249c0,0-.817,2.221-1.381,3.6a11.249,11.249,0,0,1-1.994,2.736,11.949,11.949,0,0,1-2.294,2.31c-1.239.96-.584-.534-.584-.534s1.917-2.2,1.693-2.333c-.173-.1-1.139,1.168-2.5,2.244-.349.277-.695.548-1.015.8-.84.649-1.551.3-.8-.519a9.586,9.586,0,0,1,1.1-1.05,7.8,7.8,0,0,0,.961-1.047,10.221,10.221,0,0,0,.983-1.086c-.056-.015-.04-.226-.421.055a24.217,24.217,0,0,1-1.963,1.725c-.408.252-1.222.832-1.222.832a9.292,9.292,0,0,1-1.5.571c-.41-.382.406-1.094,1.016-1.364a6.524,6.524,0,0,1,1.152-.955s1.454-1.589,1.2-1.81a22.677,22.677,0,0,0-2.3,1.448c-1.078.632-2.294,1.093-2.48.9-.314-.333.792-1.164.792-1.164s.811-.54,1.065-.74c.3-.235,1.121-1.008,1.121-1.008s2.725-2.83,2.467-3.022a2.236,2.236,0,0,0-1.342-.337c-.239.113-.538.552-.778.665a.761.761,0,0,1-.873-.226c-.2-.283.689-1.274.689-1.274a3.953,3.953,0,0,1,1.485-1.013" transform="translate(-1034.836 -632.397)" fill="#f48c7f"/>
    <path id="Path_123760" data-name="Path 123760" d="M1426.281,1302.695s-.082,5.494-.08,5.5c.116.7.976,2.421.976,3.055,0,2.382-10.824-2.022-8.4-3.077.219-.1,1.37-.818,1.442-1.629.111-1.249.393-3.776.393-3.776Z" transform="translate(-1069.844 -982.556)" fill="#f7a491"/>
    <path id="Path_123761" data-name="Path 123761" d="M1392.35,1324.61s2.541.729,3.843.911,3.017-1.352,3.938-.937c1.013.456.911,4.947.911,4.947s-12.994.186-17.4-.064c-1.59-.09,3.51-3.159,8.705-4.856" transform="translate(-1043.389 -999.012)" fill="#b75742"/>
    <path id="Path_123762" data-name="Path 123762" d="M1524.291,1302.695s.317,5.494.319,5.5c.116.7.576,2.421.576,3.055,0,2.382-10.824-2.022-8.4-3.077.219-.1,1.711-1.358,1.783-2.169.111-1.249.053-3.236.053-3.236Z" transform="translate(-1143.768 -982.556)" fill="#f7a491"/>
    <path id="Path_123763" data-name="Path 123763" d="M1488.652,1324.61s2.541.729,3.843.911,3.018-1.352,3.938-.937c1.013.456.987,4.882.987,4.882s-14.514.155-18.053,0c-1.591-.07,4.09-3.159,9.285-4.856" transform="translate(-1115.605 -999.012)" fill="#b75742"/>
    <path id="Path_123764" data-name="Path 123764" d="M1435.016,980l-4.576,1.932-9.626,45.011.39,33.743,7.717.176s3.589-29.516,3.589-31.8,16.625-40.03,16.625-40.03Z" transform="translate(-1071.646 -739.167)" fill="#355389"/>
    <path id="Path_123765" data-name="Path 123765" d="M1492.979,985.454s3.371,34.679,3.371,40.525,2.733,38.564,2.733,38.564l7.735-.044s.558-9.972,1.387-24.644c.13-2.3-.167-6.934,0-9.312,1.2-17.109,3.583-33.215,2.447-39.6-.183-1.028-.527-3.715-1.2-4.393-5.065-5.131-16.478-1.1-16.478-1.1" transform="translate(-1126.077 -742.141)" fill="#466eb6"/>
    <path id="Path_123766" data-name="Path 123766" d="M1454.584,804.09l9.36-.614s.462-8.192.462-12.1c0-4.741,1.476-11.73.9-11.6a11.423,11.423,0,0,0-5.713,3.6c-4.492,6.125-5.008,20.714-5.008,20.714" transform="translate(-1097.117 -588.145)" fill="#b75742"/>
    <path id="Path_123767" data-name="Path 123767" d="M1476.165,778.274s5.338.726,6.743,1.736a18.591,18.591,0,0,1,3.338,3.683s-6.553,30.33-6.565,35.434c-.009,3.949,1.419,13.644,1.419,13.644s-19.8,1.224-27.3-1.675c0,0,2.369-11.531,2.369-14.558s2.833-30.56,3.478-32.483c.585-1.744,1.654-4.879,5.273-5.652s11.25-.128,11.25-.128" transform="translate(-1096.523 -586.823)" fill="#f47458"/>
    <path id="Path_123768" data-name="Path 123768" d="M1515.053,744.277l1.322,8.469s-4.825,10.084-7.706,9.21c-2.417-.734-.93-9.657-.93-9.657s1.317-4.791.922-7.189,6.392-.833,6.392-.833" transform="translate(-1136.868 -560.992)" fill="#f7a491"/>
    <path id="Path_123769" data-name="Path 123769" d="M1512.363,745.11c-.395-2.4,6.392-.833,6.392-.833l.11.7a3.884,3.884,0,0,1-.736,1.18,9.05,9.05,0,0,1-5.934,2.612,12.714,12.714,0,0,0,.169-3.662" transform="translate(-1140.569 -560.992)" fill="#f47458"/>
    <path id="Path_123770" data-name="Path 123770" d="M1507.852,688.941c.192-.068,1.538,9.646-1.016,12.319s-7.529,3.547-9.314,1.442c-1.974-2.328-1.875-12.769,2.1-15.518s8.235,1.757,8.235,1.757" transform="translate(-1128.554 -517.638)" fill="#f7a491"/>
    <path id="Path_123771" data-name="Path 123771" d="M1505.48,668.584a11.092,11.092,0,0,1,5.787,3.21c1.393.16,3.287.909,5.243,4.059a7.741,7.741,0,0,1-2.171,10.268c-2.8,2.105-2.762,4.526-2.762,4.526l-.441-1.247a6.849,6.849,0,0,1-.35-2.962,5.655,5.655,0,0,1,.452-1.781c.673-1.406-1.446-2.34-2.04-3.51-.458-.9-.48-2.961-1.2-4.45l-.861-1.136a5.576,5.576,0,0,0-3.93-1.079c-1.943.424-1.664-6.679,2.274-5.9" transform="translate(-1132.905 -504.234)" fill="#184655"/>
    <path id="Path_123772" data-name="Path 123772" d="M1531.724,720.4c-.02,1.185.533,2.155,1.237,2.167s1.29-.94,1.311-2.125-.534-2.155-1.238-2.167-1.29.939-1.31,2.125" transform="translate(-1155.3 -541.76)" fill="#f7a491"/>
    <path id="Path_123773" data-name="Path 123773" d="M1474.31,794.937c-1.8-.051-3.384,11.547-2.246,12.691s1.356,15.43,1.356,15.43l-16.942-.413,0,.005c-.33-.216-3.88-2.551-4.387-3.061-.532-.535-3.119-.268-3.8.469s1.521.133,2.13.535-.457,1.4-.457,1.4-4.293.61-5.13-.26-3.073-2.341-3.377-1.472c-.157.449,1,1.808,1.646,2.379-.811-.594-1.781-1.225-2.114-1.115-.609.2-.355.958-.025,1.181s3.738,2.771,4.27,2.95,8.448.366,9.818.663c0,0,22.342,4.981,23.612,4.67,1.114-.273,2.229-7.275,2.229-12.638s-.964-23.261-6.576-23.42" transform="translate(-1086.58 -599.581)" fill="#f7a491"/>
    <path id="Path_123774" data-name="Path 123774" d="M1560.529,784.171a13.694,13.694,0,0,1,6.354,4.256c2.936,3.23,4.786,21.32,4.786,21.32l-10.138,1.6-.809-8.75-2.709-4Z" transform="translate(-1175.129 -591.461)" fill="#f47458"/>
    <rect id="Rectangle_514" data-name="Rectangle 514" width="14.2" height="27.968" transform="translate(101.135 275.974)" fill="#f47458"/>
    <path id="Path_123775" data-name="Path 123775" d="M24.208,1192.378h0a28.084,28.084,0,0,1,56.169,0h0a28.084,28.084,0,0,1-28.084,28.084h0a28.084,28.084,0,0,1-28.084-28.084" transform="translate(-18.259 -878.168)" fill="#b75742"/>
    <path id="Path_123776" data-name="Path 123776" d="M70.92,894.022c.067-2.183-1.136-24.573,4.285-41.53a44.117,44.117,0,0,1,11.077-18.159c4.617-4.617,10.767-9.119,17.017-11.111,11.771-3.751,25.193-2.546,36.8,1.872,5.468,2.081,11.306,6.792,15.018,11.367,4.994,6.061,8.3,15.834,9.75,23.62,2.519,13.532,1.809,28.336,1.457,42.907h-6.589c-1.184-18.115.754-40.868-7.61-57.552l-.314-.612c-.371-.432-4.829-11.294-19.23-16.5-18.163-6.138-36.827,2.768-43.082,19.27-5.7,14.63-5.156,31.78-5.169,46.429Z" transform="translate(-53.439 -619.229)" fill="#f47458"/>
    <rect id="Rectangle_515" data-name="Rectangle 515" width="20.045" height="28.907" transform="translate(15.001 263.702)" fill="#f47458"/>
    <path id="Path_123777" data-name="Path 123777" d="M81.088,1139.256a23,23,0,0,0-4.462-.434H66.265a22.98,22.98,0,0,0-5.222.6v12.145H81.088Z" transform="translate(-46.042 -858.956)" fill="#b75742"/>
    <path id="Path_123778" data-name="Path 123778" d="M0,1194.6v-4.449a25.86,25.86,0,0,1,25.859-25.86h0a25.859,25.859,0,0,1,25.859,25.86v4.449a25.86,25.86,0,0,1-25.859,25.86h0A25.86,25.86,0,0,1,0,1194.6" transform="translate(0 -878.168)" fill="#f47458"/>
    <path id="Path_123779" data-name="Path 123779" d="M32.9,1225.082h0a14.268,14.268,0,1,1,14.268,14.268A14.268,14.268,0,0,1,32.9,1225.082" transform="translate(-24.812 -913.255)" fill="#b75742"/>
    <path id="Path_123780" data-name="Path 123780" d="M11.4,1225.082h0a14.268,14.268,0,1,1,14.268,14.268A14.268,14.268,0,0,1,11.4,1225.082" transform="translate(-8.598 -913.255)" fill="#f47458"/>
    <path id="Path_123781" data-name="Path 123781" d="M422.044,1151.487q-.227-.005-.456-.006h-16.62v16.234h17.076Z" transform="translate(-305.446 -868.504)" fill="#b75742"/>
    <path id="Path_123782" data-name="Path 123782" d="M319.037,1197.1v-6.011a24.519,24.519,0,0,1,24.519-24.519h6.883a24.518,24.518,0,0,1,24.519,24.519v6.011a24.519,24.519,0,0,1-24.519,24.519h-6.883a24.519,24.519,0,0,1-24.519-24.519" transform="translate(-240.633 -879.886)" fill="#f47458"/>
    <path id="Path_123783" data-name="Path 123783" d="M347.573,1217.787v-5.112a18.66,18.66,0,0,1,18.66-18.659h4.575a18.66,18.66,0,0,1,18.66,18.659v5.112a18.66,18.66,0,0,1-18.66,18.66h-4.575a18.66,18.66,0,0,1-18.66-18.66" transform="translate(-262.156 -900.585)" fill="#b75742"/>
    <path id="Path_123784" data-name="Path 123784" d="M409.083,1256.773a1.119,1.119,0,1,0,1.119,1.119,1.119,1.119,0,0,0-1.119-1.119" transform="translate(-307.706 -947.92)" fill="#f47458"/>
    <path id="Path_123785" data-name="Path 123785" d="M429.374,1256.773a1.119,1.119,0,1,0,1.119,1.119,1.119,1.119,0,0,0-1.119-1.119" transform="translate(-323.011 -947.92)" fill="#f47458"/>
    <path id="Path_123786" data-name="Path 123786" d="M449.666,1256.773a1.119,1.119,0,1,0,1.119,1.119,1.119,1.119,0,0,0-1.119-1.119" transform="translate(-338.316 -947.92)" fill="#f47458"/>
    <path id="Path_123787" data-name="Path 123787" d="M409.083,1273.3a1.119,1.119,0,1,0,1.119,1.119,1.119,1.119,0,0,0-1.119-1.119" transform="translate(-307.706 -960.385)" fill="#f47458"/>
    <path id="Path_123788" data-name="Path 123788" d="M429.374,1273.3a1.119,1.119,0,1,0,1.119,1.119,1.119,1.119,0,0,0-1.119-1.119" transform="translate(-323.011 -960.385)" fill="#f47458"/>
    <path id="Path_123789" data-name="Path 123789" d="M449.666,1273.3a1.119,1.119,0,1,0,1.119,1.119,1.119,1.119,0,0,0-1.119-1.119" transform="translate(-338.316 -960.385)" fill="#f47458"/>
    <path id="Path_123790" data-name="Path 123790" d="M409.083,1289.825a1.119,1.119,0,1,0,1.119,1.119,1.119,1.119,0,0,0-1.119-1.119" transform="translate(-307.706 -972.849)" fill="#f47458"/>
    <path id="Path_123791" data-name="Path 123791" d="M429.374,1289.825a1.119,1.119,0,1,0,1.119,1.119,1.119,1.119,0,0,0-1.119-1.119" transform="translate(-323.011 -972.849)" fill="#f47458"/>
    <path id="Path_123792" data-name="Path 123792" d="M449.666,1289.825a1.119,1.119,0,1,0,1.119,1.119,1.119,1.119,0,0,0-1.119-1.119" transform="translate(-338.316 -972.849)" fill="#f47458"/>
    <path id="Path_123793" data-name="Path 123793" d="M1324.542,674.877h0a4.793,4.793,0,0,1-4.793-4.793V651.309a4.239,4.239,0,0,1,4.239-4.24h1.108a4.239,4.239,0,0,1,4.239,4.24v18.775a4.793,4.793,0,0,1-4.793,4.793" transform="translate(-995.419 -488.052)" fill="#9bc1f9"/>
    <path id="Path_123794" data-name="Path 123794" d="M1319.749,734.019v2.353c0,2.257,2.146,4.087,4.793,4.087s4.793-1.83,4.793-4.087v-2.353Z" transform="translate(-995.419 -553.634)" fill="#13375b"/>
    <rect id="Rectangle_516" data-name="Rectangle 516" width="9.586" height="2.269" transform="translate(324.331 177.202)" fill="#13375b"/>
  </g>
</svg>
