<svg id="Group_88317" data-name="Group 88317" xmlns="http://www.w3.org/2000/svg" xmlns:xlink="http://www.w3.org/1999/xlink" width="749.003" height="767.839" viewBox="0 0 749.003 767.839">
  <defs>
    <clipPath id="clip-path">
      <rect id="Rectangle_457" data-name="Rectangle 457" width="749.003" height="767.839" fill="none"/>
    </clipPath>
    <clipPath id="clip-path-3">
      <rect id="Rectangle_399" data-name="Rectangle 399" width="743.171" height="520.039" fill="none"/>
    </clipPath>
    <clipPath id="clip-path-4">
      <rect id="Rectangle_400" data-name="Rectangle 400" width="63.802" height="4.851" fill="none"/>
    </clipPath>
    <clipPath id="clip-path-5">
      <rect id="Rectangle_402" data-name="Rectangle 402" width="31.715" height="77.122" fill="none"/>
    </clipPath>
    <clipPath id="clip-path-6">
      <rect id="Rectangle_403" data-name="Rectangle 403" width="393.082" height="59.349" fill="none"/>
    </clipPath>
    <clipPath id="clip-path-7">
      <rect id="Rectangle_404" data-name="Rectangle 404" width="35.87" height="96.107" fill="none"/>
    </clipPath>
    <clipPath id="clip-path-8">
      <rect id="Rectangle_405" data-name="Rectangle 405" width="155.94" height="34.091" fill="none"/>
    </clipPath>
    <clipPath id="clip-path-9">
      <rect id="Rectangle_406" data-name="Rectangle 406" width="155.853" height="212.309" fill="none"/>
    </clipPath>
    <clipPath id="clip-path-11">
      <rect id="Rectangle_408" data-name="Rectangle 408" width="39.199" height="77.537" fill="none"/>
    </clipPath>
    <clipPath id="clip-path-12">
      <rect id="Rectangle_409" data-name="Rectangle 409" width="69.956" height="78.5" fill="none"/>
    </clipPath>
    <clipPath id="clip-path-13">
      <rect id="Rectangle_410" data-name="Rectangle 410" width="324.403" height="142.148" fill="none"/>
    </clipPath>
    <clipPath id="clip-path-14">
      <rect id="Rectangle_411" data-name="Rectangle 411" width="69.957" height="78.5" fill="none"/>
    </clipPath>
    <clipPath id="clip-path-15">
      <rect id="Rectangle_412" data-name="Rectangle 412" width="324.402" height="142.148" fill="none"/>
    </clipPath>
    <clipPath id="clip-path-16">
      <rect id="Rectangle_413" data-name="Rectangle 413" width="131.71" height="114.821" fill="none"/>
    </clipPath>
    <clipPath id="clip-path-17">
      <rect id="Rectangle_415" data-name="Rectangle 415" width="26.63" height="36.956" fill="none"/>
    </clipPath>
    <clipPath id="clip-path-19">
      <rect id="Rectangle_417" data-name="Rectangle 417" width="52.671" height="34.868" fill="none"/>
    </clipPath>
    <clipPath id="clip-path-20">
      <rect id="Rectangle_422" data-name="Rectangle 422" width="171.115" height="123.685" fill="none"/>
    </clipPath>
    <clipPath id="clip-path-21">
      <rect id="Rectangle_423" data-name="Rectangle 423" width="264.154" height="1.813" fill="none"/>
    </clipPath>
    <clipPath id="clip-path-22">
      <rect id="Rectangle_424" data-name="Rectangle 424" width="95.792" height="4.851" fill="none"/>
    </clipPath>
    <clipPath id="clip-path-23">
      <rect id="Rectangle_427" data-name="Rectangle 427" width="20.061" height="99.333" fill="none"/>
    </clipPath>
    <clipPath id="clip-path-24">
      <rect id="Rectangle_446" data-name="Rectangle 446" width="53.654" height="121.002" fill="none"/>
    </clipPath>
    <clipPath id="clip-path-25">
      <rect id="Rectangle_447" data-name="Rectangle 447" width="64.155" height="130.543" fill="none"/>
    </clipPath>
    <clipPath id="clip-path-26">
      <rect id="Rectangle_448" data-name="Rectangle 448" width="10.24" height="10.239" fill="none"/>
    </clipPath>
    <clipPath id="clip-path-28">
      <rect id="Rectangle_450" data-name="Rectangle 450" width="10.24" height="10.24" fill="none"/>
    </clipPath>
    <clipPath id="clip-path-29">
      <rect id="Rectangle_451" data-name="Rectangle 451" width="10.24" height="10.241" fill="none"/>
    </clipPath>
    <clipPath id="clip-path-31">
      <rect id="Rectangle_453" data-name="Rectangle 453" width="29.73" height="77.811" fill="none"/>
    </clipPath>
    <clipPath id="clip-path-32">
      <rect id="Rectangle_454" data-name="Rectangle 454" width="100.804" height="117.061" fill="none"/>
    </clipPath>
    <clipPath id="clip-path-33">
      <rect id="Rectangle_455" data-name="Rectangle 455" width="54.855" height="80.889" fill="none"/>
    </clipPath>
  </defs>
  <g id="Group_88234" data-name="Group 88234" clip-path="url(#clip-path)">
    <g id="Group_88233" data-name="Group 88233">
      <g id="Group_88232" data-name="Group 88232" clip-path="url(#clip-path)">
        <g id="Group_88141" data-name="Group 88141" transform="translate(0 28.462)" opacity="0.41">
          <g id="Group_88140" data-name="Group 88140">
            <g id="Group_88139" data-name="Group 88139" clip-path="url(#clip-path-3)">
              <path id="Path_123573" data-name="Path 123573" d="M277.039,523.995c-7.375-.031-14.761-.326-22.151-.932-81.01-6.641-174.858-45.325-215.194-115.754C4.431,345.737-9.416,266.022,6.642,197.352,21.735,132.8,68.529,80.514,134.055,60.658c73.691-22.329,155.136,4.8,227.649-25.693C467.244-9.419,599.9,25.831,673.864,110.276c65.58,74.872,81.453,195.6,60.866,289.137-10.405,47.276-37.774,92.808-81.338,116.61-34.662,18.938-76.562,22.67-116.2,17.735-31.87-3.97-61.211-14.362-91.869-22.917-24.574-6.858-44.738-3.288-69.89,1.688-32.372,6.407-65.286,11.6-98.4,11.465" transform="translate(0.001 -15.696)" fill="#afafaf"/>
            </g>
          </g>
        </g>
        <path id="Path_123574" data-name="Path 123574" d="M263.3,455.576c-5.968-.025-11.943-.265-17.924-.754-65.552-5.373-141.49-36.675-174.131-93.664C42.709,311.333,31.505,246.829,44.5,191.265,56.712,139.032,94.575,96.721,147.6,80.656c59.63-18.069,125.532,3.884,184.208-20.791,85.4-35.913,192.74-7.392,252.593,60.941,53.065,60.584,65.91,158.272,49.251,233.963-8.418,38.255-30.564,75.1-65.815,94.357-28.048,15.324-61.953,18.345-94.025,14.35-25.789-3.212-49.531-11.621-74.339-18.542-19.884-5.549-36.2-2.66-56.554,1.367C316.724,451.483,290.09,455.689,263.3,455.576Z" transform="translate(31.826 36.012)" fill="none" stroke="#fff" stroke-width="1.946" stroke-dasharray="3.851 3.851"/>
        <g id="Group_88144" data-name="Group 88144" transform="translate(646.164 739.385)" opacity="0.87" style="mix-blend-mode: multiply;isolation: isolate">
          <g id="Group_88143" data-name="Group 88143">
            <g id="Group_88142" data-name="Group 88142" clip-path="url(#clip-path-4)">
              <path id="Path_123575" data-name="Path 123575" d="M420.124,410.15c0,1.34-14.284,2.424-31.9,2.424s-31.9-1.084-31.9-2.424,14.284-2.425,31.9-2.425,31.9,1.084,31.9,2.425" transform="translate(-356.32 -407.724)" fill="#515159"/>
            </g>
          </g>
        </g>
        <path id="Path_123576" data-name="Path 123576" d="M383.162,398.613s-27.314-18.557-9.769-45.53,13.156-36.347,7.018-43.942c14.912,16.968,11.644,36.3,2.751,48.566s-10.3,28.953,0,40.906" transform="translate(298.952 251.469)" fill="#afafaf"/>
        <path id="Path_123577" data-name="Path 123577" d="M412.06,371.176H359.388l5.141,66.679h42.389Z" transform="translate(292.342 301.931)" fill="#fefefe"/>
        <rect id="Rectangle_401" data-name="Rectangle 401" width="63.804" height="7.82" transform="translate(646.163 669.698)" fill="#8b8b8c"/>
        <path id="Path_123578" data-name="Path 123578" d="M405.1,365.417H366.352a6.963,6.963,0,0,0-6.964,6.964v.071H412.06v-.071a6.963,6.963,0,0,0-6.964-6.964" transform="translate(292.342 297.246)" fill="#5a5a63"/>
        <path id="Path_123579" data-name="Path 123579" d="M408.375,399.369l1.246-16.15h-49.3l1.246,16.15Z" transform="translate(293.098 311.727)" fill="#edb62b"/>
        <g id="Group_88147" data-name="Group 88147" transform="translate(678.252 662.664)" style="mix-blend-mode: multiply;isolation: isolate">
          <g id="Group_88146" data-name="Group 88146">
            <g id="Group_88145" data-name="Group 88145" clip-path="url(#clip-path-5)">
              <path id="Path_123580" data-name="Path 123580" d="M400.164,372.451v-.071a6.964,6.964,0,0,0-6.964-6.964H374.012a6.964,6.964,0,0,1,6.964,6.964v.071h5.567v7.82h-5.906l-4.8,62.268h19.188l4.8-62.268h5.9v-7.82Z" transform="translate(-374.014 -365.418)" fill="#afafaf"/>
            </g>
          </g>
        </g>
        <path id="Path_123581" data-name="Path 123581" d="M271.654,170.082s11.038-34.617-5.089-44.671c-10.251-5.268-15.853,1.295-15.853,1.295s-4.82-24.474-38.037-16.39c-21.515,5.235-28.3-5.854-28.3-5.854s-.2,30.682,14.616,39.805c10.727,9.2,6.614,34.067,6.614,34.067Z" transform="translate(149.977 84.975)" fill="#2f2f35"/>
        <g id="Group_88150" data-name="Group 88150" transform="translate(218.487 707.428)" opacity="0.87" style="mix-blend-mode: multiply;isolation: isolate">
          <g id="Group_88149" data-name="Group 88149">
            <g id="Group_88148" data-name="Group 88148" clip-path="url(#clip-path-6)">
              <path id="Path_123582" data-name="Path 123582" d="M421.482,390.1s59.8,1.8,76.491,17.2c17.552,16.2,35.966,41.5-39.593,41.016s-142.542-21.283-205.915-14.683S137.089,451.616,121.94,449.092s92.832-54.253,92.832-54.253L415.25,402.2Z" transform="translate(-120.482 -390.102)" fill="#515159"/>
            </g>
          </g>
        </g>
        <path id="Path_123583" data-name="Path 123583" d="M331.793,319.324,256.4,311.751l-75.388,7.573s-4.479,35.621-19.036,54.625l94.424,33.91,94.424-33.91c-14.558-19-19.036-54.625-19.036-54.625" transform="translate(131.762 253.592)" fill="#a87d1d"/>
        <g id="Group_88153" data-name="Group 88153" transform="translate(368.633 565.343)" style="mix-blend-mode: multiply;isolation: isolate">
          <g id="Group_88152" data-name="Group 88152">
            <g id="Group_88151" data-name="Group 88151" clip-path="url(#clip-path-7)">
              <path id="Path_123584" data-name="Path 123584" d="M219.833,406.789l2.978,1.07,2.974-1.068c17.373-39.966,13.215-84.806,12.185-93.517L222.81,311.75l-19.4,1.949c-.386,9.579-1.034,53.38,16.424,93.089" transform="translate(-203.278 -311.752)" fill="#a87d1d"/>
            </g>
          </g>
        </g>
        <g id="Group_88156" data-name="Group 88156" transform="translate(312.348 565.343)" style="mix-blend-mode: multiply;isolation: isolate">
          <g id="Group_88155" data-name="Group 88155">
            <g id="Group_88154" data-name="Group 88154" clip-path="url(#clip-path-8)">
              <path id="Path_123585" data-name="Path 123585" d="M172.24,322.231s79.329,34.989,155.94,19.783a178.564,178.564,0,0,1-4.733-22.69l-75.389-7.573-60.56,6.084Z" transform="translate(-172.24 -311.751)" fill="#895436"/>
            </g>
          </g>
        </g>
        <path id="Path_123586" data-name="Path 123586" d="M198.989,144.269c10.728,9.2,6.614,34.066,6.614,34.066l14.034-1.752c14.413-12.826,30.683-29.066,28.321-35.183-4.14-10.723-16.1-21.422-38.148-22.646s-25.437-14.29-25.437-14.29-.2,30.682,14.616,39.805" transform="translate(149.977 84.976)" fill="#515159"/>
        <path id="Path_123587" data-name="Path 123587" d="M245.128,174.316,182.8,197.037,172.476,431.12s22.032,10.328,75.389,10.328V177.95Z" transform="translate(140.3 141.796)" fill="#fff"/>
        <path id="Path_123588" data-name="Path 123588" d="M216.785,174.316l62.324,22.721L289.438,431.12s-22.032,10.328-75.389,10.328V177.95Z" transform="translate(174.117 141.796)" fill="#fff"/>
        <path id="Path_123589" data-name="Path 123589" d="M226.233,186.844l-.288.1a67.539,67.539,0,0,0-39.959,38.431L119.087,387.3l56.886,6.779,48.158-118.028Z" transform="translate(96.871 151.987)" fill="#ff7e6e"/>
        <path id="Path_123590" data-name="Path 123590" d="M249.926,186.844l.29.1a67.54,67.54,0,0,1,39.957,38.431l66.9,161.921-56.888,6.779L252.028,276.049Z" transform="translate(203.301 151.987)" fill="#ff7e6e"/>
        <path id="Path_123591" data-name="Path 123591" d="M316.149,288.254,290.172,225.38a67.544,67.544,0,0,0-39.957-38.432l-.288-.1,2.1,89.205,13.643,33.438c18.211-15.255,36.483-20.209,50.479-21.234" transform="translate(203.301 151.987)" fill="#e8e8e8"/>
        <path id="Path_123592" data-name="Path 123592" d="M141.653,288.254l25.978-62.874a67.544,67.544,0,0,1,39.957-38.432l.288-.1-2.1,89.205-13.643,33.438c-18.211-15.255-36.483-20.209-50.479-21.234" transform="translate(115.227 151.987)" fill="#e8e8e8"/>
        <path id="Path_123593" data-name="Path 123593" d="M292.125,240.784a69.54,69.54,0,0,1-4.071-6.795l2.1,3.71s-23.713,131.613-87.1,154.685c6.093.328,12.719.52,19.939.52,53.357,0,75.389-10.326,75.389-10.326Z" transform="translate(165.173 190.337)" fill="#d3d3d3"/>
        <g id="Group_88159" data-name="Group 88159" transform="translate(218.73 320.267)" opacity="0.52" style="mix-blend-mode: overlay;isolation: isolate">
          <g id="Group_88158" data-name="Group 88158">
            <g id="Group_88157" data-name="Group 88157" clip-path="url(#clip-path-9)">
              <path id="Path_123594" data-name="Path 123594" d="M195.626,270.216c16.076-45.095,16.97-44.75,52.084-53.012s28.208-40.6,28.208-40.6L243.182,188.54l-5.063,1.846-13.129,4.786-.288.1a67.539,67.539,0,0,0-39.959,38.431L120.615,388.917c27.082-19.935,61.32-80.294,75.011-118.7" transform="translate(-120.617 -176.608)" fill="#fff6e7"/>
            </g>
          </g>
        </g>
        <g id="Group_88162" data-name="Group 88162" transform="translate(401.749 320.267)" opacity="0.28" style="mix-blend-mode: multiply;isolation: isolate">
          <g id="Group_88161" data-name="Group 88161">
            <g id="Group_88160" data-name="Group 88160" clip-path="url(#clip-path-9)">
              <path id="Path_123595" data-name="Path 123595" d="M302.381,270.216c-16.076-45.095-16.97-44.75-52.084-53.012s-28.208-40.6-28.208-40.6l32.736,11.934,5.065,1.846,13.128,4.786.288.1a67.539,67.539,0,0,1,39.959,38.431l64.127,155.211c-27.082-19.935-61.32-80.294-75.011-118.7" transform="translate(-221.539 -176.608)" fill="#4c2a29"/>
            </g>
          </g>
        </g>
        <path id="Path_123596" data-name="Path 123596" d="M221.776,215.589h-.337a16.682,16.682,0,0,1-16.682-16.682V159.08h33.7v39.827a16.682,16.682,0,0,1-16.682,16.682" transform="translate(166.558 129.403)" fill="#ff7e6e"/>
        <path id="Path_123597" data-name="Path 123597" d="M238.188,189.8c.1,0,.176-.011.27-.013V159.079H222.726l-17.969,6.494s6.688,24.226,33.431,24.226" transform="translate(166.558 129.402)" fill="#4c2a29"/>
        <path id="Path_123598" data-name="Path 123598" d="M245.373,150.738a10.822,10.822,0,1,1-10.823-10.821,10.822,10.822,0,0,1,10.823,10.821" transform="translate(181.992 113.815)" fill="#c64f4f"/>
        <path id="Path_123599" data-name="Path 123599" d="M236.658,161.346a140.206,140.206,0,0,0,2.981-20.1,10.7,10.7,0,0,0-5.089-1.326,10.821,10.821,0,1,0,2.107,21.429" transform="translate(181.992 113.815)" fill="#803d3d"/>
        <path id="Path_123600" data-name="Path 123600" d="M192.433,150.738a10.821,10.821,0,1,0,10.821-10.821,10.821,10.821,0,0,0-10.821,10.821" transform="translate(156.533 113.815)" fill="#c64f4f"/>
        <path id="Path_123601" data-name="Path 123601" d="M198.575,161.346a140.206,140.206,0,0,1-2.981-20.1,10.7,10.7,0,0,1,5.089-1.326,10.821,10.821,0,1,1-2.107,21.429" transform="translate(159.105 113.815)" fill="#803d3d"/>
        <path id="Path_123602" data-name="Path 123602" d="M245.865,125.015H207.773l-9.424,20.6L199.934,166c.847,10.877,7.874,29.657,17.761,34.272a19.35,19.35,0,0,0,18.25,0c9.885-4.615,16.914-23.4,17.759-34.272l1.587-20.383Z" transform="translate(161.346 101.693)" fill="#ff7e6e"/>
        <path id="Path_123603" data-name="Path 123603" d="M219.436,139.271a29.506,29.506,0,0,0,13.621,0" transform="translate(178.499 113.289)" fill="none" stroke="#2f2f35" stroke-linecap="round" stroke-width="1.336"/>
        <path id="Path_123604" data-name="Path 123604" d="M218.3,132.98s9.334-1.552,14.945,1.681" transform="translate(177.572 107.869)" fill="none" stroke="#2f2f35" stroke-linecap="round" stroke-width="2.672"/>
        <path id="Path_123605" data-name="Path 123605" d="M214.773,139.271a29.512,29.512,0,0,1-13.623,0" transform="translate(163.624 113.289)" fill="none" stroke="#2f2f35" stroke-linecap="round" stroke-width="1.336"/>
        <path id="Path_123606" data-name="Path 123606" d="M216.5,132.98s-9.334-1.552-14.945,1.681" transform="translate(163.957 107.869)" fill="none" stroke="#2f2f35" stroke-linecap="round" stroke-width="2.672"/>
        <g id="Group_88165" data-name="Group 88165" transform="translate(348.966 226.708)" opacity="0.52" style="mix-blend-mode: overlay;isolation: isolate">
          <g id="Group_88164" data-name="Group 88164">
            <g id="Group_88163" data-name="Group 88163" clip-path="url(#clip-path-11)">
              <path id="Path_123607" data-name="Path 123607" d="M216.456,168.63c-1.244-20.6-3.868-43.615-3.868-43.615l-9.426,20.6.5,6.47c-.14-.005-.27-.042-.412-.042a10.823,10.823,0,1,0,2.726,21.254c2.548,10.527,8.617,23.283,16.528,26.975a21.885,21.885,0,0,0,9.125,2.285S217.7,189.227,216.456,168.63" transform="translate(-192.433 -125.015)" fill="#fff6e7"/>
            </g>
          </g>
        </g>
        <path id="Path_123608" data-name="Path 123608" d="M377.151,396.758,161.771,331.41a52.659,52.659,0,0,0-66.234,37.072l-.285,1.09a52.65,52.65,0,0,0,41.86,65.186c79.634,13.918,223.971,37.593,299.936,40.487l32.022,21.346a12.505,12.505,0,0,0,15.492-1.282l.165-.154a12.509,12.509,0,0,0,.575-17.676l-4.992-5.333s-4.452-21.687-26.438-30.981-24.052-32.015-29.216-44.408-38.209-18.59-47.505,0" transform="translate(76.076 267.726)" fill="#8c4242"/>
        <path id="Path_123609" data-name="Path 123609" d="M95.537,368.481a52.655,52.655,0,0,1,66.232-37.07l73.04,22.16c-11,13.724-25.513,41.586-25.95,93.3-26.668-4.334-51.34-8.543-71.747-12.11a52.649,52.649,0,0,1-41.86-65.184Z" transform="translate(76.076 267.726)" fill="#edb62b"/>
        <g id="Group_88168" data-name="Group 88168" transform="translate(169.6 627.539)" opacity="0.67" style="mix-blend-mode: multiply;isolation: isolate">
          <g id="Group_88167" data-name="Group 88167">
            <g id="Group_88166" data-name="Group 88166" clip-path="url(#clip-path-12)">
              <path id="Path_123610" data-name="Path 123610" d="M163.48,400.145a53.859,53.859,0,0,1-5.821,24.4c-7.212-1.237-14.112-2.43-20.546-3.554a52.651,52.651,0,0,1-41.86-65.186l.285-1.092a53.084,53.084,0,0,1,2.57-7.482,54.106,54.106,0,0,1,65.373,52.911" transform="translate(-93.523 -346.049)" fill="#a87d1d"/>
            </g>
          </g>
        </g>
        <path id="Path_123611" data-name="Path 123611" d="M270.444,382.936s-3.1,18.049-33.046,11.606" transform="translate(193.11 311.497)" fill="none" stroke="#7b3c38" stroke-width="1.139"/>
        <g id="Group_88171" data-name="Group 88171" transform="translate(231.983 597.724)" opacity="0.28" style="mix-blend-mode: multiply;isolation: isolate">
          <g id="Group_88170" data-name="Group 88170">
            <g id="Group_88169" data-name="Group 88169" clip-path="url(#clip-path-13)">
              <path id="Path_123612" data-name="Path 123612" d="M378.531,418.054s-45.887-2.065-142.963-19.382c-78.647-14.029-101.718-54.284-107.644-69.065a53.349,53.349,0,0,1,5.863,1.413l215.381,65.347c9.294-18.59,42.342-12.393,47.505,0s7.23,35.112,29.216,44.408,26.438,30.981,26.438,30.981-22.606-14.459-36.9-17.556-36.9-36.146-36.9-36.146" transform="translate(-127.924 -329.607)" fill="#4c2a29"/>
            </g>
          </g>
        </g>
        <path id="Path_123613" data-name="Path 123613" d="M295.631,450.991s39.548,37.841,73.265,22.271a9.827,9.827,0,0,0,3.7-14.731c-28.4-38.574-64.212-80.6-77.862-96.39a13.367,13.367,0,0,0-13.842-4.093l-38.844,11.283Z" transform="translate(196.897 290.82)" fill="#2f2f35"/>
        <path id="Path_123614" data-name="Path 123614" d="M258.74,369.095l-37.2-11.287,28.179,86.719,62.6,6.227Z" transform="translate(180.21 291.057)" fill="#a5a5a5"/>
        <path id="Path_123615" data-name="Path 123615" d="M228.2,396.758,443.58,331.41a52.658,52.658,0,0,1,66.232,37.072l.285,1.09a52.65,52.65,0,0,1-41.86,65.186C388.6,448.677,244.267,472.351,168.3,475.246L136.28,496.592a12.505,12.505,0,0,1-15.492-1.282l-.165-.154a12.509,12.509,0,0,1-.575-17.676l4.992-5.333s4.452-21.687,26.438-30.981,24.052-32.015,29.216-44.408,38.211-18.59,47.5,0" transform="translate(94.904 267.726)" fill="#ff7e6e"/>
        <path id="Path_123616" data-name="Path 123616" d="M395.936,368.481a52.655,52.655,0,0,0-66.232-37.07l-73.04,22.16c11,13.724,25.513,41.586,25.95,93.3,26.668-4.334,51.339-8.543,71.747-12.11a52.648,52.648,0,0,0,41.86-65.184Z" transform="translate(208.781 267.726)" fill="#edb62b"/>
        <g id="Group_88174" data-name="Group 88174" transform="translate(536.774 627.539)" opacity="0.67" style="mix-blend-mode: multiply;isolation: isolate">
          <g id="Group_88173" data-name="Group 88173">
            <g id="Group_88172" data-name="Group 88172" clip-path="url(#clip-path-14)">
              <path id="Path_123617" data-name="Path 123617" d="M296,400.145a53.859,53.859,0,0,0,5.821,24.4c7.212-1.237,14.112-2.43,20.546-3.554a52.65,52.65,0,0,0,41.86-65.186l-.285-1.092a53.09,53.09,0,0,0-2.57-7.482A54.106,54.106,0,0,0,296,400.145" transform="translate(-295.997 -346.049)" fill="#a87d1d"/>
            </g>
          </g>
        </g>
        <g id="Group_88177" data-name="Group 88177" transform="translate(219.945 597.724)" opacity="0.28" style="mix-blend-mode: multiply;isolation: isolate">
          <g id="Group_88176" data-name="Group 88176">
            <g id="Group_88175" data-name="Group 88175" clip-path="url(#clip-path-15)">
              <path id="Path_123618" data-name="Path 123618" d="M195.081,418.054s45.887-2.065,142.963-19.382c78.647-14.029,101.718-54.284,107.644-69.065a53.351,53.351,0,0,0-5.863,1.413L224.445,396.367c-9.294-18.59-42.342-12.393-47.5,0s-7.23,35.112-29.216,44.408-26.438,30.981-26.438,30.981,22.606-14.459,36.9-17.556,36.9-36.146,36.9-36.146" transform="translate(-121.287 -329.607)" fill="#4c2a29"/>
            </g>
          </g>
        </g>
        <g id="Group_88180" data-name="Group 88180" transform="translate(168.291 595.062)" opacity="0.57">
          <g id="Group_88179" data-name="Group 88179">
            <g id="Group_88178" data-name="Group 88178" clip-path="url(#clip-path-16)">
              <path id="Path_123619" data-name="Path 123619" d="M170.441,441.514l-32.287-5.986A53.165,53.165,0,0,1,94.128,374.07l.2-1.143a53.165,53.165,0,0,1,68.47-41.724l60.961,19.322" transform="translate(-92.349 -327.687)" fill="none" stroke="#fff" stroke-width="1.114"/>
            </g>
          </g>
        </g>
        <path id="Path_123620" data-name="Path 123620" d="M208.579,148.88a1.413,1.413,0,0,0-1.13,2.261c3.233,4.151,7.513,6.688,12.219,6.688s8.986-2.537,12.219-6.688a1.413,1.413,0,0,0-1.13-2.261Z" transform="translate(168.512 121.106)" fill="#fff"/>
        <path id="Path_123621" data-name="Path 123621" d="M218.576,139.021v11.2a7.432,7.432,0,0,0-6.162,0" transform="translate(172.787 113.086)" fill="none" stroke="#2f2f35" stroke-linecap="round" stroke-width="0.821"/>
        <rect id="Rectangle_414" data-name="Rectangle 414" width="2.756" height="17.529" transform="translate(397.935 211.683)" fill="#ff7e6e"/>
        <path id="Path_123622" data-name="Path 123622" d="M370.642,297.382l.114.316a38.024,38.024,0,0,1-18.109,46.591L237.634,404.58l-.569-1.469a56.565,56.565,0,0,1,24.9-69.649l51.792-29.3Z" transform="translate(189.73 241.904)" fill="#ff7e6e"/>
        <g id="Group_88183" data-name="Group 88183" transform="translate(536.087 551.008)" opacity="0.28" style="mix-blend-mode: multiply;isolation: isolate">
          <g id="Group_88182" data-name="Group 88182">
            <g id="Group_88181" data-name="Group 88181" clip-path="url(#clip-path-17)">
              <path id="Path_123623" data-name="Path 123623" d="M295.618,329.054a25.075,25.075,0,0,0,2.914,11.747l3.377-1.77a38,38,0,0,0,20.312-35.115c-.464-.025-.925-.071-1.395-.071a25.209,25.209,0,0,0-25.209,25.209" transform="translate(-295.618 -303.847)" fill="#4c2a29"/>
            </g>
          </g>
        </g>
        <line id="Line_81" data-name="Line 81" y1="18.488" x2="32.602" transform="translate(503.486 527.576)" fill="none" stroke="#4c2a29" stroke-linecap="round" stroke-width="1.336"/>
        <path id="Path_123624" data-name="Path 123624" d="M120.341,297.382l-.114.316a38.024,38.024,0,0,0,18.109,46.591L253.35,404.58l.569-1.469a56.565,56.565,0,0,0-24.9-69.649l-51.792-29.3Z" transform="translate(95.954 241.904)" fill="#ff7e6e"/>
        <g id="Group_88186" data-name="Group 88186" transform="translate(213.95 551.008)" opacity="0.28" style="mix-blend-mode: multiply;isolation: isolate">
          <g id="Group_88185" data-name="Group 88185">
            <g id="Group_88184" data-name="Group 88184" clip-path="url(#clip-path-17)">
              <path id="Path_123625" data-name="Path 123625" d="M144.61,329.054A25.075,25.075,0,0,1,141.7,340.8l-3.377-1.77a38,38,0,0,1-20.312-35.115c.464-.025.925-.071,1.395-.071a25.209,25.209,0,0,1,25.209,25.209" transform="translate(-117.98 -303.847)" fill="#4c2a29"/>
            </g>
          </g>
        </g>
        <line id="Line_82" data-name="Line 82" x1="32.602" y1="18.488" transform="translate(240.579 527.576)" fill="none" stroke="#4c2a29" stroke-linecap="round" stroke-width="1.336"/>
        <path id="Path_123626" data-name="Path 123626" d="M191.456,371.677s5.8-31.849-13.1-42.07" transform="translate(145.084 268.117)" fill="none" stroke="#4c2a29" stroke-linecap="round" stroke-width="1.336"/>
        <path id="Path_123627" data-name="Path 123627" d="M242.894,371.677s-5.8-31.849,13.1-42.07" transform="translate(196.897 268.117)" fill="none" stroke="#4c2a29" stroke-linecap="round" stroke-width="1.336"/>
        <path id="Path_123628" data-name="Path 123628" d="M191.888,450.991s-39.549,37.841-73.267,22.271a9.826,9.826,0,0,1-3.7-14.731c28.4-38.574,64.21-80.6,77.86-96.39a13.373,13.373,0,0,1,13.844-4.093l38.842,11.283Z" transform="translate(91.916 290.82)" fill="#2f2f35"/>
        <path id="Path_123629" data-name="Path 123629" d="M210.077,369.095l37.2-11.287L219.1,444.527l-62.6,6.227Z" transform="translate(127.304 291.057)" fill="#ececec"/>
        <g id="Group_88189" data-name="Group 88189" transform="translate(321.91 648.865)" opacity="0.28" style="mix-blend-mode: multiply;isolation: isolate">
          <g id="Group_88188" data-name="Group 88188">
            <g id="Group_88187" data-name="Group 88187" clip-path="url(#clip-path-19)">
              <path id="Path_123630" data-name="Path 123630" d="M177.513,392.676c11.035-1.177,25.368-2.9,43.1-5.4l9.575-29.463-37.2,11.287Z" transform="translate(-177.513 -357.807)" fill="#4c2a29"/>
            </g>
          </g>
        </g>
        <path id="Path_123631" data-name="Path 123631" d="M178.02,398.77l-21.582,32.892a6.354,6.354,0,0,1-6.171,2.813l-.143-.02a6.357,6.357,0,0,1-4.408-9.865L167.789,392A6.072,6.072,0,0,1,174.2,389.5l.127.031a6.072,6.072,0,0,1,3.69,9.243" transform="translate(117.636 316.702)" fill="#fff6e7"/>
        <path id="Path_123632" data-name="Path 123632" d="M271.658,289.707H139.581L172.145,405.7H371.171l32.564-115.992Z" transform="translate(113.542 235.661)" fill="#afafaf"/>
        <rect id="Rectangle_418" data-name="Rectangle 418" width="199.025" height="16.894" transform="translate(285.686 641.359)" fill="#8b8b8c"/>
        <path id="Path_123633" data-name="Path 123633" d="M259.318,334.148c0,9.134-14.459,16.539-32.294,16.539s-32.294-7.4-32.294-16.539,14.459-16.539,32.294-16.539,32.294,7.4,32.294,16.539" transform="translate(158.402 258.357)" fill="#5a5a63"/>
        <rect id="Rectangle_419" data-name="Rectangle 419" width="264.154" height="7.694" transform="translate(253.122 517.673)" fill="#5a5a63"/>
        <rect id="Rectangle_420" data-name="Rectangle 420" width="19.932" height="6.791" transform="translate(296.712 646.21)" fill="#5a5a63"/>
        <rect id="Rectangle_421" data-name="Rectangle 421" width="19.932" height="6.791" transform="translate(325.477 646.21)" fill="#5a5a63"/>
        <line id="Line_83" data-name="Line 83" x1="121.127" transform="translate(363.585 649.806)" fill="none" stroke="#0f1201" stroke-width="1"/>
        <g id="Group_88192" data-name="Group 88192" transform="translate(253.122 517.673)" opacity="0.54" style="mix-blend-mode: overlay;isolation: isolate">
          <g id="Group_88191" data-name="Group 88191">
            <g id="Group_88190" data-name="Group 88190" clip-path="url(#clip-path-20)">
              <path id="Path_123634" data-name="Path 123634" d="M139.581,293.158,172.145,409.15h70.886c42.09-48.8,67.663-115.992,67.663-115.992l-.087-7.694H139.581Z" transform="translate(-139.581 -285.464)" fill="#fff"/>
            </g>
          </g>
        </g>
        <g id="Group_88195" data-name="Group 88195" transform="translate(253.122 524.461)" opacity="0.57">
          <g id="Group_88194" data-name="Group 88194">
            <g id="Group_88193" data-name="Group 88193" clip-path="url(#clip-path-21)">
              <line id="Line_84" data-name="Line 84" x2="264.153" transform="translate(0.001 0.907)" fill="none" stroke="#0f1201" stroke-width="1"/>
            </g>
          </g>
        </g>
        <g id="Group_88198" data-name="Group 88198" transform="translate(68.006 739.385)" opacity="0.87" style="mix-blend-mode: multiply;isolation: isolate">
          <g id="Group_88197" data-name="Group 88197">
            <g id="Group_88196" data-name="Group 88196" clip-path="url(#clip-path-22)">
              <path id="Path_123635" data-name="Path 123635" d="M133.293,410.15c0,1.34-21.444,2.424-47.9,2.424S37.5,411.49,37.5,410.15s21.442-2.425,47.895-2.425,47.9,1.084,47.9,2.425" transform="translate(-37.501 -407.724)" fill="#515159"/>
            </g>
          </g>
        </g>
        <path id="Path_123636" data-name="Path 123636" d="M75.281,492.786l3.139-3.422-1.57,1.712,1.583-1.7c-.386-.368-38.184-38.69,7.473-211.375l-4.49-1.188c-46.613,176.3-7.81,214.432-6.135,215.97" transform="translate(47.625 225.174)" fill="#5a5a63"/>
        <path id="Path_123637" data-name="Path 123637" d="M63.213,279.62c17.293,15.715,14.263,34.3,14.263,34.3s-17.318-7.384-21.335-30.4a4.256,4.256,0,0,1,7.072-3.892" transform="translate(45.61 226.528)" fill="#5a5a63"/>
        <path id="Path_123638" data-name="Path 123638" d="M96.88,285.285c-22.721,5.455-29.006,23.2-29.006,23.2s18.736,1.859,33.335-16.388a4.256,4.256,0,0,0-4.329-6.815" transform="translate(55.212 231.958)" fill="#5a5a63"/>
        <path id="Path_123639" data-name="Path 123639" d="M56.534,304.4c18.785,13.9,17.638,32.689,17.638,32.689S56.2,331.484,49.887,308.984a4.256,4.256,0,0,1,6.646-4.583" transform="translate(40.44 246.909)" fill="#5a5a63"/>
        <path id="Path_123640" data-name="Path 123640" d="M89.728,307.817c-22.059,7.711-26.527,26-26.527,26s18.827-.033,31.518-19.654a4.256,4.256,0,0,0-4.991-6.345" transform="translate(51.41 250.183)" fill="#5a5a63"/>
        <path id="Path_123641" data-name="Path 123641" d="M52.279,326.16c19.763,12.469,20.008,31.295,20.008,31.295s-18.338-4.262-26.3-26.233a4.256,4.256,0,0,1,6.289-5.061" transform="translate(37.187 264.754)" fill="#5a5a63"/>
        <path id="Path_123642" data-name="Path 123642" d="M84.9,327.9c-21.428,9.321-24.53,27.891-24.53,27.891s18.773-1.425,29.978-21.932A4.257,4.257,0,0,0,84.9,327.9" transform="translate(49.106 266.42)" fill="#5a5a63"/>
        <path id="Path_123643" data-name="Path 123643" d="M87.936,261.922c.392,23.364-15.224,33.881-15.224,33.881s-6.478-17.677,7.544-36.37a4.256,4.256,0,0,1,7.68,2.49" transform="translate(57.932 209.624)" fill="#5a5a63"/>
        <rect id="Rectangle_425" data-name="Rectangle 425" width="50.212" height="99.333" transform="translate(88.978 641.395)" fill="#edb62b"/>
        <g id="Group_88201" data-name="Group 88201" transform="translate(119.13 641.396)" opacity="0.67" style="mix-blend-mode: multiply;isolation: isolate">
          <g id="Group_88200" data-name="Group 88200">
            <g id="Group_88199" data-name="Group 88199" clip-path="url(#clip-path-23)">
              <rect id="Rectangle_426" data-name="Rectangle 426" width="20.06" height="99.333" transform="translate(0.001 -0.001)" fill="#a87d1d"/>
            </g>
          </g>
        </g>
        <path id="Path_123644" data-name="Path 123644" d="M100.457,98.232l-18.067,4.494a4.893,4.893,0,0,1-5.928-3.567l-1.737-6.991,27.559-6.855,1.739,6.993a4.89,4.89,0,0,1-3.565,5.926" transform="translate(60.784 69.397)" fill="#a87d1d"/>
        <path id="Path_123645" data-name="Path 123645" d="M210.308,131.448,54.228,170.265a5.051,5.051,0,0,1-6.122-3.683L22.364,63.08a5.052,5.052,0,0,1,3.685-6.122L182.129,18.141a5.051,5.051,0,0,1,6.122,3.683l25.74,103.5a5.051,5.051,0,0,1-3.683,6.122" transform="translate(18.07 14.634)" fill="#a87d1d"/>
        <path id="Path_123646" data-name="Path 123646" d="M204.411,116.693,200.06,129.2,61.579,163.637l-12.3-8.364L23.775,52.722,178.907,14.141Z" transform="translate(19.34 11.503)" fill="#edb62b"/>
        <rect id="Rectangle_428" data-name="Rectangle 428" width="77.881" height="105.676" transform="translate(43.116 64.224) rotate(-13.966)" fill="#fff"/>
        <rect id="Rectangle_429" data-name="Rectangle 429" width="63.989" height="3.695" transform="translate(51.926 69.649) rotate(-13.966)" fill="#afafaf"/>
        <rect id="Rectangle_430" data-name="Rectangle 430" width="63.989" height="3.695" transform="translate(54.78 81.123) rotate(-13.966)" fill="#afafaf"/>
        <rect id="Rectangle_431" data-name="Rectangle 431" width="63.989" height="3.695" transform="translate(57.633 92.598) rotate(-13.966)" fill="#afafaf"/>
        <rect id="Rectangle_432" data-name="Rectangle 432" width="63.989" height="3.695" transform="translate(60.487 104.072) rotate(-13.966)" fill="#afafaf"/>
        <rect id="Rectangle_433" data-name="Rectangle 433" width="63.988" height="3.694" transform="translate(63.342 115.546) rotate(-13.966)" fill="#afafaf"/>
        <rect id="Rectangle_434" data-name="Rectangle 434" width="63.989" height="3.695" transform="translate(66.194 127.021) rotate(-13.966)" fill="#afafaf"/>
        <rect id="Rectangle_435" data-name="Rectangle 435" width="63.988" height="3.694" transform="translate(69.049 138.495) rotate(-13.966)" fill="#afafaf"/>
        <rect id="Rectangle_436" data-name="Rectangle 436" width="63.988" height="3.694" transform="translate(71.902 149.969) rotate(-13.966)" fill="#afafaf"/>
        <rect id="Rectangle_437" data-name="Rectangle 437" width="77.88" height="105.676" transform="translate(122.668 44.44) rotate(-13.966)" fill="#fff"/>
        <rect id="Rectangle_438" data-name="Rectangle 438" width="63.989" height="3.695" transform="matrix(0.97, -0.241, 0.241, 0.97, 130.906, 50.007)" fill="#afafaf"/>
        <rect id="Rectangle_439" data-name="Rectangle 439" width="63.989" height="3.695" transform="matrix(0.97, -0.241, 0.241, 0.97, 133.759, 61.482)" fill="#afafaf"/>
        <rect id="Rectangle_440" data-name="Rectangle 440" width="63.989" height="3.695" transform="matrix(0.97, -0.241, 0.241, 0.97, 136.613, 72.956)" fill="#afafaf"/>
        <rect id="Rectangle_441" data-name="Rectangle 441" width="63.989" height="3.695" transform="matrix(0.97, -0.241, 0.241, 0.97, 139.466, 84.429)" fill="#afafaf"/>
        <rect id="Rectangle_442" data-name="Rectangle 442" width="63.989" height="3.695" transform="matrix(0.97, -0.241, 0.241, 0.97, 142.32, 95.904)" fill="#afafaf"/>
        <rect id="Rectangle_443" data-name="Rectangle 443" width="63.989" height="3.695" transform="matrix(0.97, -0.241, 0.241, 0.97, 145.174, 107.379)" fill="#afafaf"/>
        <rect id="Rectangle_444" data-name="Rectangle 444" width="63.989" height="3.695" transform="matrix(0.97, -0.241, 0.241, 0.97, 148.027, 118.852)" fill="#afafaf"/>
        <rect id="Rectangle_445" data-name="Rectangle 445" width="63.989" height="3.695" transform="matrix(0.97, -0.241, 0.241, 0.97, 150.881, 130.327)" fill="#afafaf"/>
        <path id="Path_123647" data-name="Path 123647" d="M94.814,93.759,82.856,96.733a4.89,4.89,0,0,1-5.925-3.565l-1.092-4.39,21.446-5.333,1.092,4.39a4.887,4.887,0,0,1-3.563,5.925" transform="translate(61.692 67.877)" fill="#edb62b"/>
        <path id="Path_123648" data-name="Path 123648" d="M268.426,14.178c-6.2-5.9-14.038-9.92-22.106-12.607-.054-.018-.18-.054-.363-.1a43.167,43.167,0,0,0-22.32,0c-.183.049-.308.085-.363.1-8.068,2.688-15.9,6.71-22.106,12.607C182.708,31.73,185.708,63.589,203.686,80.4c5.043,4.715,7.257,10.8,8.8,17.512.466,2.022,3.141,23.1,2.209,23.1h40.2c-.932,0,1.743-21.081,2.207-23.1,1.545-6.71,3.759-12.8,8.8-17.512,17.978-16.811,20.976-48.669,2.517-66.222" transform="translate(153.484 0)" fill="#edb62b"/>
        <g id="Group_88204" data-name="Group 88204" transform="translate(342.168 0.013)" opacity="0.52" style="mix-blend-mode: overlay;isolation: isolate">
          <g id="Group_88203" data-name="Group 88203">
            <g id="Group_88202" data-name="Group 88202" clip-path="url(#clip-path-24)">
              <path id="Path_123649" data-name="Path 123649" d="M227.568,97.907c-1.543-6.712-3.759-12.8-8.8-17.514-17.98-16.809-20.978-48.667-2.517-66.22,6.2-5.9,14.038-9.921,22.106-12.609.054-.018.178-.053.363-.1,1.2-.321,2.4-.569,3.62-.785a43.135,43.135,0,0,0-18.7.785c-.185.049-.308.083-.363.1-8.068,2.688-15.906,6.712-22.106,12.609-18.461,17.552-15.463,49.411,2.517,66.22,5.041,4.717,7.257,10.8,8.8,17.514.466,2.022,3.141,23.1,2.207,23.1h15.081c.934,0-1.741-21.081-2.207-23.1" transform="translate(-188.684 -0.008)" fill="#fff6e7"/>
            </g>
          </g>
        </g>
        <path id="Path_123650" data-name="Path 123650" d="M218.685,107.6V58.437l8.654-4.987a3.7,3.7,0,0,0-.9-6.777l-15.746-4.155a2.948,2.948,0,0,1-.457-5.538l8.452-3.8V16.488" transform="translate(169.597 13.412)" fill="none" stroke="#fefefe" stroke-linecap="round" stroke-width="2.239"/>
        <path id="Path_123651" data-name="Path 123651" d="M249.659,71.677a2.706,2.706,0,0,1-2.706,2.706h-44.2a2.706,2.706,0,1,1,0-5.411h44.2a2.706,2.706,0,0,1,2.706,2.706" transform="translate(162.724 56.104)" fill="#2f2f35"/>
        <path id="Path_123652" data-name="Path 123652" d="M249.659,76.154a2.706,2.706,0,0,1-2.706,2.706h-44.2a2.706,2.706,0,0,1,0-5.411h44.2a2.706,2.706,0,0,1,2.706,2.706" transform="translate(162.724 59.746)" fill="#2f2f35"/>
        <path id="Path_123653" data-name="Path 123653" d="M249.659,80.632a2.706,2.706,0,0,1-2.706,2.706h-44.2a2.706,2.706,0,1,1,0-5.411h44.2a2.706,2.706,0,0,1,2.706,2.706" transform="translate(162.724 63.388)" fill="#2f2f35"/>
        <path id="Path_123654" data-name="Path 123654" d="M220.8,98.439a15.788,15.788,0,0,0,15.788-15.788H205.017A15.788,15.788,0,0,0,220.8,98.439" transform="translate(166.77 67.232)" fill="#2f2f35"/>
        <path id="Path_123655" data-name="Path 123655" d="M356.263,119.828V107.119h-5.616a38.289,38.289,0,0,0-7.054-16.294l4.456-4.456-8.987-8.987L334.439,82a38.288,38.288,0,0,0-16.156-6.253V69.115H305.574V76a38.258,38.258,0,0,0-15.409,6.668l-4.5-4.5-8.987,8.987,4.557,4.555a38.272,38.272,0,0,0-6.516,16.223h-6.309v12.709h6.449a38.288,38.288,0,0,0,6.731,15.784l-4.965,4.965,8.987,8.987,5.027-5.029a38.259,38.259,0,0,0,15.752,6.436v6.86H319.1v-6.86a38.268,38.268,0,0,0,15.7-6.4l4.2,4.2L348,140.606l-4.131-4.129a38.27,38.27,0,0,0,6.893-16.649Zm-43.517,15.626a21.62,21.62,0,1,1,21.62-21.62,21.621,21.621,0,0,1-21.62,21.62" transform="translate(218.337 56.221)" fill="#666"/>
        <path id="Path_123656" data-name="Path 123656" d="M367.538,136.785v-7.332H364.3a22.076,22.076,0,0,0-4.069-9.4l2.57-2.571-5.185-5.185-2.666,2.668a22.086,22.086,0,0,0-9.321-3.607v-3.83h-7.332V111.5a22.067,22.067,0,0,0-8.89,3.844l-2.6-2.6-5.185,5.185,2.63,2.63a22.067,22.067,0,0,0-3.757,9.357h-3.641v7.332h3.721a22.086,22.086,0,0,0,3.883,9.105l-2.863,2.865,5.183,5.185,2.9-2.9a22.09,22.09,0,0,0,9.085,3.714v3.957H346.1v-3.957a22.108,22.108,0,0,0,9.06-3.692l2.425,2.425,5.185-5.185-2.383-2.383a22.075,22.075,0,0,0,3.977-9.6ZM342.433,145.8a12.473,12.473,0,1,1,12.473-12.473A12.473,12.473,0,0,1,342.433,145.8" transform="translate(257.745 87.469)" fill="#9e9e9e"/>
        <path id="Path_123657" data-name="Path 123657" d="M489.431,118.017v-26.1H477.9a78.616,78.616,0,0,0-14.489-33.46L472.56,49.3,454.1,30.848l-9.493,9.492A78.619,78.619,0,0,0,411.433,27.5V13.869h-26.1V28.014a78.609,78.609,0,0,0-31.646,13.692l-9.238-9.238L325.994,50.923l9.357,9.359A78.616,78.616,0,0,0,321.972,93.6H309.015v26.1h13.244a78.571,78.571,0,0,0,13.826,32.414l-10.2,10.2,18.455,18.455,10.326-10.326a78.583,78.583,0,0,0,32.346,13.216v14.089h26.1V183.653a78.6,78.6,0,0,0,32.25-13.144L454,179.143l18.455-18.455L463.97,152.2a78.574,78.574,0,0,0,14.152-34.187Zm-89.368,32.089a44.4,44.4,0,1,1,44.4-44.4,44.4,44.4,0,0,1-44.4,44.4" transform="translate(251.366 11.282)" fill="#8b8b8c"/>
        <path id="Path_123658" data-name="Path 123658" d="M396.5,76.253A26.054,26.054,0,1,1,370.446,50.2,26.053,26.053,0,0,1,396.5,76.253" transform="translate(280.144 40.834)" fill="#666"/>
        <path id="Path_123659" data-name="Path 123659" d="M122.542,138.186c-55.981,3.4-99.5,36.943-97.192,74.931S74.9,279.148,130.885,275.752l.125-.007a8.855,8.855,0,0,0,8-11.009,34.952,34.952,0,0,1,30.68-43.437,34.9,34.9,0,0,1,31.949,14.983,8.892,8.892,0,0,0,14.328.551c8.416-10.832,12.888-23.165,12.11-36.011-2.3-37.988-49.556-66.029-105.537-62.635" transform="translate(20.55 112.18)" fill="#5a5a63"/>
        <path id="Path_123660" data-name="Path 123660" d="M122.336,134.8c-55.981,3.395-99.5,36.943-97.192,74.931S74.7,275.757,130.679,272.362l.125-.007a8.856,8.856,0,0,0,8-11.011,34.952,34.952,0,0,1,30.68-43.437,34.909,34.909,0,0,1,31.949,14.984,8.892,8.892,0,0,0,14.328.551c8.416-10.833,12.888-23.165,12.108-36.011-2.3-37.988-49.554-66.029-105.535-62.635" transform="translate(20.382 109.422)" fill="#8b8b8c"/>
        <path id="Path_123661" data-name="Path 123661" d="M78.769,199.215a12.241,12.241,0,1,1-12.961-11.477,12.242,12.242,0,0,1,12.961,11.477" transform="translate(44.177 152.695)" fill="#edb62b"/>
        <path id="Path_123662" data-name="Path 123662" d="M60.38,186.439A12.241,12.241,0,1,1,47.42,174.961,12.242,12.242,0,0,1,60.38,186.439" transform="translate(29.218 142.303)" fill="#edb62b"/>
        <path id="Path_123663" data-name="Path 123663" d="M65.787,164.093a12.241,12.241,0,1,1-12.961-11.477,12.242,12.242,0,0,1,12.961,11.477" transform="translate(33.617 124.125)" fill="#edb62b"/>
        <path id="Path_123664" data-name="Path 123664" d="M88.577,152.015a12.241,12.241,0,1,1-12.961-11.477,12.242,12.242,0,0,1,12.961,11.477" transform="translate(52.155 114.301)" fill="#edb62b"/>
        <path id="Path_123665" data-name="Path 123665" d="M114.248,152.346a12.241,12.241,0,1,1-12.961-11.477,12.242,12.242,0,0,1,12.961,11.477" transform="translate(73.037 114.57)" fill="#edb62b"/>
        <path id="Path_123666" data-name="Path 123666" d="M135.916,164.557a12.241,12.241,0,1,1-12.961-11.477,12.242,12.242,0,0,1,12.961,11.477" transform="translate(90.663 124.503)" fill="#edb62b"/>
        <g id="Group_88207" data-name="Group 88207" transform="translate(145.7 251.47)" opacity="0.68" style="mix-blend-mode: multiply;isolation: isolate">
          <g id="Group_88206" data-name="Group 88206">
            <g id="Group_88205" data-name="Group 88205" clip-path="url(#clip-path-25)">
              <path id="Path_123667" data-name="Path 123667" d="M131.848,138.669l-11.526,24.112a3.676,3.676,0,0,0-3.594,2.278l-.033.082a3.687,3.687,0,0,0,2.026,4.807l1.081.441c-.212-.071-1.311-.2-3.629,3.175l0,0q-.212.307-.435.653l-.045.071c-.138.214-.281.444-.426.684-.031.047-.06.1-.089.145-.138.227-.277.464-.423.713-.042.074-.085.147-.127.223q-.2.356-.417.742l-.17.31q-.2.373-.412.773c-.069.131-.138.265-.209.4q-.2.389-.41.8c-.082.163-.165.334-.248.5-.134.27-.268.544-.406.829-.094.2-.19.4-.287.6-.136.285-.27.571-.41.87-.1.227-.212.462-.319.7-.136.3-.272.6-.412.912-.118.267-.239.544-.361.821-.134.306-.268.609-.406.93s-.268.631-.4.952-.268.633-.406.965-.294.713-.442,1.075c-.134.328-.267.649-.4.99-.16.4-.326.818-.49,1.233-.134.335-.265.662-.4,1.008-.183.47-.374.963-.56,1.451-.121.319-.241.624-.364.95-.223.586-.452,1.2-.682,1.819-.1.259-.19.506-.288.771q-.5,1.344-1.012,2.778c-.923,2.57-2,5.594-3.192,8.949l-.413,1.168-.553,1.563-.462,1.307c-.243.687-.493,1.4-.744,2.107-.112.321-.223.629-.337.954-.247.7-.5,1.425-.754,2.149-.131.368-.258.729-.388,1.1-.239.678-.482,1.375-.727,2.067l-.452,1.288c-.281.8-.568,1.621-.856,2.443-.107.308-.214.611-.323.923l-.889,2.542c-.127.363-.252.724-.381,1.092-.277.794-.559,1.6-.84,2.408l-.43,1.233c-.3.856-.6,1.721-.9,2.591-.131.372-.259.742-.39,1.117q-.443,1.284-.9,2.582c-.149.432-.3.861-.448,1.295l-.811,2.338q-.286.83-.575,1.663c-.232.671-.466,1.347-.7,2.022-.221.642-.442,1.282-.666,1.926q-.373,1.083-.747,2.169c-.131.381-.261.756-.392,1.135h0c-2.033,5.906-4.082,11.9-6.1,17.839q2.668-.068,5.362-.229c.042,0,.083-.005.125-.007a8.857,8.857,0,0,0,8-11.011,34.949,34.949,0,0,1,24.133-42.2c1.632-3.533,3.09-6.7,4.311-9.375,12.988-28.444,9.76-30.992,9.352-31.191l1.081.441a3.687,3.687,0,0,0,4.807-2.026l.033-.08a3.675,3.675,0,0,0-1.685-4.628l8.636-24.826a109.318,109.318,0,0,0-12.652-5.415M119.841,170.4h0l.3.123Z" transform="translate(-80.345 -138.671)" fill="#2f2f35"/>
            </g>
          </g>
        </g>
        <g id="Group_88210" data-name="Group 88210" transform="translate(87.054 281.535)" opacity="0.42">
          <g id="Group_88209" data-name="Group 88209">
            <g id="Group_88208" data-name="Group 88208" clip-path="url(#clip-path-26)">
              <path id="Path_123668" data-name="Path 123668" d="M58.235,160.059a5.12,5.12,0,1,1-5.42-4.8,5.121,5.121,0,0,1,5.42,4.8" transform="translate(-48.005 -155.249)" fill="#fff"/>
            </g>
          </g>
        </g>
        <g id="Group_88213" data-name="Group 88213" transform="translate(128.41 260.071)" opacity="0.42">
          <g id="Group_88212" data-name="Group 88212">
            <g id="Group_88211" data-name="Group 88211" clip-path="url(#clip-path-26)">
              <path id="Path_123669" data-name="Path 123669" d="M81.04,148.222a5.12,5.12,0,1,1-5.42-4.8,5.12,5.12,0,0,1,5.42,4.8" transform="translate(-70.81 -143.413)" fill="#fff"/>
            </g>
          </g>
        </g>
        <g id="Group_88216" data-name="Group 88216" transform="translate(172.199 258.976)" opacity="0.42">
          <g id="Group_88215" data-name="Group 88215">
            <g id="Group_88214" data-name="Group 88214" clip-path="url(#clip-path-28)">
              <path id="Path_123670" data-name="Path 123670" d="M105.188,147.619a5.12,5.12,0,1,1-5.422-4.8,5.123,5.123,0,0,1,5.422,4.8" transform="translate(-94.957 -142.808)" fill="#fff"/>
            </g>
          </g>
        </g>
        <g id="Group_88219" data-name="Group 88219" transform="translate(74.206 320.318)" opacity="0.42">
          <g id="Group_88218" data-name="Group 88218">
            <g id="Group_88217" data-name="Group 88217" clip-path="url(#clip-path-29)">
              <path id="Path_123671" data-name="Path 123671" d="M51.152,181.446a5.121,5.121,0,1,1-5.422-4.8,5.123,5.123,0,0,1,5.422,4.8" transform="translate(-40.92 -176.634)" fill="#fff"/>
            </g>
          </g>
        </g>
        <g id="Group_88222" data-name="Group 88222" transform="translate(110.495 343.546)" opacity="0.42">
          <g id="Group_88221" data-name="Group 88221">
            <g id="Group_88220" data-name="Group 88220" clip-path="url(#clip-path-28)">
              <path id="Path_123672" data-name="Path 123672" d="M71.161,194.255a5.12,5.12,0,1,1-5.42-4.8,5.121,5.121,0,0,1,5.42,4.8" transform="translate(-60.931 -189.443)" fill="#fff"/>
            </g>
          </g>
        </g>
        <path id="Path_123673" data-name="Path 123673" d="M138.234,159.222s16.7-9.129,17.772-23.237a36.713,36.713,0,0,0-3.689-15.179l-2.287,8.59s-1.257-13.5-10.893-20.017-7.268-4.691-7.268-4.691,8.093,10.741-.89,28.553,2.354,23.986,2.354,23.986Z" transform="translate(103.728 84.965)" fill="#edb62b"/>
        <path id="Path_123674" data-name="Path 123674" d="M135.353,142.146s-3.021-15.49,3.883-23.814c-8.975,11.378-10.828,20.519-8.574,27.905Z" transform="translate(105.576 96.256)" fill="#a87d1d"/>
        <path id="Path_123675" data-name="Path 123675" d="M135.456,134.735a6.331,6.331,0,0,1,8.068-3.059l.054.022.054.022a6.335,6.335,0,0,1,3.636,7.827l-10.982,33.739-8.269-3.368-8.271-3.366Z" transform="translate(97.407 106.728)" fill="#fff"/>
        <path id="Path_123676" data-name="Path 123676" d="M120.072,158.078l13.991,5.7a3.685,3.685,0,0,0,4.806-2.026l.034-.082a3.691,3.691,0,0,0-2.026-4.807l-13.991-5.7a3.691,3.691,0,0,0-4.807,2.026l-.033.082a3.691,3.691,0,0,0,2.026,4.807" transform="translate(95.802 122.741)" fill="#ccc"/>
        <path id="Path_123677" data-name="Path 123677" d="M143.948,155.124l5.874,2.39,5.874,2.394s4.456,1.054-9.312,31.206c-10.233,22.409-36.555,78.616-51.723,108.647a2.56,2.56,0,0,1-4.726-1.924c10.123-32.085,30.547-90.692,38.878-113.877,11.211-31.195,15.135-28.836,15.135-28.836" transform="translate(73.046 126.152)" fill="#2f2f35"/>
        <path id="Path_123678" data-name="Path 123678" d="M112.622,216.426c-6.556,13.67-12.885,26.659-17.962,36.713a2.559,2.559,0,0,1-4.724-1.924c3.387-10.741,7.932-24.458,12.79-38.819Z" transform="translate(73.047 172.773)" fill="#fff"/>
        <g id="Group_88225" data-name="Group 88225" transform="translate(183.597 284.435)" opacity="0.75" style="mix-blend-mode: overlay;isolation: isolate">
          <g id="Group_88224" data-name="Group 88224">
            <g id="Group_88223" data-name="Group 88223" clip-path="url(#clip-path-31)">
              <path id="Path_123679" data-name="Path 123679" d="M101.242,234.659h0c21.58-26.71,29.693-77.59,29.73-77.811-2.4,3.487-6.091,10.719-11.466,25.675-4.071,11.33-11.029,31.119-18.263,52.137" transform="translate(-101.242 -156.848)" fill="#fff"/>
            </g>
          </g>
        </g>
        <path id="Path_123680" data-name="Path 123680" d="M337.184,165.215l3.823,7.747,8.549,1.242-6.186,6.03,1.46,8.514-7.645-4.02-7.647,4.02L331,180.234l-6.186-6.03,8.549-1.242Z" transform="translate(264.217 134.393)" fill="#9e9e9e"/>
        <path id="Path_123681" data-name="Path 123681" d="M400.082,159.247l5.339,10.817,11.938,1.735-8.639,8.42,2.04,11.889-10.677-5.614L389.4,192.108l2.04-11.889-8.639-8.42,11.938-1.735Z" transform="translate(311.39 129.538)" fill="#666"/>
        <path id="Path_123682" data-name="Path 123682" d="M378.237,248.639l2.979,6.037,6.664.968-4.822,4.7,1.137,6.637-5.959-3.134-5.959,3.134,1.137-6.637-4.822-4.7,6.664-.968Z" transform="translate(299.829 202.254)" fill="#9e9e9e"/>
        <path id="Path_123683" data-name="Path 123683" d="M323.035,226.084l5.339,10.817,11.938,1.735-8.639,8.42,2.04,11.889-10.677-5.614-10.678,5.614,2.04-11.889-8.639-8.42L317.7,236.9Z" transform="translate(248.717 183.907)" fill="#666"/>
        <path id="Path_123684" data-name="Path 123684" d="M328.865,220.414a59.532,59.532,0,1,1,41.341,73.343,59.531,59.531,0,0,1-41.341-73.343" transform="translate(265.718 143.87)" fill="#edb62b"/>
        <g id="Group_88228" data-name="Group 88228" transform="translate(592.376 322.769)" opacity="0.67" style="mix-blend-mode: multiply;isolation: isolate">
          <g id="Group_88227" data-name="Group 88227">
            <g id="Group_88226" data-name="Group 88226" clip-path="url(#clip-path-32)">
              <path id="Path_123685" data-name="Path 123685" d="M370.206,292.844a59.49,59.49,0,0,0,57.256-14.428A59.527,59.527,0,0,1,370.85,177.988a59.529,59.529,0,0,0-.644,114.856" transform="translate(-326.658 -177.986)" fill="#a87d1d"/>
            </g>
          </g>
        </g>
        <g id="Group_88231" data-name="Group 88231" transform="translate(656.617 321.168)" opacity="0.52" style="mix-blend-mode: overlay;isolation: isolate">
          <g id="Group_88230" data-name="Group 88230">
            <g id="Group_88229" data-name="Group 88229" clip-path="url(#clip-path-33)">
              <path id="Path_123686" data-name="Path 123686" d="M373.391,178.878a60.251,60.251,0,0,0-8.908-1.775,64.973,64.973,0,0,0,48.321,80.89,60.152,60.152,0,0,0,1.93-5.772,59.533,59.533,0,0,0-41.343-73.343" transform="translate(-362.084 -177.105)" fill="#fff6e7"/>
            </g>
          </g>
        </g>
        <path id="Path_123687" data-name="Path 123687" d="M343.074,217.987c-23.1-9-37.464-17.139-36.254-21.464,2.007-7.2,46.341-1.113,99.021,13.586s93.762,32.45,91.757,39.646c-1.2,4.312-17.607,3.855-41.894-.366" transform="translate(249.523 157.4)" fill="none" stroke="#666" stroke-width="2"/>
      </g>
    </g>
  </g>
</svg>
