<svg id="Group_88136" data-name="Group 88136" xmlns="http://www.w3.org/2000/svg" xmlns:xlink="http://www.w3.org/1999/xlink" width="358.166" height="264.163" viewBox="0 0 358.166 264.163">
  <defs>
    <clipPath id="clip-path">
      <rect id="Rectangle_398" data-name="Rectangle 398" width="358.166" height="264.163" fill="none"/>
    </clipPath>
  </defs>
  <g id="Group_88135" data-name="Group 88135" clip-path="url(#clip-path)">
    <path id="Path_123526" data-name="Path 123526" d="M12.823,248.548q42.032-6.276,83.43-16.1c10.554-2.5,21.3-5.282,30.315-11.312,25.614-17.132,28.647-53.046,28.12-83.856q-1.06-61.639-7.328-123.038A605.782,605.782,0,0,1,345.108,3.736q6.938,106.575,6.38,213.459c-.052,9.84-.522,20.666-7.2,27.892-5.6,6.058-14.221,8.063-22.329,9.568-102.987,19.117-208.9,5.684-312.78-7.791" transform="translate(6.637 0)" fill="#ffe7d4"/>
    <path id="Path_123527" data-name="Path 123527" d="M150.055,105.524a4.2,4.2,0,0,0-1.394-2.878,29.5,29.5,0,0,0-2.575-2.037,14.349,14.349,0,0,1-3.7-4.417c-.288-.534-.493-1.3,0-1.656a1.208,1.208,0,0,1,.993-.071,6.583,6.583,0,0,1,3.18,1.841l-4.143-4.924a8.37,8.37,0,0,1-1.7-2.642,1.193,1.193,0,0,1,.066-1.118c.393-.483,1.163-.229,1.713.062q1.455.77,2.912,1.542c-2.32-2.161-4.808-4.682-4.88-7.852a17.907,17.907,0,0,1,4.2,2.909,13.882,13.882,0,0,1-1.8-6.3c-.036-.908.153-2.018,1-2.339a1.6,1.6,0,0,1,1.606.431,4.186,4.186,0,0,1,.886,1.5,25.122,25.122,0,0,1,1.627,6.311,16.479,16.479,0,0,1,1.031-3.533c.288-.688.919-1.484,1.61-1.2.515.21.629.881.653,1.437a36.222,36.222,0,0,1-.412,7.188,3.274,3.274,0,0,1,1.182-1.968,1.192,1.192,0,0,1,1.006-.312c.6.165.712.962.657,1.58a24.223,24.223,0,0,1-2.552,7.819c.421-.2.6-.682.865-1.068s.789-.715,1.167-.441a.862.862,0,0,1,.279.434,4.95,4.95,0,0,1-.226,2.947q-1.256,4.374-2.514,8.744" transform="translate(101.645 54.658)" fill="#89bddb"/>
    <path id="Path_123528" data-name="Path 123528" d="M148.047,105.332c.658-2.161.167-4.481-.183-6.712a51.753,51.753,0,0,1-.622-8.129c0-.276.078-.638.352-.66.209-.017.358.188.465.367l.906,1.541-.388-5.106c-.1-1.313-.016-2.957,1.184-3.5a6.529,6.529,0,0,1,.85,2.464,30.455,30.455,0,0,1,.915-6.855c.171-.679.772-1.529,1.363-1.155a1.034,1.034,0,0,1,.35.483,4.9,4.9,0,0,1,.4,1.827,14.7,14.7,0,0,1,2.471-5.02c.222-.291.539-.607.9-.522.4.1.51.607.524,1.018a13.818,13.818,0,0,1-1.4,6.521,7.924,7.924,0,0,1,1.727-1.878c.353-.277.931-.5,1.193-.131a.831.831,0,0,1,.1.538c-.121,2.59-1.449,4.948-2.745,7.195a3.84,3.84,0,0,1,1.294-.96,1.305,1.305,0,0,1,1.48.314c.455.595.088,1.446-.308,2.082a34.436,34.436,0,0,1-4.451,5.716,2.9,2.9,0,0,1,1.239-.753,1,1,0,0,1,1.187.595,1.29,1.29,0,0,1-.007.545c-.369,2.111-1.908,3.819-3.543,5.2a28.48,28.48,0,0,0-4.739,4.317" transform="translate(106.505 53.772)" fill="#89bddb"/>
    <path id="Path_123529" data-name="Path 123529" d="M147.877,122.573c1.1-6.4.8-13.28.355-19.736A95.489,95.489,0,0,0,145.289,83.3c-.1-.339-.567-.19-.517.141.994,6.6,2.185,13.094,2.58,19.768.383,6.456-.112,12.83-.09,19.275,0,.339.553.441.615.083" transform="translate(104.716 60.118)" fill="#a9d1e8"/>
    <path id="Path_123530" data-name="Path 123530" d="M147.906,118.913a113.215,113.215,0,0,1,1.725-20.285,180.035,180.035,0,0,1,4.936-19.11c.057-.2-.255-.341-.343-.145-5.41,12.163-7.231,26.322-6.985,39.54a.334.334,0,0,0,.667,0" transform="translate(106.488 57.345)" fill="#a9d1e8"/>
    <path id="Path_123531" data-name="Path 123531" d="M144.105,88.761a5.652,5.652,0,0,0,.758.693,7.419,7.419,0,0,1,.869.61,9.036,9.036,0,0,1,.717.713c.184.21.346.5.6.634.51.257.9-.153,1.175-.534.207-.288.408-.579.614-.869a3.034,3.034,0,0,0,.534-.874c.052-.188-.179-.407-.355-.274a2.244,2.244,0,0,0-.507.622l-.477.726c-.141.215-.271.455-.433.657-.188.233-.414.16-.648.029a5.292,5.292,0,0,1-1.3-1.162c-.2-.226-.333-.489-.522-.724a7.171,7.171,0,0,0-.646-.627c-.25-.236-.627.138-.379.379" transform="translate(104.178 63.875)" fill="#a9d1e8"/>
    <path id="Path_123532" data-name="Path 123532" d="M143.084,84.815c.3.248.646.439.962.663s.662.457.986.695.634.434.948.658a3.978,3.978,0,0,0,.955.672.274.274,0,0,0,.336-.191,1.536,1.536,0,0,1,.312-.546l.338-.5a4.632,4.632,0,0,0,.589-.97c.047-.136-.129-.2-.221-.128a4.389,4.389,0,0,0-.676.86l-.322.45c-.114.159-.246.431-.422.526l.4.164a3,3,0,0,0-.8-.906,9.1,9.1,0,0,0-.917-.812,11.478,11.478,0,0,0-.994-.677,6.657,6.657,0,0,0-1.115-.581.376.376,0,0,0-.364.624" transform="translate(103.416 60.885)" fill="#a9d1e8"/>
    <path id="Path_123533" data-name="Path 123533" d="M147.926,86.417a8.035,8.035,0,0,0,.01,1.842c.053.588.093,1.18.169,1.766.083.65.055,2.637,1.237,2.147.539-.224,1.056-.531,1.577-.794.5-.257,1.012-.51,1.513-.77a8.222,8.222,0,0,0,1.2-.731c.389-.3.917-.681.889-1.224a.384.384,0,0,0-.481-.365c-.4.133-.615.5-.932.758a6.975,6.975,0,0,1-.991.645q-1.274.721-2.547,1.441c-.1.057-.2.114-.3.172l-.2.114.081.065a1.992,1.992,0,0,1-.062-.515c-.04-.51-.069-1.022-.129-1.532a13.456,13.456,0,0,0-.489-3.019c-.083-.226-.493-.3-.536,0" transform="translate(106.964 62.366)" fill="#a9d1e8"/>
    <path id="Path_123534" data-name="Path 123534" d="M148.742,81.686c.029.989.1,1.97.222,2.95.067.514.126,1.029.212,1.541.065.4.047,1.017.436,1.256s.81-.028,1.162-.212l1.308-.684c.891-.467,1.835-.862,2.7-1.374.533-.315.066-1.079-.479-.819-.791.374-1.544.858-2.308,1.286-.365.205-.736.4-1.1.6l-.577.312a1.294,1.294,0,0,0-.264.143.2.2,0,0,1-.066.026c.122.145.171.162.145.053a.834.834,0,0,0-.026-.272l-.033-.327c-.022-.224-.047-.446-.076-.669q-.09-.657-.177-1.31c-.119-.87-.307-1.727-.51-2.578a.289.289,0,0,0-.565.076" transform="translate(107.59 58.883)" fill="#a9d1e8"/>
    <path id="Path_123535" data-name="Path 123535" d="M150.5,83.289c-.794,3.043-.912,6.27-1.634,9.346a48.216,48.216,0,0,0-1.52,7.788c-.2,3.038.038,6.1-.041,9.137-.086,3.281-.595,6.53-.724,9.8a.366.366,0,0,0,.715.1c1.577-6.09.851-12.486,1.234-18.683.36-5.809,3.46-11.572,2.2-17.483a.123.123,0,0,0-.234,0" transform="translate(106.031 60.184)" fill="#243466"/>
    <path id="Path_123536" data-name="Path 123536" d="M149.247,87.841a9.666,9.666,0,0,1-4.041-1.9c-.433-.345-.87-.831-.769-1.372.079-.426.462-.712.779-1a4.813,4.813,0,0,0,1.479-4.193c-.19-1.253-.767-2.818.25-3.574a2.325,2.325,0,0,1,1.117-.358,10.807,10.807,0,0,1,3.205.095c.929.167,1.994.631,2.135,1.563.1.641-.115,1.591.522,1.7a.979.979,0,0,0,.62-.174,4.065,4.065,0,0,1,3.278-.658c1.117.436,1.62,1.706,2,2.844a2.522,2.522,0,0,1,.162,1.672,2.883,2.883,0,0,1-.944,1.072c-.915.777-1.735,1.98-1.318,3.105.436,1.174,1.971,1.582,2.554,2.69A2.638,2.638,0,0,1,159.2,92.58a6.108,6.108,0,0,1-3.591.763,6.475,6.475,0,0,1-2.814-.574c-1.942-1-2.656-3.374-3.18-5.5" transform="translate(104.466 54.51)" fill="#f46440"/>
    <path id="Path_123537" data-name="Path 123537" d="M150.08,83.624c2.807,0,2.811-4.362,0-4.362s-2.811,4.362,0,4.362" transform="translate(107.035 57.333)" fill="#243466"/>
    <path id="Path_123538" data-name="Path 123538" d="M147.683,80.065a.378.378,0,0,0,0-.757.378.378,0,0,0,0,.757" transform="translate(106.559 57.366)" fill="#243466"/>
    <path id="Path_123539" data-name="Path 123539" d="M148.51,79.46a.364.364,0,0,0,0-.727.364.364,0,0,0,0,.727" transform="translate(107.169 56.95)" fill="#243466"/>
    <path id="Path_123540" data-name="Path 123540" d="M149.774,79.431l.048-.024a.126.126,0,0,0,.047-.034.284.284,0,0,0,.045-.034l.009-.007.016-.016.065-.06a.223.223,0,0,0,.06-.095.213.213,0,0,0,.026-.114A.3.3,0,0,0,150,78.84l-.065-.06a.519.519,0,0,0-.114-.091l-.05-.024a.446.446,0,0,0-.448,0,.444.444,0,0,0,.448.767" transform="translate(107.853 56.857)" fill="#243466"/>
    <path id="Path_123541" data-name="Path 123541" d="M150.694,79.978a.611.611,0,0,0,0-1.222.611.611,0,0,0,0,1.222" transform="translate(108.575 56.967)" fill="#243466"/>
    <path id="Path_123542" data-name="Path 123542" d="M150.591,80.557c.009.041.016.083.024.126l.062.148a.481.481,0,0,0,.162.176.329.329,0,0,0,.138.081.486.486,0,0,0,.241.053l.167-.022.15-.064a.476.476,0,0,0,.176-.16.486.486,0,0,0,.112-.212c.009-.043.015-.084.024-.126a.656.656,0,0,0,0-.346.648.648,0,0,0-.167-.288l-.133-.1a.63.63,0,0,0-.329-.09.5.5,0,0,0-.25.055.48.48,0,0,0-.21.134.648.648,0,0,0-.167.288.657.657,0,0,0,0,.346" transform="translate(108.911 57.674)" fill="#243466"/>
    <path id="Path_123543" data-name="Path 123543" d="M151.332,80.95a.417.417,0,0,0-.117.043.837.837,0,0,0-.093.04l-.01.007a.6.6,0,0,0-.066.05.265.265,0,0,0-.064.05l-.1.124,0,.005a.8.8,0,0,0-.064.153l-.007.019-.005.026c-.009.05-.017.109-.021.16l0,.012a.819.819,0,0,0,.022.19.57.57,0,0,0,.074.164.646.646,0,0,0,.238.229.466.466,0,0,0,.24.064.351.351,0,0,0,.183-.04.356.356,0,0,0,.153-.1.481.481,0,0,0,.122-.21l.007-.022c-.016.04-.033.079-.05.117l.019-.031-.081.107a.139.139,0,0,1,.028-.028l-.112.086a.651.651,0,0,0,.121-.095l.01-.012.024-.022-.119.091a.232.232,0,0,1,.045-.026l-.145.062a.7.7,0,0,0,.286-.167l.022-.021-.122.095a.181.181,0,0,1,.036-.021c-.048.021-.1.04-.143.06l.007,0a.435.435,0,0,0,.205-.107.457.457,0,0,0,.155-.169.451.451,0,0,0,.071-.222.478.478,0,0,0-.01-.241c-.021-.047-.041-.095-.06-.143a.614.614,0,0,0-.215-.215l-.145-.06a.589.589,0,0,0-.319,0" transform="translate(109.069 58.538)" fill="#243466"/>
    <path id="Path_123544" data-name="Path 123544" d="M150.876,81.907c-.033,0-.064-.009-.1-.01a1.236,1.236,0,0,0-.276.038l-.1.021a.682.682,0,0,0-.455.352c.133-.1.267-.207.4-.308l-.091.038c-.059.024-.134.05-.181.076a1.138,1.138,0,0,0-.153.119l-.059.052a.937.937,0,0,0-.136.157.4.4,0,0,0-.064.2.423.423,0,0,0,.01.217.563.563,0,0,0,.248.324,1.36,1.36,0,0,0,.272.1.985.985,0,0,0,.333.033l-.476-.2a.75.75,0,0,0,.319.188.727.727,0,0,0,.4,0l.1-.019a1.222,1.222,0,0,0,.343-.141c.045-.036.09-.071.134-.105a.483.483,0,0,0,.138-.214.324.324,0,0,0,.047-.169.515.515,0,0,0-.012-.265c-.022-.053-.045-.107-.067-.159s-.069-.091-.105-.136a.515.515,0,0,0-.214-.138.506.506,0,0,0-.257-.057" transform="translate(108.253 59.239)" fill="#243466"/>
    <path id="Path_123545" data-name="Path 123545" d="M149.637,82.06h-.3a.955.955,0,0,0-.267.031c-.053.021-.105.045-.157.067a.483.483,0,0,0-.184.169.323.323,0,0,0-.084.143.5.5,0,0,0-.055.252c.007.059.016.115.022.174.022.053.045.1.067.157a.505.505,0,0,0,.167.184.49.49,0,0,0,.224.115,1.024,1.024,0,0,0,.267.031h.3a.5.5,0,0,0,.255-.057.492.492,0,0,0,.212-.138.723.723,0,0,0,.195-.467c-.009-.059-.016-.117-.024-.176a.641.641,0,0,0-.171-.291l-.133-.105a.67.67,0,0,0-.334-.09" transform="translate(107.477 59.357)" fill="#243466"/>
    <path id="Path_123546" data-name="Path 123546" d="M148.772,81.87l-.243-.165-.122-.084a1.213,1.213,0,0,0-.264-.1L148,81.5l-.148.021c-.045.017-.088.036-.133.055a.4.4,0,0,0-.155.143.286.286,0,0,0-.072.122.283.283,0,0,0-.038.14.308.308,0,0,0,0,.148.424.424,0,0,0,.065.207c.014.021.029.04.043.06l.017.026c.017.024.034.047.053.069a.3.3,0,0,0,.055.069c.036.033.076.062.114.093l.227.186A.6.6,0,0,0,148.3,83c.053.009.109.016.164.022a.6.6,0,0,0,.31-.084.694.694,0,0,0,.283-.367.678.678,0,0,0-.062-.476.629.629,0,0,0-.221-.221" transform="translate(106.649 58.95)" fill="#243466"/>
    <path id="Path_123547" data-name="Path 123547" d="M147.746,80.275l-.059-.043a.48.48,0,0,0-.484,0l-.059.043a.448.448,0,0,0-.167.153.3.3,0,0,0-.076.131.446.446,0,0,0-.052.231l.021.157.06.143a.447.447,0,0,0,.153.167.305.305,0,0,0,.131.076.446.446,0,0,0,.231.052l.157-.021.143-.06a.447.447,0,0,0,.167-.153.3.3,0,0,0,.076-.131.44.44,0,0,0,.052-.229l-.021-.159-.06-.143a.6.6,0,0,0-.214-.214" transform="translate(106.222 57.987)" fill="#243466"/>
    <path id="Path_123548" data-name="Path 123548" d="M144.732,96.086a32.867,32.867,0,0,1,1.723,4.308s-6.319,22.4-5.744,25.85-2.3,4.021,12.349,4.021,17.233-.862,17.233-3.159-14.648-27.286-14.648-27.286l3.734-8.043Z" transform="translate(101.755 66.386)" fill="#fff"/>
    <path id="Path_123549" data-name="Path 123549" d="M71.337,100.835c19.053,9.5,33.95,25.462,48.405,41.09a34.7,34.7,0,0,1,5.478,7.054c16.363,19.293,4.812,27.372-7.076,27.372s-66.159-5.632-99.168-8.315a2.631,2.631,0,0,1-1.584-.486,2.639,2.639,0,0,1-.595-1.973c-.033-1.544-.1-9.8-.1-9.8S51.083,147.86,72.69,146.2" transform="translate(12.081 72.938)" fill="#75aac9"/>
    <path id="Path_123550" data-name="Path 123550" d="M84.552,73.493a46.619,46.619,0,0,1,.955-11.708.568.568,0,0,1,.81-.536q1.272.227,2.52.576a1.2,1.2,0,0,1,1.11,1.622q-.791,5.462-1.584,10.922l-4.01-.155" transform="translate(61.015 44.281)" fill="#101830"/>
    <path id="Path_123551" data-name="Path 123551" d="M78.4,60.621a54.971,54.971,0,0,1,13.187,2.721c.791.269,1.706.713,1.789,1.544a2.46,2.46,0,0,1-.227,1.058,25.362,25.362,0,0,0-1.072,7.982L78.287,71.242a1.383,1.383,0,0,1-.941-.462,1.368,1.368,0,0,1-.107-.915q.375-3.273.8-6.538c.045-.352.427-.807.631-.515" transform="translate(55.85 43.849)" fill="#101830"/>
    <path id="Path_123552" data-name="Path 123552" d="M78.965,77.1q-1.448-.137-2.9-.279a3.084,3.084,0,0,1-1.853-.6,3.009,3.009,0,0,1-.61-2.383,49.625,49.625,0,0,1,3.319-15.753,1.141,1.141,0,0,1,.3-.495,1.171,1.171,0,0,1,1.07-.036q1.086.323,2.17.641a1.615,1.615,0,0,1,.6.274c.46.384.364,1.1.229,1.692A130.2,130.2,0,0,0,78.67,76.016" transform="translate(53.235 41.548)" fill="#101830"/>
    <path id="Path_123553" data-name="Path 123553" d="M77.1,57.69c.129.643,7.529.784,7.372,1.255S80.712,77.3,80.712,77.3l-6.273-.784S76.948,56.905,77.1,57.69" transform="translate(53.844 41.712)" fill="#101830"/>
    <path id="Path_123554" data-name="Path 123554" d="M86.867,74.18a12.432,12.432,0,0,0,2.583-5.556,3.983,3.983,0,0,0-.091-2.27,1.733,1.733,0,0,0-1.808-1.12c-.943.191-1.922,1.356-2.613.686.629-.689-.4-1.846-1.313-1.668s-1.5,1.051-1.989,1.851c-1.148-.308.06-2.831-1.112-3.026-.455-.076-.812.371-1.036.77a13.749,13.749,0,0,0-1.379,9.716l-.765,2.862,5.1,1.322L83.2,73.78Z" transform="translate(55.947 45.619)" fill="#6d392f"/>
    <path id="Path_123555" data-name="Path 123555" d="M136.573,102.081c-8.353-10.333-15.818-8-15.818-8L71.665,107.653s-.065-.167-3.555,1.458c-9.029,4.2-18.662,6.923-28.247,9.623l-14.218,7.509c2.132,8.918,5.008,17.876,10.533,25.193s14.126,12.81,23.293,12.6c7.748-.174,14.8-4.245,21.469-8.2l11.445-6.792,1.237-.738a119.809,119.809,0,0,0-1.467,17.111c2.266.922,9.413,2.235,11.969,2.769,13.756-35.371,40.8-55.777,32.449-66.111" transform="translate(18.55 67.888)" fill="#89bddb"/>
    <path id="Path_123556" data-name="Path 123556" d="M59.905,82.642A83.9,83.9,0,0,0,77.611,70.326a114.185,114.185,0,0,0-12.082-9.714,1.527,1.527,0,0,0-1.832-.229l-7.531,2.881-14,4.015Z" transform="translate(30.501 43.53)" fill="#6d392f"/>
    <path id="Path_123557" data-name="Path 123557" d="M72.8,121.731l6.244-43.993c-1.384-6.075-3.809-11.591-10.492-13.688a28.276,28.276,0,0,0-15.339-.109A43.442,43.442,0,0,0,44.3,68.509a61.666,61.666,0,0,0-6.142,6.323c-8.379,9.876-14.6,21.762-16.785,34.529s-.133,26.41,6.709,37.408a3.967,3.967,0,0,0,1.267,1.425,3.624,3.624,0,0,0,1.851.362c3.85-.021,7.51-1.553,11.053-3.059L76.766,130.82a2.02,2.02,0,0,0,.872-.569c.429-.574.136-1.389-.193-2.027a27.7,27.7,0,0,0-4.644-6.494" transform="translate(14.859 45.524)" fill="#e85733"/>
    <path id="Path_123558" data-name="Path 123558" d="M106.905,72.691,93.694,93.965q-10.536-9.4-21.07-18.793c-1.925-1.718-3.855-3.438-5.937-4.961-3.5-2.563-7.646-4.606-11.975-4.372-4.436.24-8.4,2.819-11.772,5.706C40.535,73.6,38.213,76,37.355,79.052c-1.041,3.7.25,7.61,1.615,11.2a54.986,54.986,0,0,0,6.494,13.013c4.974,6.828,12.589,11.386,20.618,14.006s16.523,3.45,24.952,4.005c3.69.243,7.455.429,11.028-.524s6.981-3.24,8.367-6.668a18.177,18.177,0,0,0,.925-6.494q.341-17.02.686-34.043l-5.544-.67" transform="translate(26.746 47.61)" fill="#f46440"/>
    <path id="Path_123559" data-name="Path 123559" d="M74.438,89.508c-6.631-.157-9.69-7.795-14.948-11.838-10.54-8.1-8.646-15.348-3.307-22.005,4.756-5.932,8.5-13.623,16.089-14.078,4.994-.3,9.806,1.816,14.2,4.215,3.443,1.882,7.14,4.519,7.51,8.425a15.051,15.051,0,0,1-.522,4.079c-2.964,16.308-1.773,31.608-19.019,31.2" transform="translate(37.519 30.061)" fill="#6d392f"/>
    <path id="Path_123560" data-name="Path 123560" d="M72.972,57.731a6.46,6.46,0,0,0-.813,2.328,7.249,7.249,0,0,0-.064,2.123,8.065,8.065,0,0,0,1.742,4.1c-.078-.291-.153-.582-.231-.874-.084.231-.651.371-.844.429a8.128,8.128,0,0,1-1.477.312c-1.068.122-2.349-.176-3.28.47a.66.66,0,0,0-.131,1.015c.991,1.2,3.135.693,4.42.327a8.243,8.243,0,0,0,1.975-.779c.562-.338,1.268-1.046,1.067-1.775a3.045,3.045,0,0,0-.541-.8,6.866,6.866,0,0,1-.517-.893,6.094,6.094,0,0,1-.529-1.758,6.549,6.549,0,0,1-.014-1.835,9.306,9.306,0,0,0,.345-2.094.6.6,0,0,0-1.108-.3" transform="translate(48.966 41.552)" fill="#57261d"/>
    <path id="Path_123561" data-name="Path 123561" d="M65.26,60.406l.028.048a2.511,2.511,0,0,0,1.342,1.032c.2.026.4.053.6.081a2.257,2.257,0,0,0,1.134-.307c.016-.01.033-.019.05-.029.155-.119.31-.24.465-.36l.36-.465a1.706,1.706,0,0,0,.274-.856,1.188,1.188,0,0,0,0-.612,2.3,2.3,0,0,0-.453-1.089,1.169,1.169,0,0,0-.414-.412,1.726,1.726,0,0,0-.782-.412l-.612-.083-.614.083-.55.231-.465.36-.36.465a1.728,1.728,0,0,0-.274.856,1.188,1.188,0,0,0,0,.612,1.723,1.723,0,0,0,.274.856" transform="translate(46.978 41.188)" fill="#101830"/>
    <path id="Path_123562" data-name="Path 123562" d="M73.877,61.16a1.859,1.859,0,0,0,0-3.716,1.859,1.859,0,0,0,0,3.716" transform="translate(52.14 41.551)" fill="#101830"/>
    <path id="Path_123563" data-name="Path 123563" d="M72.6,55.055a3.966,3.966,0,0,0-1.1-.839,5.981,5.981,0,0,0-1.36-.476,7.493,7.493,0,0,0-2.866,0,6.956,6.956,0,0,0-2.349.87c-.65.4-1.618,1.125-1.48,1.978v-.326a1.576,1.576,0,0,0-.065.9.4.4,0,0,0,.579.236,1.054,1.054,0,0,0,.327-.348c.074-.115.145-.136-.007-.055a1.13,1.13,0,0,0,.305-.178,4.432,4.432,0,0,1,.695-.662,4.956,4.956,0,0,1,2-.7,8.573,8.573,0,0,1,3.536.231c.4.117.829.214,1.22.357.564.207.97-.589.57-.979" transform="translate(45.808 38.771)" fill="#101830"/>
    <path id="Path_123564" data-name="Path 123564" d="M72.2,57.02a3.486,3.486,0,0,0,.813-.052c.126-.024.253-.045.379-.065.065-.01.293-.045.1-.017.284-.04.565-.095.848-.133-.257.034.145-.009.19-.012.105-.007.21-.012.315-.014.395-.005.77.005,1.165.038.074.009.053.005-.064-.01.055.009.11.017.164.029a1.178,1.178,0,0,0,.338.033q-.147-.028-.047-.005a2.544,2.544,0,0,0,.426.067q-.134-.018.016.005a.891.891,0,0,0,.269.026.714.714,0,0,0,.608-1.058,1.629,1.629,0,0,0-.593-.653q-.134-.09-.01.005c-.083-.069-.169-.136-.255-.2a3.693,3.693,0,0,0-.464-.2,4,4,0,0,0-1.47-.253,6.732,6.732,0,0,0-1.623.238,4.827,4.827,0,0,0-1.529.672.864.864,0,0,0-.386.946.874.874,0,0,0,.808.615" transform="translate(51.614 39.457)" fill="#101830"/>
    <path id="Path_123565" data-name="Path 123565" d="M70.153,66.035a4.829,4.829,0,0,0-.674-.079,5.013,5.013,0,0,1-.67-.167,5.522,5.522,0,0,1-1.244-.62c-.414-.258-.76-.6-1.162-.865-.419-.281-.727-.707-1.155-.967a.306.306,0,0,0-.445.343,5.161,5.161,0,0,0,.943,1.341,5.55,5.55,0,0,0,1.346,1.12,5.4,5.4,0,0,0,1.477.674,2.559,2.559,0,0,0,1.689.026.446.446,0,0,0-.105-.8" transform="translate(46.864 45.785)" fill="#57261d"/>
    <path id="Path_123566" data-name="Path 123566" d="M65.257,135.383l-2.423,15.939H90.981s-.862-4.882-5.17-5.17S75.471,145,75.471,145l1.753-6.85Z" transform="translate(45.45 97.927)" fill="#101830"/>
    <path id="Path_123567" data-name="Path 123567" d="M29.474,144.323l-15.112-.715s-9.478,5.746-6.319,7.181,4.021.574,4.6,2.585H0l10.34-19.531,5.458,1.436,12.984-2.733Z" transform="translate(0 95.875)" fill="#101830"/>
    <path id="Path_123568" data-name="Path 123568" d="M61.974,79.154A8.046,8.046,0,0,1,56.253,71.5c.034-2.056,1.225-4.331,3.257-4.641,1.913-.293,3.624,1.239,4.669,2.868a14.2,14.2,0,0,1,2.061,5.4c1.325-1.051,1.625-2.909,1.827-4.588q.561-4.625,1.12-9.251A6.1,6.1,0,0,0,73.7,57.179a3.729,3.729,0,0,0,7.066-1.137A9,9,0,0,0,86.1,59.42a5.631,5.631,0,0,0,5.644-2.285,6.563,6.563,0,0,0,10.947.317c.9,1.6,3.39,1.73,4.8.55a5.674,5.674,0,0,0,1.625-5.034,4.336,4.336,0,0,0-1.074-2.6,2.165,2.165,0,0,0-2.607-.434,4.523,4.523,0,1,0-8.753-2.282,4.122,4.122,0,0,0-7.543-3c.277-1.155-1.26-2-2.42-1.735s-2.1,1.112-3.219,1.506c-3.011,1.06-5.989-1.353-8.689-3.054-3.664-2.3-8.2-3.488-12.4-2.409-4.753,1.222-8.436,5.187-10.442,9.666s-2.563,9.456-2.9,14.35c-.3,4.322-.391,8.906,1.71,12.7a9.431,9.431,0,0,0,4.994,4.432,6.574,6.574,0,0,0,6.421-1.1" transform="translate(35.38 27.895)" fill="#101830"/>
    <path id="Path_123569" data-name="Path 123569" d="M98.769,62.329,94.777,75.881c-1.56,5.3-3.173,10.705-6.392,15.171S79.977,98.938,74.525,98.5c-5.063-.4-9.4-4.021-12.21-8.294s-4.393-9.223-6.337-13.962-4.4-9.473-8.427-12.6c1.7-1.225,3.693-2.514,5.723-2.03,1.89.45,3.1,2.278,4.014,4.008a53.005,53.005,0,0,1,3.155,7.2c1.76,5,2.811,10.364,5.7,14.8s8.408,7.771,13.368,6.009c4.322-1.534,6.614-6.178,8.475-10.4q4.565-10.368,9.132-20.737" transform="translate(34.395 44.491)" fill="#89bddb"/>
    <path id="Path_123570" data-name="Path 123570" d="M133.978,115.223a181.154,181.154,0,0,1,21.835,20.466c6.948,7.495,14.276,14.38,23.1,19.643a1.7,1.7,0,0,0,1.711-2.93c-8.906-5.225-16.186-12.158-23.21-19.641-6.733-7.169-13.537-14.323-22.3-19.014-.891-.477-2.016.794-1.137,1.475" transform="translate(96.68 82.202)" fill="#89bddb"/>
    <path id="Path_123571" data-name="Path 123571" d="M178.152,113.894c-4.251,2.363-7.884,5.958-11.45,9.216q-5.454,4.984-10.688,10.2-4.968,4.945-9.752,10.071-2.4,2.577-4.751,5.2c-1.372,1.534-3.317,3.018-3.56,5.132a1.333,1.333,0,0,0,1.675,1.275c1.939-.5,3.247-2.806,4.536-4.25q2.347-2.634,4.746-5.217,4.775-5.142,9.742-10.1,5.1-5.09,10.359-10.014c3.524-3.312,7.4-6.466,10.331-10.335.557-.732-.491-1.575-1.187-1.187" transform="translate(99.779 82.313)" fill="#89bddb"/>
    <path id="Path_123572" data-name="Path 123572" d="M185.458,113.427l-52.77.412-.376,6.106,53.423,2.482Z" transform="translate(95.706 82.046)" fill="#f46440"/>
  </g>
</svg>
