<svg id="Group_88300" data-name="Group 88300" xmlns="http://www.w3.org/2000/svg" xmlns:xlink="http://www.w3.org/1999/xlink" width="741" height="702.741" viewBox="0 0 741 702.741">
  <defs>
    <clipPath id="clip-path">
      <rect id="Rectangle_314" data-name="Rectangle 314" width="741" height="702.741" fill="none"/>
    </clipPath>
    <clipPath id="clip-path-3">
      <rect id="Rectangle_276" data-name="Rectangle 276" width="10.545" height="10.543" fill="none"/>
    </clipPath>
    <clipPath id="clip-path-4">
      <rect id="Rectangle_279" data-name="Rectangle 279" width="10.547" height="10.547" fill="none"/>
    </clipPath>
    <clipPath id="clip-path-5">
      <rect id="Rectangle_281" data-name="Rectangle 281" width="10.543" height="10.547" fill="none"/>
    </clipPath>
    <clipPath id="clip-path-7">
      <rect id="Rectangle_285" data-name="Rectangle 285" width="10.545" height="10.547" fill="none"/>
    </clipPath>
  </defs>
  <g id="Group_88109" data-name="Group 88109" clip-path="url(#clip-path)">
    <rect id="Rectangle_271" data-name="Rectangle 271" width="119.429" height="84.858" transform="translate(200.231 255.547)" fill="#7b889b"/>
    <g id="Group_88108" data-name="Group 88108">
      <g id="Group_88107" data-name="Group 88107" clip-path="url(#clip-path)">
        <path id="Path_123074" data-name="Path 123074" d="M438.036,286.655H25.386A15.739,15.739,0,0,1,9.647,270.917V15.739A15.739,15.739,0,0,1,25.386,0h412.65a15.739,15.739,0,0,1,15.739,15.739V270.917a15.739,15.739,0,0,1-15.739,15.739" transform="translate(28.235)" fill="#9ba6bc"/>
        <rect id="Rectangle_272" data-name="Rectangle 272" width="416.239" height="257.884" transform="translate(51.826 14.388)" fill="#fff"/>
        <path id="Path_123075" data-name="Path 123075" d="M357.79,225.849H21.6a2.639,2.639,0,0,1-2.639-2.639V12.79A2.64,2.64,0,0,1,21.6,10.147H357.79a2.64,2.64,0,0,1,2.639,2.643V223.21a2.639,2.639,0,0,1-2.639,2.639" transform="translate(55.501 29.698)" fill="#a8aeba"/>
        <path id="Path_123076" data-name="Path 123076" d="M237.371,100.553H43.792V92.307a7.64,7.64,0,0,1,7.642-7.641H225.2a12.169,12.169,0,0,1,12.169,12.169Z" transform="translate(128.17 247.796)" fill="#9ba6bc"/>
        <path id="Path_123077" data-name="Path 123077" d="M357.761,8.917H21.632a2.67,2.67,0,0,0-2.67,2.67V29.207H360.431V11.587a2.67,2.67,0,0,0-2.67-2.67" transform="translate(55.498 26.098)" fill="#bcc3ce"/>
        <path id="Path_123078" data-name="Path 123078" d="M45.884,180.342H25.406a3.272,3.272,0,0,1-3.275-3.271V18.688a3.272,3.272,0,0,1,3.275-3.271H45.884a3.271,3.271,0,0,1,3.271,3.271V177.071a3.271,3.271,0,0,1-3.271,3.271" transform="translate(64.773 45.122)" fill="#d7e0e2"/>
        <path id="Path_123079" data-name="Path 123079" d="M39.292,35.016H25.568a2.342,2.342,0,0,1-2.34-2.344V18.951a2.342,2.342,0,0,1,2.34-2.344H39.292a2.343,2.343,0,0,1,2.344,2.344v13.72a2.343,2.343,0,0,1-2.344,2.344" transform="translate(67.983 48.605)" fill="#bcc3ce"/>
        <path id="Path_123080" data-name="Path 123080" d="M39.292,40.8H25.568a2.342,2.342,0,0,1-2.34-2.344V24.735a2.342,2.342,0,0,1,2.34-2.344H39.292a2.343,2.343,0,0,1,2.344,2.344v13.72A2.343,2.343,0,0,1,39.292,40.8" transform="translate(67.983 65.534)" fill="#bcc3ce"/>
        <path id="Path_123081" data-name="Path 123081" d="M39.292,46.585H25.568a2.342,2.342,0,0,1-2.34-2.344V30.52a2.342,2.342,0,0,1,2.34-2.344H39.292a2.343,2.343,0,0,1,2.344,2.344V44.24a2.343,2.343,0,0,1-2.344,2.344" transform="translate(67.983 82.465)" fill="#bcc3ce"/>
        <path id="Path_123082" data-name="Path 123082" d="M39.292,52.369H25.568a2.342,2.342,0,0,1-2.34-2.344V36.3a2.342,2.342,0,0,1,2.34-2.344H39.292A2.343,2.343,0,0,1,41.637,36.3v13.72a2.343,2.343,0,0,1-2.344,2.344" transform="translate(67.983 99.394)" fill="#bcc3ce"/>
        <path id="Path_123083" data-name="Path 123083" d="M39.292,58.15H25.568a2.341,2.341,0,0,1-2.34-2.34V42.089a2.342,2.342,0,0,1,2.34-2.344H39.292a2.343,2.343,0,0,1,2.344,2.344v13.72a2.342,2.342,0,0,1-2.344,2.34" transform="translate(67.983 116.325)" fill="#bcc3ce"/>
        <path id="Path_123084" data-name="Path 123084" d="M39.292,63.938H25.568a2.342,2.342,0,0,1-2.34-2.344V47.873a2.342,2.342,0,0,1,2.34-2.344H39.292a2.343,2.343,0,0,1,2.344,2.344v13.72a2.343,2.343,0,0,1-2.344,2.344" transform="translate(67.983 133.254)" fill="#bcc3ce"/>
        <rect id="Rectangle_273" data-name="Rectangle 273" width="217.446" height="145.417" transform="translate(139.652 74.138)" fill="#fff"/>
        <path id="Path_123085" data-name="Path 123085" d="M154.23,77.457H99.73a4.917,4.917,0,0,1-4.916-4.92V16.128a4.917,4.917,0,0,1,4.916-4.92h54.5a4.92,4.92,0,0,1,4.92,4.92V72.537a4.92,4.92,0,0,1-4.92,4.92" transform="translate(277.5 32.803)" fill="#d7e0e2"/>
        <rect id="Rectangle_274" data-name="Rectangle 274" width="10.543" height="10.543" transform="translate(377.466 66.009)" fill="#fff"/>
        <g id="Group_88076" data-name="Group 88076" transform="translate(384.372 51.107)" opacity="0.75">
          <g id="Group_88075" data-name="Group 88075">
            <g id="Group_88074" data-name="Group 88074" clip-path="url(#clip-path-3)">
              <rect id="Rectangle_275" data-name="Rectangle 275" width="10.543" height="10.543" transform="translate(0.001)" fill="#343944"/>
            </g>
          </g>
        </g>
        <rect id="Rectangle_277" data-name="Rectangle 277" width="10.543" height="10.543" transform="translate(377.466 47.844)" fill="#fff"/>
        <g id="Group_88079" data-name="Group 88079" transform="translate(391.961 66.005)" opacity="0.75">
          <g id="Group_88078" data-name="Group 88078">
            <g id="Group_88077" data-name="Group 88077" clip-path="url(#clip-path-4)">
              <rect id="Rectangle_278" data-name="Rectangle 278" width="10.543" height="10.543" transform="translate(0.003 0.004)" fill="#343944"/>
            </g>
          </g>
        </g>
        <g id="Group_88082" data-name="Group 88082" transform="translate(406.458 66.005)" opacity="0.55">
          <g id="Group_88081" data-name="Group 88081">
            <g id="Group_88080" data-name="Group 88080" clip-path="url(#clip-path-5)">
              <rect id="Rectangle_280" data-name="Rectangle 280" width="10.543" height="10.543" transform="translate(0 0.004)" fill="#344468"/>
            </g>
          </g>
        </g>
        <g id="Group_88085" data-name="Group 88085" transform="translate(420.951 66.005)" opacity="0.55">
          <g id="Group_88084" data-name="Group 88084">
            <g id="Group_88083" data-name="Group 88083" clip-path="url(#clip-path-5)">
              <rect id="Rectangle_282" data-name="Rectangle 282" width="10.543" height="10.543" transform="translate(0 0.004)" fill="#46776e"/>
            </g>
          </g>
        </g>
        <g id="Group_88088" data-name="Group 88088" transform="translate(377.465 81.006)" opacity="0.55">
          <g id="Group_88087" data-name="Group 88087">
            <g id="Group_88086" data-name="Group 88086" clip-path="url(#clip-path-7)">
              <rect id="Rectangle_284" data-name="Rectangle 284" width="10.543" height="10.543" transform="translate(0.001 0.004)" fill="#d2a69f"/>
            </g>
          </g>
        </g>
        <g id="Group_88091" data-name="Group 88091" transform="translate(391.961 81.006)" opacity="0.55">
          <g id="Group_88090" data-name="Group 88090">
            <g id="Group_88089" data-name="Group 88089" clip-path="url(#clip-path-4)">
              <rect id="Rectangle_286" data-name="Rectangle 286" width="10.543" height="10.543" transform="translate(0.003 0.004)" fill="#d9896d"/>
            </g>
          </g>
        </g>
        <g id="Group_88094" data-name="Group 88094" transform="translate(406.458 81.006)" opacity="0.55">
          <g id="Group_88093" data-name="Group 88093">
            <g id="Group_88092" data-name="Group 88092" clip-path="url(#clip-path-5)">
              <rect id="Rectangle_288" data-name="Rectangle 288" width="10.543" height="10.543" transform="translate(0 0.004)" fill="#b28e5b"/>
            </g>
          </g>
        </g>
        <g id="Group_88097" data-name="Group 88097" transform="translate(420.951 81.006)" opacity="0.55">
          <g id="Group_88096" data-name="Group 88096">
            <g id="Group_88095" data-name="Group 88095" clip-path="url(#clip-path-5)">
              <rect id="Rectangle_290" data-name="Rectangle 290" width="10.543" height="10.543" transform="translate(0 0.004)" fill="#7a4c5f"/>
            </g>
          </g>
        </g>
        <g id="Group_88100" data-name="Group 88100" transform="translate(377.465 96.006)" opacity="0.55">
          <g id="Group_88099" data-name="Group 88099">
            <g id="Group_88098" data-name="Group 88098" clip-path="url(#clip-path-7)">
              <rect id="Rectangle_292" data-name="Rectangle 292" width="10.543" height="10.543" transform="translate(0.001 0.004)" fill="#b28a6f"/>
            </g>
          </g>
        </g>
        <g id="Group_88103" data-name="Group 88103" transform="translate(391.961 96.006)" opacity="0.55">
          <g id="Group_88102" data-name="Group 88102">
            <g id="Group_88101" data-name="Group 88101" clip-path="url(#clip-path-4)">
              <rect id="Rectangle_294" data-name="Rectangle 294" width="10.543" height="10.543" transform="translate(0.003 0.004)" fill="#625087"/>
            </g>
          </g>
        </g>
        <g id="Group_88106" data-name="Group 88106" transform="translate(406.458 96.006)" opacity="0.55">
          <g id="Group_88105" data-name="Group 88105">
            <g id="Group_88104" data-name="Group 88104" clip-path="url(#clip-path-5)">
              <rect id="Rectangle_296" data-name="Rectangle 296" width="10.543" height="10.543" transform="translate(0 0.004)" fill="#514263"/>
            </g>
          </g>
        </g>
        <path id="Path_123086" data-name="Path 123086" d="M137.2,132.115H103.916a5.1,5.1,0,0,1-5.1-5.1V38.449a5.1,5.1,0,0,1,5.1-5.1H137.2a5.1,5.1,0,0,1,5.1,5.1v88.565a5.1,5.1,0,0,1-5.1,5.1" transform="translate(289.199 97.602)" fill="#d7e0e2"/>
        <rect id="Rectangle_298" data-name="Rectangle 298" width="43.485" height="10.045" transform="translate(388.01 141.824)" fill="#bcc3ce"/>
        <rect id="Rectangle_299" data-name="Rectangle 299" width="43.485" height="10.045" transform="translate(388.01 155.249)" fill="#bcc3ce"/>
        <rect id="Rectangle_300" data-name="Rectangle 300" width="43.485" height="10.045" transform="translate(388.01 168.679)" fill="#bcc3ce"/>
        <rect id="Rectangle_301" data-name="Rectangle 301" width="43.485" height="10.045" transform="translate(388.01 182.105)" fill="#bcc3ce"/>
        <rect id="Rectangle_302" data-name="Rectangle 302" width="43.485" height="10.045" transform="translate(388.01 195.53)" fill="#bcc3ce"/>
        <rect id="Rectangle_303" data-name="Rectangle 303" width="43.485" height="10.045" transform="translate(388.01 208.956)" fill="#bcc3ce"/>
        <path id="Path_123087" data-name="Path 123087" d="M37.235,57.644A234,234,0,0,0,106.57,54.9c16.119-3.083,32.082-7.881,48.5-7.975,9.3-.055,18.531,1.414,27.778,2.407,20.317,2.183,40.807,2.085,61.242,1.987" transform="translate(108.979 137.332)" fill="none" stroke="#d7e0e2" stroke-width="0.5"/>
        <path id="Path_123088" data-name="Path 123088" d="M72.152,114.706c-9.746-1.237-10.512-6.275-15.146-7.755s-9.711-3.7-11.392-8.262c-1.233-3.353-.255-7.115,1.225-10.367s3.467-6.306,4.367-9.762c1.641-6.33-.577-12.927-1.28-19.43-.95-8.761,1.064-18.032,6.562-24.923s14.686-11,23.353-9.393a12.938,12.938,0,0,1,7.987,4.331c3.295,4.237,2.38,9.09,2.47,13,.141,6.31,2.882,12.334,8.022,18.346,3.373,3.939,7.056,7.724,9.33,12.385,5.812,11.926-2.25,16.379-7.987,22.257-4.469,4.579-5.462,11.8-10.791,15.64-4.229,3.047-10.948,3.271-16.72,3.931" transform="translate(131.864 71.609)" fill="none" stroke="#d7e0e2" stroke-width="0.5"/>
        <path id="Path_123089" data-name="Path 123089" d="M54.215,30.433a537.188,537.188,0,0,0-1.8,73.718" transform="translate(151.863 89.071)" fill="none" stroke="#d7e0e2" stroke-width="0.5"/>
        <path id="Path_123090" data-name="Path 123090" d="M51.9,63.62c9.467-5.152,14.773-14.694,15.024-29.392" transform="translate(151.886 100.178)" fill="none" stroke="#d7e0e2" stroke-width="0.5"/>
        <path id="Path_123091" data-name="Path 123091" d="M61.046,49.834A39.769,39.769,0,0,1,49.089,31.17" transform="translate(143.673 91.228)" fill="none" stroke="#d7e0e2" stroke-width="0.5"/>
        <path id="Path_123092" data-name="Path 123092" d="M74.718,101.83c.432-17.117,3.781-55.921,5.431-72.964" transform="translate(218.684 84.485)" fill="none" stroke="#d7e0e2" stroke-width="0.5"/>
        <path id="Path_123093" data-name="Path 123093" d="M92.415,96.892a23.354,23.354,0,0,1-9.68-6.177,46.824,46.824,0,0,1-12.11-20.231c-1.524-5.227-2.1-10.9-.416-16.08s5.977-9.719,11.348-10.594c1.861-.306,3.836-.192,5.529-1.013,3.99-1.94,4.08-7.488,6.1-11.435a12.258,12.258,0,0,1,13.85-5.859,13.524,13.524,0,0,1,9.452,11.988c.51,8.376-6.467,15.9-5.768,24.268.463,5.6,4.316,10.433,5.058,16,.927,6.958-1.775,9.978-7.445,14.113-4.068,2.965-11.148,5.022-15.919,5.022" transform="translate(202.487 73.416)" fill="none" stroke="#d7e0e2" stroke-width="0.5"/>
        <path id="Path_123094" data-name="Path 123094" d="M75.015,56.672c8.046-1.476,11.03-8.443,10.732-21.326" transform="translate(219.553 103.45)" fill="none" stroke="#d7e0e2" stroke-width="0.5"/>
        <path id="Path_123095" data-name="Path 123095" d="M82.435,52.654C78.367,47.109,75.1,39.138,72.94,32.1" transform="translate(213.48 93.953)" fill="none" stroke="#d7e0e2" stroke-width="0.5"/>
        <rect id="Rectangle_304" data-name="Rectangle 304" width="715.028" height="9.817" transform="translate(12.986 348.349)" fill="#d89568"/>
        <path id="Path_123096" data-name="Path 123096" d="M161.286,438.754,201.009,90.2h-9.817L151.469,438.754Z" transform="translate(443.318 263.987)" fill="#d89568"/>
        <path id="Path_123097" data-name="Path 123097" d="M215.811,438.754,176.088,90.2h9.817l39.723,348.557Z" transform="translate(515.372 263.987)" fill="#d89568"/>
        <rect id="Rectangle_305" data-name="Rectangle 305" width="127.569" height="9.817" transform="translate(603.39 635.071)" fill="#d89568"/>
        <path id="Path_123098" data-name="Path 123098" d="M9.817,438.754,49.54,90.2H39.723L0,438.754Z" transform="translate(0 263.987)" fill="#d89568"/>
        <path id="Path_123099" data-name="Path 123099" d="M64.342,438.754,24.619,90.2h9.817L74.159,438.754Z" transform="translate(72.055 263.987)" fill="#d89568"/>
        <rect id="Rectangle_306" data-name="Rectangle 306" width="127.569" height="9.817" transform="translate(8.604 635.071)" fill="#d89568"/>
        <path id="Path_123100" data-name="Path 123100" d="M221,137.779h-22.98L154.035,71.946h22.983Z" transform="translate(450.826 210.57)" fill="#232b4c"/>
        <path id="Path_123101" data-name="Path 123101" d="M342.078,212.751H101.826a6.271,6.271,0,0,1-6.153-7.469L125.7,51.4a6.271,6.271,0,0,1,6.153-5.069H372.111a6.273,6.273,0,0,1,6.153,7.473L348.232,207.682a6.268,6.268,0,0,1-6.153,5.069" transform="translate(279.669 135.598)" fill="#3b4f66"/>
        <path id="Path_123102" data-name="Path 123102" d="M101.765,167.367,123.59,55.532a4.071,4.071,0,0,1,3.993-3.287h204.7a4.066,4.066,0,0,1,3.994,4.846L314.448,168.926a4.068,4.068,0,0,1-3.994,3.287h-204.7a4.066,4.066,0,0,1-3.993-4.846" transform="translate(297.62 152.91)" fill="#fff"/>
        <path id="Path_123103" data-name="Path 123103" d="M107.031,85.536c20.765,2.38,31.351,1.516,54.343-2.58,16.257-2.894,32.985-7.406,48.437-7.492,8.753-.047,16.9,1.327,25.226,2.262,18.3,2.05,37.583,1.959,56.817,1.865" transform="translate(313.257 220.863)" fill="none" stroke="#d7e0e2" stroke-width="0.5"/>
        <path id="Path_123104" data-name="Path 123104" d="M132.935,139.14c-8.71-1.162-7.618-5.894-11.435-7.284s-7.791-3.475-7.724-7.763c.051-3.149,2.329-6.683,4.893-9.738s5.529-5.926,7.622-9.173c3.825-5.945,4.119-12.142,5.8-18.248a48.381,48.381,0,0,1,15.153-23.415c7.649-6.471,17.769-10.335,25.328-8.823,2.655.53,5.034,1.771,5.937,4.068,1.571,3.978-1.041,8.541-2.368,12.212a21.542,21.542,0,0,0,.923,17.235c1.751,3.7,3.844,7.257,4.3,11.639,1.158,11.2-8.022,15.381-15.527,20.906-5.851,4.3-9.385,11.085-15.778,14.694-5.077,2.863-11.466,3.071-17.125,3.691" transform="translate(332.997 159.123)" fill="none" stroke="#d7e0e2" stroke-width="0.5"/>
        <path id="Path_123105" data-name="Path 123105" d="M146.359,59.973a634.531,634.531,0,0,0-28.277,69.253" transform="translate(345.601 175.528)" fill="none" stroke="#d7e0e2" stroke-width="0.5"/>
        <path id="Path_123106" data-name="Path 123106" d="M120.666,91.147c10.751-4.842,19.178-13.807,24.711-27.609" transform="translate(353.163 185.962)" fill="none" stroke="#d7e0e2" stroke-width="0.5"/>
        <path id="Path_123107" data-name="Path 123107" d="M126.43,78.2c-3.53-4.622-5.113-10.783-4.5-17.533" transform="translate(356.478 177.553)" fill="none" stroke="#d7e0e2" stroke-width="0.5"/>
        <path id="Path_123108" data-name="Path 123108" d="M140.039,127.046c6.577-16.08,23.718-52.536,31.414-68.546" transform="translate(409.864 171.217)" fill="none" stroke="#d7e0e2" stroke-width="0.5"/>
        <path id="Path_123109" data-name="Path 123109" d="M150.145,122.406a12.887,12.887,0,0,1-6.868-5.8c-3.322-5.227-4.74-11.835-4.08-19a30.776,30.776,0,0,1,5.407-15.11c3.452-4.861,9.122-9.13,14.486-9.954,1.853-.283,3.668-.177,5.556-.95,4.449-1.822,6.534-7.033,9.856-10.74,4.068-4.539,10.744-6.884,15.126-5.505s6.2,6.173,4.555,11.262c-2.545,7.869-11.812,14.941-14.176,22.8-1.579,5.258.294,9.8-1.017,15.028-1.637,6.538-5.262,9.373-12.083,13.257a39.665,39.665,0,0,1-16.763,4.72" transform="translate(406.937 160.821)" fill="none" stroke="#d7e0e2" stroke-width="0.5"/>
        <path id="Path_123110" data-name="Path 123110" d="M142.722,84.622c8.1-1.39,13.406-7.932,17.777-20.034" transform="translate(417.717 189.035)" fill="none" stroke="#d7e0e2" stroke-width="0.5"/>
        <path id="Path_123111" data-name="Path 123111" d="M145.589,80.848c-1.822-5.211-2.01-12.7-1.508-19.308" transform="translate(420.991 180.114)" fill="none" stroke="#d7e0e2" stroke-width="0.5"/>
        <path id="Path_123112" data-name="Path 123112" d="M121.893,44.519s-5.014,46.528-18.33,45.37C80,87.836,69.506,65.037,69.506,65.037s1.81-46.9,10.551-48.614,45.853,7.268,41.836,28.1" transform="translate(203.429 47.462)" fill="#efa689"/>
        <path id="Path_123113" data-name="Path 123113" d="M133.872,40.74l-23.734,37.9S98.731,93.955,77.511,89.059C55.623,84.009,55.623,71.27,55.623,71.27l62.546-48.845" transform="translate(162.797 65.633)" fill="#efa689"/>
        <path id="Path_123114" data-name="Path 123114" d="M81.412,25.673c-1.736,1.272-2.384,5.831-1.842,7.374.408,1.151,1.692.652,2.262.063,1.221-1.264,1.433-3.385,1.473-5.089.027-1.162-.169-3.613-1.893-2.348" transform="translate(232.339 74.106)" fill="#151b3d"/>
        <path id="Path_123115" data-name="Path 123115" d="M77.819,24.605s10.492-1.916,14.321,1.912" transform="translate(227.76 70.611)" fill="none" stroke="#151b3d" stroke-width="1"/>
        <path id="Path_123116" data-name="Path 123116" d="M85.982,25.315s5.643,14.729,3.75,17.541-8.78-.322-8.78-.322" transform="translate(236.929 74.092)" fill="#efa689"/>
        <path id="Path_123117" data-name="Path 123117" d="M77.7,30.908c-.259,4.257,2.042,6.813,5.352,6.723,2.509-.067,4.449-1.237,5.168-3.7Z" transform="translate(227.347 90.461)" fill="#fff"/>
        <path id="Path_123118" data-name="Path 123118" d="M106.173,76.324a13.092,13.092,0,0,1-4.068-1.386,3.742,3.742,0,0,1-1.092-.856,3.185,3.185,0,0,1-.624-1.806c-.118-1.936.923-3.734,1.41-5.615.962-3.746-.075-8.026-.122-11.855a17.444,17.444,0,0,1,1.131-7.339c1.005-2.258,2.965-4.28,5.509-4.237,2.325.035,5.144,2.384,7.327.314.436-.412.738-.99,1.284-1.245,1.249-.581,2.407.856,3.4,1.818a6.21,6.21,0,0,0,6.852,1.115,3.313,3.313,0,0,1,1.492-.514,2.84,2.84,0,0,1,1.52.774,11.223,11.223,0,0,0,6.059,2.466,7.277,7.277,0,0,0,5.961-2.344c2.065-2.435,1.908-5.992,1.637-9.173-.294-3.44-.675-7.111-2.855-9.789-2.172-2.662-5.91-4.162-9.134-5.062a22.89,22.89,0,0,0-3.978-.707c-1.5-.137-3.2.118-4.512-.8a7.579,7.579,0,0,1-1.606-1.881,11.912,11.912,0,0,0-17.906-1.5c-4.9-1.606-10.151.852-14.482,3.644-3.031,1.952-6.067,4.264-7.481,7.579a4.931,4.931,0,0,1-1.072,1.893,4.727,4.727,0,0,1-1.492.734,12.418,12.418,0,0,0-7.32,7.732c-1.5,4.732-.02,9.923-.927,14.8-.774,4.174-3.228,7.814-4.854,11.737a7,7,0,0,0-.691,3c.165,2.859,3.189,4.547,5.812,5.69a8.227,8.227,0,0,0,4.567,1.009A6.268,6.268,0,0,0,78.9,72.9c4.457-3.978,5.977-10.807,11.1-13.881,1.8-1.076,5.242-2.069,6.079.62.817,2.631-.946,4.732-1.763,7.127a79.569,79.569,0,0,0-2.682,9.888c-.707,3.463-1.139,7.249.487,10.39C93.6,89.9,96.5,91.681,99.269,93.327c5,2.969,12.369,7.543,18.46,6.079,3.53-.852,6.357-4.029,7.932-7.155,1.732-3.44,3.216-11.941,3.216-11.941a122.9,122.9,0,0,0-14.266-3.09c-2.647-.408-5.655-.377-8.439-.9m18.146,12.841a5.088,5.088,0,0,1-1.512,1.5,8.15,8.15,0,0,1-5.965,1.084c-6.389-1.488-6.573-6.554-6.829-9.232-.075-.809-.016-1.956.836-2.348a2.3,2.3,0,0,1,1.135-.114c4.029.295,12.88,2.686,12.88,2.686.628.342.664,1.209.62,1.924a9.212,9.212,0,0,1-1.166,4.5" transform="translate(191.8 39.034)" fill="#151b3d"/>
        <path id="Path_123119" data-name="Path 123119" d="M82.4,29.944c-.157-4.995-3.664-8.007-8.246-4.429C69.6,29.06,68.588,36.549,72.385,40.366c2.069,2.073,4.626,1.932,5.859.99" transform="translate(205.027 70.095)" fill="#efa689"/>
        <path id="Path_123120" data-name="Path 123120" d="M109.5,175.977s2.274,17.333,7.166,18.212,42.068-15.428,42.865-20.745-36.1-5.6-36.1-5.6-.126,8.132-13.936,8.132" transform="translate(320.48 491.246)" fill="#3b4f66"/>
        <path id="Path_123121" data-name="Path 123121" d="M140.321,155.753l15.6,47.483s.8,3.939-4.155,7.52a9.1,9.1,0,0,1-9.782.613L98.4,155.753" transform="translate(287.993 455.856)" fill="#efa689"/>
        <path id="Path_123122" data-name="Path 123122" d="M113.725,116.28l39.421,8.992s128.63,16.657,145.346,49.87c30.107,59.817,73.239,194.937,73.239,194.937l-35.4,18.448S276.8,310.561,238.11,228.57c-6.573-6.208-71.275.208-124.137.267C13.349,228.951,14.3,144.223,30.006,91.211" transform="translate(64.92 266.955)" fill="#b26830"/>
        <path id="Path_123123" data-name="Path 123123" d="M36.07,104s4.037,38.286,51.614,47.121c29.816,5.537,127.106,17.023,127.106,22.41S298.4,337.558,298.4,337.558" transform="translate(105.569 304.389)" fill="none" stroke="#a05725" stroke-width="1"/>
        <path id="Path_123124" data-name="Path 123124" d="M99.744,180.08l6,13.127,38.981-20.694-4.488-13.8Z" transform="translate(291.929 464.524)" fill="#d88d50"/>
        <path id="Path_123125" data-name="Path 123125" d="M130.84,174.96s4.339,16.932,9.307,17.219,39.9-20.376,40.057-25.748S143.7,165.21,143.7,165.21s.852,8.089-12.856,9.75" transform="translate(382.941 479.05)" fill="#3b4f66"/>
        <path id="Path_123126" data-name="Path 123126" d="M159.734,152.541l21.2,45.264s1.264,3.813-3.22,7.964a9.092,9.092,0,0,1-9.636,1.783l-49.957-49.968" transform="translate(345.706 446.455)" fill="#efa689"/>
        <path id="Path_123127" data-name="Path 123127" d="M145.03,101.646l39.421,8.992S313.081,127.3,329.8,160.508c30.107,59.817,83.99,181.468,83.99,181.468l-35.4,18.452s-70.29-64.5-108.976-146.493c-6.573-6.208-80.228.208-133.087.267C35.7,214.317,25.97,149.223,41.677,96.211" transform="translate(104.391 281.589)" fill="#c27937"/>
        <path id="Path_123128" data-name="Path 123128" d="M57.223,134.714s39.845-5.8,29.482-32.321" transform="translate(167.479 299.682)" fill="none" stroke="#af662b" stroke-width="1"/>
        <path id="Path_123129" data-name="Path 123129" d="M54.094,104s4.037,38.286,51.614,47.121c29.816,5.537,127.106,17.023,127.106,22.41s94.365,150.557,94.365,150.557" transform="translate(158.322 304.389)" fill="none" stroke="#af662b" stroke-width="1"/>
        <path id="Path_123130" data-name="Path 123130" d="M120.16,177.688l7.359,11.765L166.5,168.758,161.207,155.4Z" transform="translate(351.682 454.809)" fill="#d88d50"/>
        <path id="Path_123131" data-name="Path 123131" d="M173.425,31.231S27.4,75.879,21.612,291.168c62.479,54.276,171.039,34.646,221.537,12.3-5.969-27.876-22.544-100.875,3.86-172-2.757-37.222-35.247-81.932-35.247-81.932s-24.825,1.512-38.337-18.311" transform="translate(63.254 91.406)" fill="#aa4f37"/>
        <path id="Path_123132" data-name="Path 123132" d="M121.221,91.882q3.587-4.394,7.473-8.529a45.679,45.679,0,0,1,9.954-8.5,18.815,18.815,0,0,1,12.585-2.674,2.706,2.706,0,0,1,1.508.648c.7.719.585,2.046,1.421,2.6a2.229,2.229,0,0,0,1.5.212c3.471-.4,7.7-2.007,9.939.675,2.5,3-.483,7.351-.593,10.646-.145,4.147.77,8.729.962,12.954a5.732,5.732,0,0,1-.165,2.136,5.231,5.231,0,0,1-1.351,1.916c-12.334,12.424-36.735,9.907-49.607-.228" transform="translate(336.135 210.567)" fill="#efa689"/>
        <path id="Path_123133" data-name="Path 123133" d="M137.4,106.886c-1.182-2.545-19.442-39.6-19.442-39.6a3.383,3.383,0,0,1,6.138-2.847s16.371,38.439,17.36,40.568c-.259,1.689-2.953,2.91-4.056,1.881" transform="translate(344.318 182.859)"/>
        <path id="Path_123134" data-name="Path 123134" d="M85.266,45.78l50.946,35.035c12.978,26.973,16.441,27.586,21.7,32.844C180.071,135.817,274,167.306,274,167.306l-1.414,17.2s-103.526,3.177-145.165-17.337c-22.053-10.865-29.844-15.279-50.389-45.61L66.2,84.439" transform="translate(193.747 133.988)" fill="#efa689"/>
        <path id="Path_123135" data-name="Path 123135" d="M144.455,109.741c-11.18-23.235-19.866-44.491-35.1-59.723A71.156,71.156,0,0,0,89.516,35.894L63.379,116.1s8.859,15.13,21.9,34.391c.035-.02,27.967-13.273,59.173-40.748" transform="translate(185.497 105.054)" fill="#aa4f37"/>
        <line id="Line_70" data-name="Line 70" x1="21.904" y1="34.391" transform="translate(248.876 221.151)" fill="none" stroke="#823c29" stroke-width="0.75"/>
        <rect id="Rectangle_307" data-name="Rectangle 307" width="13.473" height="83.974" transform="translate(194.564 509.01)" fill="#151b3d"/>
        <rect id="Rectangle_308" data-name="Rectangle 308" width="17.482" height="40.587" transform="translate(192.558 577.791)" fill="#2e3d54"/>
        <rect id="Rectangle_309" data-name="Rectangle 309" width="22.3" height="53.255" transform="translate(190.151 612.245)" fill="#3b4f66"/>
        <rect id="Rectangle_310" data-name="Rectangle 310" width="5.89" height="17.875" transform="translate(111.898 666.599)" fill="#2e3d54"/>
        <rect id="Rectangle_311" data-name="Rectangle 311" width="5.89" height="17.875" transform="translate(284.472 666.599)" fill="#2e3d54"/>
        <rect id="Rectangle_312" data-name="Rectangle 312" width="5.89" height="17.875" transform="translate(213.409 666.599)" fill="#2e3d54"/>
        <path id="Path_123136" data-name="Path 123136" d="M30.878,178.043H219.71a4.908,4.908,0,1,0,0-9.817H30.878a4.908,4.908,0,1,0,0,9.817" transform="translate(76.009 492.361)" fill="#151b3d"/>
        <path id="Path_123137" data-name="Path 123137" d="M95.649,185.273a12.866,12.866,0,1,1-12.864-12.864,12.866,12.866,0,0,1,12.864,12.864" transform="translate(204.632 504.604)" fill="#3b4f66"/>
        <path id="Path_123138" data-name="Path 123138" d="M77.221,185.116a5.4,5.4,0,1,1,5.4-5.4,5.408,5.408,0,0,1-5.4,5.4" transform="translate(210.196 510.165)" fill="#2e3d54"/>
        <path id="Path_123139" data-name="Path 123139" d="M77.552,185.273a12.866,12.866,0,1,1-12.864-12.864,12.866,12.866,0,0,1,12.864,12.864" transform="translate(151.666 504.604)" fill="#3b4f66"/>
        <path id="Path_123140" data-name="Path 123140" d="M59.124,185.116a5.4,5.4,0,1,1,5.4-5.4,5.408,5.408,0,0,1-5.4,5.4" transform="translate(157.23 510.165)" fill="#2e3d54"/>
        <path id="Path_123141" data-name="Path 123141" d="M51.7,185.273a12.866,12.866,0,1,1-12.864-12.864A12.866,12.866,0,0,1,51.7,185.273" transform="translate(76.006 504.604)" fill="#3b4f66"/>
        <path id="Path_123142" data-name="Path 123142" d="M33.273,185.116a5.4,5.4,0,1,1,5.4-5.4,5.408,5.408,0,0,1-5.4,5.4" transform="translate(81.57 510.165)" fill="#2e3d54"/>
        <path id="Path_123143" data-name="Path 123143" d="M221.7,366.3c-11.517.063-91.058.031-122.842,0C-17.825,366.3-10.223,50.695,85.7,50.695H96.723c83.37,0,62.338,179.564,88.337,259.776,10.8,33.319,32.577,34.713,32.577,34.713Z" transform="translate(36.697 148.373)" fill="#151b3d"/>
        <path id="Path_123144" data-name="Path 123144" d="M233.069,146.808H34.523V125.69H220.35A12.72,12.72,0,0,1,233.069,138.4Z" transform="translate(101.041 367.868)" fill="#151b3d"/>
      </g>
    </g>
  </g>
</svg>
