<svg id="f4c361d0-f2ee-4f47-b198-e7ca5ea6b929" data-name="be91c5bb-e3e6-4313-a3bb-e4762cdc3beb" xmlns="http://www.w3.org/2000/svg" viewBox="0 0 100 100"><defs><style>.eee6efab-965e-4523-aa61-c5c083968acd{fill:#91de71;}.b898bfaf-66f1-4e54-bb5b-429848883168,.eee6efab-965e-4523-aa61-c5c083968acd{fill-rule:evenodd;}.b898bfaf-66f1-4e54-bb5b-429848883168{fill:#578544;}</style></defs><path id="a2ba5cc8-81c9-480f-b765-ba7b0deced39" data-name="bb57db6e-ddce-4582-8b3b-35fd7da9c2a0" class="eee6efab-965e-4523-aa61-c5c083968acd" d="M0,50a50,50,0,1,1,50,50A49.99707,49.99707,0,0,1,0,50Z"/><path id="e9034027-4ec8-4d5b-91da-902b3c1dbb77" data-name="bf326348-98ea-40fe-847f-28eca81db850" class="b898bfaf-66f1-4e54-bb5b-429848883168" d="M77.50489,28.44547a5.86376,5.86376,0,0,1,0,7.43543h0L47.77978,70.04582c-4.14457,4.79029-7.42911,4.75753-11.58764-.03276l-13.697-15.42262a5.86379,5.86379,0,0,1,0-7.43543,4.13549,4.13549,0,0,1,6.43316,0L40.8317,60.913a1.39028,1.39028,0,0,0,2.149,0l28.091-32.46751a4.13548,4.13548,0,0,1,6.43315,0Z"/></svg>