<svg id="e84fadad-9d4d-48f7-8bef-06c32c9c1617" data-name="f9b52ee5-f106-43f2-a8bf-9ebbde61f0ae" xmlns="http://www.w3.org/2000/svg" viewBox="0 0 100 100"><defs><style>.a435f69e-5c1e-448d-97e3-24d43c7b28c7{fill:#ff6363;}.a435f69e-5c1e-448d-97e3-24d43c7b28c7,.b4a3b4f6-c301-45f0-a89a-e6398a3aae54{fill-rule:evenodd;}.b4a3b4f6-c301-45f0-a89a-e6398a3aae54{fill:#993b3b;}</style></defs><path id="bfa50edf-af27-42d6-82f7-611466692f61" data-name="fcdc7d7e-d50b-4ae0-b425-c5462d38feb8" class="a435f69e-5c1e-448d-97e3-24d43c7b28c7" d="M0,50a50,50,0,1,1,50,50A49.99708,49.99708,0,0,1,0,50Z"/><path id="b47be8ef-a501-4130-8094-5187b440f8d6" data-name="b24c03d4-238c-4387-8233-0b49a3cadea3" class="b4a3b4f6-c301-45f0-a89a-e6398a3aae54" d="M26.02568,26.02567a5.07879,5.07879,0,0,1,7.18247-.0182h0l.0182.0182L73.98828,66.7876a5.09658,5.09658,0,0,1-7.21462,7.20067l-40.748-40.76193a5.04269,5.04269,0,0,1-.182-7.12912h0l.02844-.02969C25.914,26.03962,25.94195,25.99776,26.02568,26.02567Z"/><path id="be2cc1ba-a638-4f47-accd-e4fc6ec5e03a" data-name="b0ef2cbd-d36d-4f9b-b018-3127327e1079" class="b4a3b4f6-c301-45f0-a89a-e6398a3aae54" d="M74.00223,26.02567a5.07879,5.07879,0,0,1,.0182,7.18248l-.0182.01819h0L33.2403,73.98827a5.09658,5.09658,0,0,1-7.20067-7.21462L66.80157,26.01171a5.0914,5.0914,0,0,1,7.20031.01361Z"/></svg>