<svg id="Group_88063" data-name="Group 88063" xmlns="http://www.w3.org/2000/svg" width="30.041" height="30.041" viewBox="0 0 30.041 30.041">
  <path id="Path_122830" data-name="Path 122830" d="M6.658,148.31l-1.046,3.9-3.822.081a15.047,15.047,0,0,1-.111-14.026h0l3.4.624,1.491,3.382a8.964,8.964,0,0,0,.084,6.035Z" transform="translate(0 -130.155)" fill="#fbbb00"/>
  <path id="Path_122831" data-name="Path 122831" d="M276.056,208.176A15.015,15.015,0,0,1,270.7,222.7h0l-4.286-.219-.607-3.787a8.952,8.952,0,0,0,3.852-4.571h-8.032v-5.942Z" transform="translate(-246.277 -195.961)" fill="#518ef8"/>
  <path id="Path_122832" data-name="Path 122832" d="M53.142,317.988h0a15.026,15.026,0,0,1-22.634-4.6l4.868-3.985a8.933,8.933,0,0,0,12.873,4.574Z" transform="translate(-28.719 -291.255)" fill="#28b446"/>
  <path id="Path_122833" data-name="Path 122833" d="M51.553,3.458,46.687,7.442a8.932,8.932,0,0,0-13.169,4.677L28.625,8.113h0A15.024,15.024,0,0,1,51.553,3.458Z" transform="translate(-26.945)" fill="#f14336"/>
</svg>
