<svg id="f01f8445-3e84-4032-aa21-0224f15950a4" data-name="fb8345c4-95bc-447c-8d1f-a3e235414105" xmlns="http://www.w3.org/2000/svg" viewBox="0 0 100 100"><defs><style>.accb8186-9c68-49b2-b095-f673dbeae749{fill:#ffa766;}.accb8186-9c68-49b2-b095-f673dbeae749,.f55cca12-9e3b-444c-8b8e-6eb40d028787{fill-rule:evenodd;}.f55cca12-9e3b-444c-8b8e-6eb40d028787{fill:#99643d;}</style></defs><path id="ee1c2523-675e-4e53-a044-afdc954a382d" data-name="aa2855e3-eeee-49dd-a643-3b97c77d636d" class="accb8186-9c68-49b2-b095-f673dbeae749" d="M0,50a50,50,0,1,1,50,50A50,50,0,0,1,0,50Z"/><path id="bf26a6bb-509b-45ae-999c-a6ad52e44a2c" data-name="be378fc7-fb18-4676-9d8c-9e44a7d28a6b" class="f55cca12-9e3b-444c-8b8e-6eb40d028787" d="M49.99568,16.78061c3.25186,0,5.888,1.85215,5.888,4.13686V60.10571c0,2.28474-2.63616,4.13687-5.888,4.13687s-5.888-1.85213-5.888-4.13687V20.91747C44.10768,18.63275,46.74382,16.78063,49.99568,16.78061Z"/><path id="a4bd6980-2289-4a9f-a9df-31084d0c9456" data-name="ea54e377-f90c-44ec-8091-35c42deb51b3" class="f55cca12-9e3b-444c-8b8e-6eb40d028787" d="M43.46163,78.86637a6.52886,6.52886,0,0,1,6.52873-6.529h.06555a6.529,6.529,0,0,1,0,13.058h-.0653a6.52885,6.52885,0,0,1-6.529-6.52872Z"/></svg>