<svg xmlns="http://www.w3.org/2000/svg" viewBox="0 0 29.2 29.2"><defs><style>.a{fill:#d99937;}</style></defs><path class="a" d="M28.4,9.7l-.2-.4A14.6,14.6,0,0,0,18.9.6h-.5A16.5,16.5,0,0,0,14.6,0,14.7,14.7,0,0,0,6,2.8L5.7,3A8.6,8.6,0,0,0,4.3,4.3,14.7,14.7,0,0,0,0,13.9v.7A14.2,14.2,0,0,0,4.3,24.9c.1.2.3.3.4.4l.3.3a14.8,14.8,0,0,0,9.6,3.6h2.1a14.4,14.4,0,0,0,8.2-4.2,11.6,11.6,0,0,0,2-2.4c0-.1.1-.2.2-.3A14.8,14.8,0,0,0,28.4,9.7m-2.8-.3L21.9,14l-.8-3.5h0v-.3L19.5,3.4a11.9,11.9,0,0,1,6.1,6m-6.7,2.3L20,16.4l-3,3.8H12.2l-2.1-2.7-.9-1.1h0l1.1-4.7h0l4.3-2.1h0ZM14.6,2.4h.2l2.1.2,1.4,6.1L15.1,7.2H15L14.6,7h0L8.5,4a13.2,13.2,0,0,1,6.1-1.6M6.3,5.6l5.5,2.7h0L8.7,9.8H8.6l-.4.2h0L2.5,12.7A13,13,0,0,1,6.3,5.6m.4,11.1V17h0L5.3,22.6a12.5,12.5,0,0,1-2.9-7.2L7.5,13l-.8,3.5Zm.7,7.7,1.1-5,2.2,2.7h.1l.3.4H11l3.4,4.2a11.8,11.8,0,0,1-7-2.4m9.9,2.1-3.2-3.9h9.8a12.5,12.5,0,0,1-6.6,3.9m8.2-6.3H20.1l2.2-2.9h.1l.2-.2h0l3.9-4.9a12,12,0,0,1-1,8.1" transform="translate(0 0)"/></svg>