<svg id="a837f17a-82ca-43c7-b0b2-9354e52bc01c" data-name="Group 88321" xmlns="http://www.w3.org/2000/svg" viewBox="0 0 29.21303 29.21215"><defs><style>.ae333fae-9a6a-465f-8f62-faf324fd6c7d{fill:#d99937;}</style></defs><path id="f3e9542e-10bf-4bce-b9bb-56662cf517b4" data-name="Path 123802" class="ae333fae-9a6a-465f-8f62-faf324fd6c7d" d="M28.77137,10.12694c-.045-.135-.095-.266-.149-.4a14.673,14.673,0,0,0-9.377-8.72c-.163-.05-.325-.095-.492-.135a14.68774,14.68774,0,0,0-3.761-.488,14.468,14.468,0,0,0-8.629,2.817q-.142.1-.284.217a13.65857,13.65857,0,0,0-1.418,1.246,14.487,14.487,0,0,0-4.262,9.658,3.30128,3.30128,0,0,0-.009.366c-.009.1-.009.2-.009.3a14.519,14.519,0,0,0,4.28,10.33c.14.14.284.28.429.406a3.13148,3.13148,0,0,0,.291.26,14.47,14.47,0,0,0,9.608,3.612h.9v-.032c.253-.014.506-.036.754-.068.144-.014.289-.032.429-.054a14.50009,14.50009,0,0,0,8.24-4.127,14.27338,14.27338,0,0,0,1.932-2.384c.077-.113.144-.226.212-.339a14.658,14.658,0,0,0,1.315-12.465m-2.759-.388-3.711,4.65-.808-3.526-.023-.1h0l-.072-.321-1.517-6.636a12.25694,12.25694,0,0,1,6.131,5.933m-6.7,2.361,1.07,4.687-2.993,3.752h-4.808l-2.081-2.614-.908-1.141h0l1.07-4.678h0v-.027l4.325-2.065h0Zm-4.32-9.316h.149a11.89928,11.89928,0,0,1,2.095.212l1.4,6.113-3.17-1.525-.085-.039-.384-.19h0l-6.1-2.935a12.1,12.1,0,0,1,6.1-1.639m-8.286,3.247,5.508,2.65.009.009-3.174,1.526-.081.041-.388.185v-.027l-5.666,2.7a12.165,12.165,0,0,1,3.792-7.084m.348,11.075-.059.271h0l-1.273,5.558a12.12,12.12,0,0,1-2.917-7.107l5.1-2.429-.795,3.472Zm.7,7.712,1.156-5.039,2.194,2.75.059.072.271.339h-.009l3.381,4.257a12.10007,12.10007,0,0,1-7.057-2.379m9.9,2.09-3.161-3.969h3.618v-.014l.018.014h6.118a12.187,12.187,0,0,1-6.6,3.969m8.208-6.366h-5.4l2.253-2.822.086-.1h0l.187-.233h0l3.946-4.944a12.163,12.163,0,0,1-1.07,8.1" transform="translate(-0.38133 -0.38385)"/></svg>