<svg xmlns="http://www.w3.org/2000/svg" viewBox="0 0 267.1 27.9"><defs><style>.a{fill:#606161;}.b{fill:#d99937;}</style></defs><path class="a" d="M16.5,2.2c6.4,0,9,3,9,7.4s-1.3,5-3.8,6a6.2,6.2,0,0,1,4,6.1c0,4.3-2.7,7.4-9.1,7.4H4.7a2,2,0,0,1-2.3-1.6V4.4A1.9,1.9,0,0,1,4.1,2.2c.2-.1.4,0,.6,0ZM7,13.6h9.6q4.2,0,4.2-3.3c0-2.2-1.3-3.5-4.1-3.5H7.6c-.4,0-.6.2-.6.5ZM7,24c0,.3.2.5.6.5h9.1c2.9,0,4.2-1.4,4.2-3.6s-1.4-3.4-4.2-3.4H7Z" transform="translate(-2.4 -1.7)"/><path class="a" d="M45.6,2.2c6.1,0,8.7,3.7,8.7,8s-1.6,7-5.7,8.1l6.3,10.8H49.6L43.5,18.7h-7c-.4,0-.7.2-.7.5v9.9H31.1V18.5c0-3.1,1.3-4.3,4.2-4.3H45.8A3.6,3.6,0,0,0,49.6,11v-.6a3.4,3.4,0,0,0-3.2-3.5H31V2.2Z" transform="translate(-2.4 -1.7)"/><path class="a" d="M62.3,29.1H57.1L66.5,5.2c1-2.5,2.9-3.5,5.7-3.5s4.6,1,5.6,3.5l9.1,23.9H81.7L73.5,7.5a1.4,1.4,0,0,0-1.3-1,1.5,1.5,0,0,0-1.4,1L62.3,29.1Z" transform="translate(-2.4 -1.7)"/><path class="a" d="M95.6,2.2v11h13.8V2.2h4.7V29.1h-4.7V17.9H95.6V29.1H90.9V2.2Z" transform="translate(-2.4 -1.7)"/><path class="a" d="M125.3,29.1h-4.7V7.6c0-3.5,1.9-5.9,6-5.9s5.3,1.9,6.3,5l6.5,17.2a1.6,1.6,0,0,0,1.5,1.1,1.4,1.4,0,0,0,1.4-1.4h0V7.6c0-3.5,2-5.9,6-5.9s5.3,1.9,6.4,5L163,29.1h-5.1l-8-21.7a1.7,1.7,0,0,0-1.5-1.2A1.4,1.4,0,0,0,147,7.6V23.7c0,3.5-2,5.9-5.9,5.9s-5.3-1.9-6.4-5L128.2,7.4a1.7,1.7,0,0,0-1.5-1.2,1.4,1.4,0,0,0-1.4,1.4V29.1Z" transform="translate(-2.4 -1.7)"/><path class="b" d="M187.3,2.2V6.9H176.9c-5.2,0-7.5,2.6-7.5,8.8s2.2,8.7,7.5,8.7h10.4v4.7H176.9c-7.9,0-12.2-4.4-12.2-13.4S169,2.2,176.9,2.2Z" transform="translate(-2.4 -1.7)"/><path class="b" d="M195.6,29.1h-5.2l9.5-23.9c1-2.5,2.8-3.5,5.6-3.5s4.7,1,5.6,3.5l9.1,23.9H215L206.8,7.5a1.4,1.4,0,0,0-1.3-1,1.5,1.5,0,0,0-1.4,1l-8.5,21.6Z" transform="translate(-2.4 -1.7)"/><path class="b" d="M245,2.2V6.9H231.2c-2.4,0-3.5,1.3-3.5,3.2s.8,3.2,4,3.2H238c7.3,0,9,4,9,7.9s-2.4,7.9-8.6,7.9h-15V24.4h15.2c2.6,0,3.7-1.4,3.7-3.3s-.9-3.4-4.2-3.4h-6.3c-7.2,0-8.8-4-8.8-7.8s2.3-7.7,8.3-7.7Z" transform="translate(-2.4 -1.7)"/><path class="b" d="M269.5,2.2V6.9h-7.9V29.1h-4.8V6.9H249V2.2Z" transform="translate(-2.4 -1.7)"/></svg>